<svg width="20" height="20" viewBox="0 0 20 20" fill="none" xmlns="http://www.w3.org/2000/svg">
<path d="M10.7063 2.29297C10.3156 1.90234 9.68125 1.90234 9.29063 2.29297L5.29063 6.29297C4.9 6.68359 4.9 7.31797 5.29063 7.70859C5.68125 8.09922 6.31562 8.09922 6.70625 7.70859L9 5.41484V11.9992C9 12.5523 9.44687 12.9992 10 12.9992C10.5531 12.9992 11 12.5523 11 11.9992V5.41484L13.2937 7.70859C13.6844 8.09922 14.3188 8.09922 14.7094 7.70859C15.1 7.31797 15.1 6.68359 14.7094 6.29297L10.7094 2.29297H10.7063ZM5 12.9992C5 12.4461 4.55313 11.9992 4 11.9992C3.44687 11.9992 3 12.4461 3 12.9992V14.9992C3 16.6555 4.34375 17.9992 6 17.9992H14C15.6562 17.9992 17 16.6555 17 14.9992V12.9992C17 12.4461 16.5531 11.9992 16 11.9992C15.4469 11.9992 15 12.4461 15 12.9992V14.9992C15 15.5523 14.5531 15.9992 14 15.9992H6C5.44687 15.9992 5 15.5523 5 14.9992V12.9992Z" fill="black"/>
</svg>
