<svg width="20" height="20" viewBox="0 0 20 20" fill="none" xmlns="http://www.w3.org/2000/svg">
<path opacity="0.24" d="M2 10C2 12.1217 2.84285 14.1566 4.34315 15.6569C5.84344 17.1571 7.87827 18 10 18C12.1217 18 14.1566 17.1571 15.6569 15.6569C17.1571 14.1566 18 12.1217 18 10C18 7.87827 17.1571 5.84344 15.6569 4.34315C14.1566 2.84285 12.1217 2 10 2C7.87827 2 5.84344 2.84285 4.34315 4.34315C2.84285 5.84344 2 7.87827 2 10Z" fill="#3E5910"/>
<path d="M12.6406 6.71884C12.8844 6.38447 13.3531 6.30947 13.6875 6.55322C14.0219 6.79697 14.0969 7.26572 13.8531 7.60009L9.60627 13.4407C9.47815 13.6188 9.27815 13.7313 9.0594 13.747C8.84065 13.7626 8.62502 13.6845 8.4719 13.5282L6.2219 11.2782C5.92815 10.9845 5.92815 10.5095 6.2219 10.2188C6.51565 9.92822 6.99065 9.92509 7.28127 10.2188L8.9094 11.8501L12.6406 6.71884Z" fill="#3E5910"/>
</svg>
