<svg width="95" height="179" viewBox="0 0 95 179" fill="none" xmlns="http://www.w3.org/2000/svg">
<path d="M47.25 6.12602e-06C62.125 6.12602e-06 73.7205 6.60801 82.0365 19.824C90.3525 33.04 94.507 47.432 94.5 63C94.5 70.175 93.7545 77 92.2635 83.475C90.7725 89.95 89.068 95.725 87.15 100.8L12.3375 115.763C9.7125 110.688 7 103.646 4.2 94.6365C1.4 85.6275 0 75.082 0 63C0 44.975 4.4625 29.967 13.3875 17.976C22.3125 5.98501 33.6 -0.00699387 47.25 6.12602e-06ZM61.6875 178.5C49.2625 178.5 39.5955 174.171 32.6865 165.512C25.7775 156.853 21.882 146.832 21 135.45L88.725 121.8C90.125 124.775 91.4375 128.146 92.6625 131.912C93.8875 135.678 94.5 139.57 94.5 143.588C94.5 153.563 91.392 161.875 85.176 168.525C78.96 175.175 71.1235 178.5 61.6875 178.5Z" fill="#3E5910"/>
</svg>
