<svg width="95" height="179" viewBox="0 0 95 179" fill="none" xmlns="http://www.w3.org/2000/svg">
<path d="M47.25 6.12602e-06C32.375 6.12602e-06 20.7795 6.60801 12.4635 19.824C4.14751 33.04 -0.00699237 47.432 7.62939e-06 63C7.62939e-06 70.175 0.745511 77 2.23651 83.475C3.72751 89.95 5.43201 95.725 7.35001 100.8L82.1625 115.763C84.7875 110.688 87.5 103.646 90.3 94.6365C93.1 85.6275 94.5 75.082 94.5 63C94.5 44.975 90.0375 29.967 81.1125 17.976C72.1875 5.98501 60.9 -0.00699387 47.25 6.12602e-06ZM32.8125 178.5C45.2375 178.5 54.9045 174.171 61.8135 165.512C68.7225 156.853 72.618 146.832 73.5 135.45L5.77501 121.8C4.37501 124.775 3.06251 128.146 1.83751 131.912C0.612509 135.678 7.62939e-06 139.57 7.62939e-06 143.588C7.62939e-06 153.563 3.10801 161.875 9.32401 168.525C15.54 175.175 23.3765 178.5 32.8125 178.5Z" fill="#3E5910"/>
</svg>
