<svg width="851" height="656" viewBox="0 0 851 656" fill="none" xmlns="http://www.w3.org/2000/svg">
<path d="M299.186 45.8883C303.296 38.3685 307.777 33.5718 311.799 29.3234C321.184 19.4083 330.078 13.9875 338.714 8.80624C346.555 4.104 350.577 1.73397 355.84 0.712844C358.55 0.189674 367.967 -1.4996 378.235 3.34761C380.448 4.39395 387.917 8.03093 392.727 15.9604C396.111 21.5388 396.08 21.9864 399.313 33.6537C400.694 38.627 401.879 41.6273 402.692 45.7623C403.637 50.5591 403.688 52.0403 403.637 55.8664C403.511 65.7121 406.058 68.1452 407.779 80.7139C408.693 87.389 408.51 92.1291 408.157 101.603C407.848 109.74 407.438 119.447 404.583 131.72C403.152 137.866 400.946 147.068 395.361 157.885C391.687 165.001 389.121 169.955 383.694 175.011C374.39 183.671 363.877 185.903 359.981 186.678C357.025 187.264 346.271 189.136 333.444 184.982C319.583 180.495 311.585 171.664 308.225 167.856C300.781 159.423 297.667 151.222 295.051 144.144C290.002 130.478 289.435 119.372 288.842 107.818C287.84 88.3534 290.412 74.3728 291.288 69.9857C292.87 62.0751 294.415 54.6436 299.192 45.8946L299.186 45.8883Z" fill="white"/>
<path d="M436.006 55.2358C437.96 45.5981 439.927 39.0616 441.459 34.0316C444.736 23.2467 446.747 19.2253 448.878 15.8593C450.825 12.7896 452.975 9.4552 457.053 6.46746C461.799 2.99436 466.413 1.98584 469.622 1.31769C471.513 0.926887 479.512 -0.585896 489.464 2.22536C494.211 3.56795 497.154 5.25723 502.947 8.58535C514.053 14.9643 521.435 21.507 523.395 23.2783C528.381 27.7851 533.694 32.5819 538.844 40.3916C545.633 50.6975 548.116 60.146 549.749 66.5943C552.27 76.5345 552.585 84.0732 552.932 92.1918C553.26 99.9385 553.726 112.942 550.36 129.299C548.665 137.538 547.051 145.07 542.33 154.134C539.84 158.912 536.052 166.028 528.393 172.918C518.674 181.66 508.551 184.78 504.769 185.789C500.627 186.892 492.105 189.067 481.295 186.999C477.898 186.35 467.434 184.213 458.125 175.641C453.145 171.058 450.687 166.652 446.917 159.889C445.72 157.746 441.213 149.47 437.677 137.021C434.929 127.345 434.16 120.046 433.283 111.726C432.477 104.055 431.348 92.8411 432.527 78.2553C433.309 68.5294 434.809 61.142 436.013 55.2358H436.006Z" fill="white"/>
<path d="M564.224 157.645C567.741 152.552 571.523 148.102 579.081 139.202C581.571 136.265 590.943 125.354 601.363 118.968C602.901 118.023 605.46 116.567 609.046 115.892C614.511 114.865 618.842 116.321 619.806 116.661C621.331 117.204 624.508 118.552 629.028 123.324C632.627 127.125 635.47 131.392 639.271 139.46C641.823 144.875 644.42 150.434 646.954 158.925C648.927 165.518 653.522 182.795 652.589 205.537C651.972 220.571 649.211 231.362 647.982 235.762C646.009 242.79 644.597 247.7 641.067 253.436C635.136 263.074 627.528 268.072 620.575 272.648C607.773 281.07 596.263 284.082 588.813 285.967C578.917 288.47 571.819 290.178 562.686 288.274C558.727 287.448 549.575 285.539 544.759 278.031C542.289 274.18 541.948 270.392 541.683 267.02C540.095 246.61 539.301 236.405 539.635 230.908C540.391 218.264 540.971 208.632 544.759 196.076C550.13 178.251 558.532 165.89 564.224 157.658V157.645Z" fill="white"/>
<path d="M238.321 118.079C243.301 120.046 246.339 122.712 251.205 127.074C254.747 130.244 258.252 133.837 265.066 142.151C271.489 149.986 274.697 153.901 278.441 159.416C282.822 165.864 288.571 174.449 293.273 186.646C296.929 196.132 298.372 203.715 299.349 209.016C301.587 221.119 299.658 219.322 301.537 247.674C302.028 255.112 302.564 261.283 300.081 269.068C299.009 272.421 297.521 276.915 293.758 280.735C291.861 282.664 286.749 287.101 272.85 288.028C254.792 289.232 240.162 283.288 233.707 280.25C225.626 276.442 210.662 269.395 200.394 253.259C191.772 239.713 190.984 226.848 189.698 205.852C189.187 197.494 188.481 184.478 191.885 167.919C193.744 158.868 197.331 146.381 205.261 133.396C214.312 118.571 220.754 116.648 223.011 116.131C229.591 114.631 235.926 117.127 238.327 118.079H238.321Z" fill="white"/>
<path d="M346.531 243.205C351.655 235.08 352.386 233.378 357.473 226.205C361.98 219.852 367.293 214.513 374.593 207.699C379.642 202.984 382.22 200.589 385.018 198.761C392.135 194.109 398.728 192.344 403.638 191.065C407.823 189.974 413.591 188.518 421.268 188.581C430.925 188.663 438.079 191.109 443.613 193.05C448.858 194.891 455.539 197.299 462.731 202.732C466.501 205.581 469.627 209.016 475.892 215.893C480.796 221.276 483.418 224.182 486.318 228.802C489.274 233.504 489.199 234.689 492.275 239.726C494.783 243.823 497.191 246.905 501.465 251.891C511.361 263.464 519.839 272.005 519.839 272.005C536.303 288.595 535.805 286.093 540.942 292.364C551.33 305.034 555.484 317.798 557.331 323.647C559.549 330.688 563.741 344.486 561.554 362.135C560.085 373.973 556.297 383.03 554.355 387.216C553.076 389.97 551.355 393.677 548.399 397.894C540.646 408.949 530.762 414.427 521.831 419.249C511.355 424.903 505.083 428.294 495.508 429.429C483.299 430.879 472.589 427.853 464.969 425.704C458.319 423.825 458.212 423.094 451.31 420.989C446.223 419.432 434.121 415.732 420.518 415.776C408.819 415.814 399.062 418.865 379.547 424.966C369.058 428.244 368.56 429.019 363.656 429.681C349.789 431.553 338.588 427.393 331.377 424.714C326.757 422.999 316.672 418.801 306.051 410.065C300.17 405.231 292.228 398.694 286.435 387.222C280.932 376.324 280.271 366.692 279.729 358.914C279.306 352.8 279.041 340.061 283.7 324.895C284.746 321.498 288.629 309.547 298.103 296.342C302.124 290.738 302.943 290.776 318.96 274.242C334.208 258.503 341.929 250.485 346.524 243.205H346.531Z" fill="white"/>
<path d="M243.375 256.196C242.631 256.051 244.598 248.689 243.375 239.372C243.148 237.652 242.7 235.559 241.793 231.38C240.715 226.407 240.179 223.917 239.271 221.055C236.819 213.371 234.153 210.705 234.853 210.125C235.937 209.224 243.999 214.285 245.783 222.177C246.035 223.305 246.054 224.667 246.079 227.34C246.18 237.273 245.007 242.915 245.631 243.06C246.066 243.161 246.974 240.476 250.05 231.827C252.88 223.866 254.84 218.465 258.66 213.34C259.719 211.922 260.463 211.128 261.282 210.27C263.11 208.348 267.901 203.311 269.968 204.358C271.342 205.051 271.323 208.354 270.718 210.724C269.042 217.292 261.887 220.778 262.411 221.578C262.574 221.837 263.318 221.509 264.579 221.206C268.474 220.267 273.17 220.545 273.561 221.805C273.838 222.7 271.916 224.018 271.538 224.276C269.269 225.833 266.823 225.871 265.846 225.921C260.557 226.218 255.439 229.451 252.748 232.288C250.586 234.563 249.691 236.908 247.957 241.421C246.678 244.755 245.48 249.061 246.01 249.281C246.375 249.432 247.396 247.611 248.108 246.514C253.851 237.601 266.892 232.464 268.468 234.387C268.632 234.588 268.657 234.847 268.619 235.282C267.989 241.988 255.181 248.827 250.056 249.054C249.659 249.073 248.796 249.073 247.888 249.577C246.993 250.075 246.444 250.838 244.743 253.92C243.614 255.963 243.526 256.227 243.381 256.202L243.375 256.196Z" fill="#3E5910"/>
<path d="M228.324 154.884C228.721 153.812 226.061 152.835 225.689 150.251C225.456 148.631 226.13 146.469 227.782 145.706C229.32 145 231.242 145.725 232.326 146.797C234.507 148.952 233.53 152.753 234.324 152.886C234.917 152.98 235.257 150.824 237.23 148.524C238.264 147.32 239.663 145.687 241.592 145.618C244.038 145.523 246.698 147.956 246.862 150.616C247.019 153.226 244.712 155.092 243.956 155.703C241.693 157.531 239.077 157.745 239.14 158.067C239.191 158.325 240.817 157.89 242.594 158.25C245.342 158.804 248.898 161.357 248.5 164.156C248.185 166.368 245.462 168.335 243.231 168.064C240.016 167.673 238.365 162.7 237.508 163.065C237.161 163.21 237.69 164.301 237.508 166.066C237.451 166.633 237.23 168.669 235.963 169.879C233.959 171.789 229.654 171.354 228.425 169.425C227.032 167.238 229.698 163.317 228.79 162.794C228.462 162.605 228.072 163.103 227.158 163.431C225.367 164.068 222.506 163.715 221.434 161.887C220.527 160.349 221.062 158.035 222.342 156.8C224.409 154.808 227.882 156.125 228.336 154.89L228.324 154.884Z" fill="#3E5910"/>
<path d="M451.796 274.823C453.088 274.792 453.296 277.685 455.836 279.79C456.681 280.49 457.406 280.786 458.654 281.303C461.093 282.305 463.539 282.778 468.783 283.074C473.164 283.32 475.351 283.446 476.82 283.201C479.978 282.671 480.287 281.833 485.355 279.866C488.739 278.555 492.484 277.131 497.242 276.822C500.552 276.607 504.995 276.897 505.159 277.944C505.235 278.442 504.315 278.965 502.928 279.696C497.57 282.52 494.891 283.932 492.004 284.739C491.185 284.965 487.479 285.974 482.461 286.232C478.2 286.453 474.904 286.037 474.853 286.409C474.809 286.718 477.141 286.806 479.82 288.212C482.36 289.542 483.823 291.338 486.521 294.641C488.966 297.635 489.389 298.776 491.639 300.61C493.366 302.016 494.589 302.539 495.629 302.81C497.703 303.352 499.436 302.961 500.268 302.797C500.684 302.715 504.138 302.596 511.047 302.35C520.621 302.016 530.372 306.516 530.139 308.124C530.076 308.565 529.068 308.804 527.051 309.277C524.353 309.914 522.147 309.983 519.461 309.97C515.402 309.958 513.373 310.008 511.627 309.737C510.895 309.624 509.874 309.435 505.254 308.042C498.377 305.962 496.385 305.092 496.24 305.401C496.051 305.804 499.19 307.947 502.625 309.309C503.041 309.473 504.718 310.122 507.145 310.632C510.309 311.3 512.78 311.313 513.517 311.326C519.14 311.408 525.929 312.75 528.255 313.292C538.403 315.662 545.941 322.13 545.538 322.974C545.38 323.308 544.019 322.646 541.075 322.451C537.508 322.218 534.904 322.892 533.707 323.138C528.626 324.172 519.644 323.327 512.938 319.306C509.004 316.948 502.064 311.225 501.661 310.897C500.917 310.286 498.844 308.552 498.661 308.741C498.535 308.874 499.411 309.876 500.697 311.496C502.562 313.847 503.363 315.095 504.145 316.141C506.685 319.52 509.635 321.531 512.332 324.039C518.8 330.053 522.802 338.007 521.819 338.896C521.403 339.274 520.06 338.423 517.936 337.068C514.936 335.165 513.026 333.11 512.276 332.265C509.988 329.693 510.271 329.189 506.414 323.478C504.233 320.251 504.025 320.251 502.134 317.314C500.098 314.15 499.077 312.574 498.491 311.338C497.35 308.937 497.123 307.708 495.692 306.491C495.106 305.999 494.45 305.615 493.234 304.493C492.238 303.579 491.715 302.949 491.601 303.031C491.418 303.163 492.458 304.903 492.887 305.665C494.753 308.943 494.633 310.311 497.11 317.705C498.295 321.247 498.894 323.018 499.625 324.531C501.718 328.836 504.044 331.42 504.668 332.095C505.764 333.28 507.113 334.352 509.773 336.438C513.845 339.64 517.249 341.997 519.235 343.334C523.13 345.962 525.078 347.273 527.013 348.263C532.32 350.973 536.033 351.572 535.938 352.65C535.85 353.652 532.541 354.1 532.055 354.163C525.632 355.033 520.243 351.856 518.611 350.809C515.119 348.578 512.994 345.805 508.746 340.258C504.151 334.257 501.856 331.263 501.094 329.864C500.892 329.498 500.167 328.136 499.902 328.237C499.613 328.345 500.205 330.122 500.558 332.36C501.333 337.264 500.054 338.808 501.144 342.741C501.548 344.185 501.875 344.557 502.581 346.208C504.97 351.799 504.012 354.219 505.809 364.336C506.672 369.221 507.429 372.858 507.429 372.864C508.469 377.857 509.023 379.767 508.469 380.038C507.744 380.391 505.468 377.8 504.05 375.014C502.272 371.516 502.203 368.402 502.102 364.922C502.02 362.098 501.585 347.771 501.15 347.759C500.974 347.759 501.132 350.009 500.192 353.368C499.411 356.173 498.61 357.056 498.245 359.672C497.993 361.449 498.156 362.527 498.182 363.58C498.314 369.234 494.545 374.106 493.687 375.222C490.233 379.691 487.825 378.884 484.649 383.958C483.93 385.105 483.167 386.561 482.65 386.416C481.938 386.215 482.121 383.032 482.537 380.788C483.936 373.154 489.237 368.32 489.237 368.32C492.118 365.691 495.131 364.469 496.511 360.932C496.795 360.207 497.23 358.808 497.261 358.701C497.64 357.497 498.264 355.341 498.768 352.568C498.963 351.484 499.297 349.631 499.468 347.179C499.537 346.17 499.549 345.042 499.575 342.792C499.606 339.842 499.625 338.367 499.499 338.354C499.07 338.297 498.453 346.838 494.293 355.776C493.687 357.068 493.29 357.781 492.956 358.329C489.616 363.813 484.277 367.318 483.545 366.662C483.274 366.423 483.596 365.59 483.76 365.256C484.195 364.374 485.002 363.983 485.26 363.832C487.056 362.767 486.848 358.663 486.861 357.037C486.893 352.915 488.475 349.687 489.83 346.914C492.925 340.585 496.726 340.674 498.011 335.083C498.598 332.524 498.352 330.116 498.232 328.962C497.999 326.687 497.526 325.615 496.089 320.875C494.595 315.946 494.967 316.665 493.94 313.469C493.208 311.2 492.212 308.13 490.536 304.323C489.168 301.215 488.481 299.658 487.201 297.944C486.105 296.475 484.888 295.322 482.461 293.021C480.205 290.878 479.19 290.159 478.434 289.68C476.801 288.64 474.116 287.26 473.687 287.796C473.353 288.212 474.519 289.617 475.313 290.626C475.313 290.626 477.891 293.897 482.594 302.287C484.113 304.991 485.827 308.048 486.962 312.498C487.888 316.129 487.958 318.858 488.096 324.02C488.172 326.901 488.248 330.103 487.548 330.242C487.056 330.336 486.483 328.842 484.901 325.54C482.228 319.942 482.071 320.465 481.112 318.045C480.047 315.36 479.644 312.92 478.843 308.054C477.885 302.249 478.257 301.669 477.255 298.751C476.757 297.307 475.893 295.624 474.154 292.246C471.91 287.878 471.21 287.127 470.428 286.541C469.653 285.961 468.077 285.489 464.932 284.537C462.688 283.862 461.497 283.598 458.603 282.684C456.208 281.927 455.559 281.644 454.822 281.183C453.504 280.358 452.849 279.551 451.544 277.963C450.724 276.96 450.441 276.431 450.573 275.914C450.699 275.429 451.21 274.88 451.764 274.868L451.796 274.823Z" fill="#3E5910"/>
<path d="M353.053 281.284C353.967 282.362 352.889 284.077 352.562 286.421C352.467 287.108 352.461 287.669 353.627 293.065C354.503 297.137 354.818 298.272 355.304 300.56C355.921 303.478 356.432 306.466 356.652 308.243C357.711 316.74 355.833 326.63 353.539 326.825C353.299 326.844 352.795 326.781 351.534 324.928C347.469 318.959 347.689 312.372 347.714 311.76C347.941 306.995 349.334 307.228 350.69 299.097C350.929 297.673 352.102 290.638 351.005 290.317C350.538 290.178 350.015 291.351 348.773 293.065C345.181 298.057 342.552 298.057 339.93 302.148C339.092 303.459 338.587 304.991 337.579 308.054C336.507 311.313 335.322 314.918 335.064 319.457C334.799 324.064 334.484 329.618 338.127 333.4C340.201 335.555 342.804 336.343 344.059 336.721C347.714 337.831 350.671 337.295 352.839 337.037C362.666 335.864 371.446 338.549 376.457 341.027C379.773 342.665 383.637 345.306 383.221 346.504C383.069 346.939 382.382 347.109 379.117 347.387C375.203 347.721 373.243 347.884 371.667 347.828C367.204 347.658 362.243 345.874 352.316 342.3C347.084 340.415 344.462 339.476 343.006 338.663C340.787 337.427 339.104 336.179 338.531 336.684C337.982 337.163 338.858 338.858 339.961 341.342C342.558 347.166 341.493 346.208 344.311 352.429C347.235 358.871 348.414 359.968 349.523 360.693C351.427 361.928 353.305 362.155 354.78 362.319C359.596 362.855 361.695 360.894 367.122 360.088C370.69 359.558 373.381 359.88 376.23 360.214C382.666 360.97 390.331 363.365 390.186 365.187C390.154 365.54 389.827 365.994 386.826 366.952C380.315 369.032 374.749 369.171 372.272 369.164C368.799 369.164 365.742 369.158 361.708 368.25C356.823 367.154 353.709 365.452 353.23 366.208C352.852 366.807 354.44 368.446 356.489 370.551C358.959 373.098 360.201 374.365 361.947 375.083C363.964 375.909 365.263 375.556 369.707 375.184C371.465 375.039 375.884 374.667 379.42 374.768C384.986 374.925 391.617 376.325 391.654 377.838C391.68 378.84 388.812 379.722 387.261 380.201C382.931 381.538 379.748 380.964 379.609 381.657C379.508 382.162 381.134 382.653 383.013 383.7C387.728 386.315 390.186 390.242 392.266 393.571C393.148 394.989 395.203 398.266 394.434 399.004C393.961 399.458 392.613 398.758 392.026 398.456C383.095 393.879 382.565 395.417 376.161 391.106C372.978 388.963 369.959 386.933 366.946 383.353C365.238 381.323 364.695 380.182 362.382 377.888C360.226 375.751 359.369 375.417 357.05 372.877C355.631 371.326 354.812 370.204 354.572 370.349C354.276 370.526 355.209 372.41 355.946 374.339C357.138 377.447 357.516 380.107 358.266 385.414C358.808 389.221 359.13 391.49 359.161 394.667C359.205 398.582 358.84 405.484 357.434 405.648C357.024 405.698 356.621 405.156 355.215 402.382C352.971 397.958 351.849 395.745 351.288 393.879C350.28 390.513 350.337 387.538 350.444 381.582C350.595 373.684 351.452 373.463 350.708 370.078C349.807 365.956 348.603 366.599 346.485 360.188C345.597 357.51 343.983 355.127 342.93 352.505C342.855 352.316 342.602 351.685 342.407 351.717C342.123 351.761 342.117 353.141 342.123 353.683C342.136 359.76 342.142 362.792 342.432 366.353C342.527 367.481 343.132 376.035 338.745 383.819C338.392 384.45 336.35 387.986 332.391 390.703C331.748 391.144 328.716 393.224 327.865 392.449C327.386 392.014 327.784 390.854 327.985 390.293C329.29 386.612 329.939 384.778 332.921 380.138C333.992 378.474 335.045 375.531 337.144 369.65C339.451 363.189 340.604 359.962 340.869 356.564C341.071 353.967 341.443 349.265 339.463 344.197C338.682 342.199 337.913 341.102 336.974 338.026C335.814 334.232 335.36 331.572 335.36 331.572C335.039 329.706 334.931 328.338 334.66 328.338C334.339 328.338 334.062 330.286 333.942 331.137C333.583 333.652 333.639 335.423 333.639 335.423C333.778 339.615 334.169 345.559 334.263 347.153C334.427 349.895 334.433 352.801 334.446 358.625C334.452 362.647 334.396 363.945 334.093 365.666C333.463 369.246 331.874 373.98 330.601 373.867C329.347 373.753 328.83 368.918 328.679 367.475C328.452 365.319 328.351 362.25 329.435 356.028C330.393 350.526 330.923 350.311 331.622 345.527C332.246 341.241 332.587 336.198 332.076 336.11C331.887 336.078 331.616 336.734 330.614 339.81C328.628 345.937 328.332 347.576 327.456 349.839C326.006 353.576 324.09 356.117 323.113 357.383C321.871 359.003 318.701 363.145 313.242 366.057C309.983 367.796 304.405 369.895 302.955 372.946C302.879 373.104 302.533 373.867 302.438 373.829C302.236 373.759 303.264 370.318 303.648 369.12C304.506 366.429 306.636 359.747 312.057 354.251C314.937 351.332 315.498 352.032 319.999 347.702C322.665 345.136 322.35 345.004 325.25 342.281C328.073 339.634 329.258 338.928 330.362 336.829C331.629 334.421 331.988 331.685 331.641 331.553C331.446 331.477 331.03 332.24 330.299 333.387C330.299 333.387 330.002 333.86 326.384 338.713C322.205 344.323 314.414 349.277 312.082 350.759C309.586 352.347 307.09 353.91 306.542 353.337C305.899 352.662 308.319 349.397 309.706 347.531C315.259 340.05 318.934 335.101 325.187 332.586C327.115 331.811 329.265 331.282 330.866 329.17C332.284 327.304 332.984 324.6 333.211 323.73C333.601 322.23 333.721 321.083 333.759 320.743C334.566 313.677 339.218 304.077 338.178 303.541C337.844 303.371 337.106 304.215 336.734 304.625C331.395 310.481 322.728 312.328 318.593 313.21C313.853 314.219 308.388 314.446 308.212 313.67C308.143 313.374 308.849 312.983 309.246 312.769C320.957 306.384 327.456 304.203 327.456 304.203C333.192 302.28 333.564 302.343 335.392 301.366C338.304 299.809 340.567 297.931 343.617 295.404C346.296 293.178 347.639 292.069 348.175 291.262C351.282 286.579 349.725 281.07 351.559 280.635C352.133 280.503 352.738 280.931 353.022 281.265L353.053 281.284Z" fill="#3E5910"/>
<path d="M405.377 297.982C405.03 298.681 407.4 299.81 408.201 302.476C408.377 303.056 408.409 303.497 408.453 303.976C408.661 306.46 407.804 308.445 407.564 309.025C407.092 310.16 404.274 316.917 404.614 322.375C404.911 327.26 407.772 331.717 409.109 331.49C409.619 331.402 409.84 330.651 410.647 327.638C411.97 322.703 412.632 320.232 412.701 319.804C413.931 311.811 409.701 304.871 410.521 304.524C410.779 304.417 411.195 305.098 412.96 307.348C415.853 311.036 416.193 311.074 417.328 312.744C418.078 313.853 419.679 316.211 420.41 319.161C421.564 323.825 420.076 328.029 419.125 330.714C418.185 333.368 416.944 335.568 415.784 340.213C415.311 342.104 415.116 343.346 415.525 343.554C416.269 343.932 418.614 340.693 418.866 340.346C421.476 336.74 421.974 333.961 422.591 334.055C423.272 334.156 422.642 337.541 423.619 341.247C425.125 346.958 430.035 351.919 432.09 351.131C434.246 350.311 433.357 343.176 433.118 341.247C432.279 334.515 429.563 329.504 427.47 325.71C424.785 320.856 421.211 315.946 420.278 314.666C417.782 311.237 415.74 308.792 416.042 308.502C416.282 308.275 417.769 309.548 420.921 312.095C429.266 318.852 431.107 319.873 432.607 320.566C434.914 321.638 437.625 322.854 441.079 322.363C443.562 322.01 446.909 320.711 446.859 319.413C446.796 317.742 441.18 317.774 432.223 314.408C426.537 312.271 422.339 309.832 419.641 308.243C413.798 304.814 410.691 303.339 409.625 301.436C409.001 300.326 407.798 297.654 406.178 297.66C406.096 297.66 405.535 297.66 405.383 297.969L405.377 297.982Z" fill="#3E5910"/>
<path d="M458.538 243.099C456.766 244.379 453.508 242.45 449.871 241.706C447.904 241.303 445.887 241.511 441.847 241.921C435.991 242.519 430.267 243.099 424.519 246.415C421.821 247.972 419.791 249.806 415.745 253.474C411.534 257.294 410.979 258.473 408.042 260.32C403.699 263.049 398.177 264.688 397.345 263.421C397.213 263.213 397.03 262.677 398.417 260.641C402.546 254.546 408.811 252.447 408.471 251.445C408.313 250.972 406.857 251.199 405.155 251.23C398.77 251.35 392.126 248.69 392.107 246.736C392.101 245.91 393.28 245.305 394.673 244.599C399.419 242.179 404.38 243.049 405.691 243.314C407.532 243.692 409.845 244.492 414.465 246.093C415.625 246.497 416.457 246.799 417.673 246.843C420.258 246.932 421.878 245.747 423.983 244.707C429.341 242.053 433.879 242.292 433.822 241.82C433.778 241.441 430.923 241.58 428.868 241.549C428.023 241.536 416.388 241.227 406.781 234.357C400.875 230.133 396.45 223.931 397.339 222.803C397.56 222.525 398.039 222.633 399.955 222.948C405.42 223.849 405.565 223.622 406.926 223.963C410.545 224.87 412.908 227.284 417.39 231.879C420.661 235.233 421.298 236.683 424.147 238.202C424.601 238.441 426.221 239.279 429.889 240.017C437.119 241.473 444.639 241.019 444.708 240.162C444.74 239.828 443.618 239.532 442.237 239.071C442.237 239.071 435.682 236.878 428.654 231.659C423.17 227.587 419.237 222.223 419.861 221.485C420.188 221.101 421.487 222.286 425.307 223.521C428.742 224.631 429.725 224.334 431.919 225.482C432.99 226.043 434.005 226.95 435.984 228.753C439.06 231.545 439.892 232.705 443.176 235.724C446.007 238.328 446.813 238.769 447.242 238.996C448.156 239.462 450.324 240.578 453.199 240.666C453.501 240.679 455.657 240.729 457.995 241.246C458.443 241.347 459.206 241.53 459.307 241.971C459.407 242.45 458.676 242.979 458.531 243.087L458.538 243.099Z" fill="#3E5910"/>
<path d="M433.421 377.956C433.661 377.603 432.715 376.86 432.028 375.637C431.833 375.29 430.244 372.365 431.562 369.939C432.293 368.59 433.919 367.398 435.407 367.55C438.836 367.909 440.222 374.641 439.447 375.965C439.39 376.065 439.119 376.475 439.245 376.626C439.365 376.771 439.838 376.664 440.109 376.425C440.651 375.952 440.411 374.937 440.374 374.439C440.222 372.454 442.498 369.428 445.479 369.069C448 368.766 450.799 370.392 451.511 372.914C452.488 376.399 448.795 379.16 448.461 379.406C446.948 380.541 445.517 380.818 445.517 380.818C445.051 380.913 444.622 380.938 444.622 380.994C444.622 381.171 448.278 380.641 451.663 382.394C452.709 382.936 453.61 383.402 453.926 384.342C454.726 386.699 451.417 390.727 448.826 390.5C446.248 390.279 443.84 385.791 442.844 386.037C442.756 386.056 442.491 386.125 442.422 386.321C442.328 386.579 442.636 386.913 442.706 386.995C443.317 387.726 443.26 390.645 441.395 392.378C439.712 393.941 437.499 393.651 436.97 393.582C435.079 393.336 432.639 392.082 432.507 390.5C432.4 389.208 433.894 388.268 434.032 385.968C434.045 385.791 434.077 385.174 433.894 385.117C433.654 385.047 433.383 386.018 432.797 386.535C431.347 387.808 427.13 387.027 426.103 384.48C425.599 383.22 426.046 381.94 426.21 381.474C426.796 379.803 428.095 378.971 428.511 378.713C428.807 378.53 429.765 377.95 431.095 377.862C432.444 377.774 433.219 378.253 433.421 377.944V377.956Z" fill="#3E5910"/>
<path d="M381.366 286.629C381.77 286.61 381.719 288.198 382.772 288.923C383.566 289.465 384.751 289.364 385.583 288.873C386.302 288.444 387.121 287.517 386.938 286.685C386.699 285.601 384.909 285.267 385.01 284.864C385.073 284.605 385.804 284.763 386.623 284.448C387.934 283.943 388.533 282.601 388.653 282.311C389.245 280.893 389.113 278.844 387.77 277.728C387.115 277.186 385.936 276.657 384.959 277.054C383.812 277.514 383.749 278.926 383.03 278.926C382.394 278.926 382.312 277.804 381.209 276.896C380.288 276.14 378.637 275.522 377.616 276.165C376.443 276.909 376.362 279.153 377.149 280.54C378.051 282.134 380.043 282.519 379.91 282.985C379.816 283.319 378.832 282.998 377.773 283.559C376.727 284.107 375.738 285.45 376.053 286.528C376.28 287.316 377.143 287.643 378.864 288.299C379.69 288.614 379.954 288.595 380.169 288.507C381.026 288.154 380.969 286.647 381.366 286.635V286.629Z" fill="#3E5910"/>
<path d="M610.172 142.915C608.69 144.201 609.806 146.249 608.583 148.052C608.388 148.336 607.858 149.029 605.217 149.937C601.624 151.172 600.584 150.586 597.414 151.374C596.147 151.689 594.041 152.735 589.831 154.828C587.366 156.051 586.389 156.625 585.419 157.74C584.202 159.133 582.891 161.484 583.666 162.518C584.101 163.104 585.066 163.079 585.854 163.029C591.463 162.638 596.248 159.921 596.853 159.568C600.212 157.62 602.715 155.515 603.049 155.238C605.589 153.082 607.234 151.147 607.575 151.405C607.82 151.588 607.196 152.71 606.453 154.261C604.064 159.266 604.555 160.161 603.017 162.802C601.12 166.048 598.529 167.844 597.685 168.418C593.802 171.046 589.698 171.519 588.482 171.645C583.37 172.175 581.933 172.402 579.052 172.855C578.51 172.944 577.294 173.145 577.174 173.725C577.048 174.356 578.302 175.099 578.668 175.314C579.229 175.642 581.139 176.669 584.744 176.36C586.887 176.177 588.116 175.648 588.242 175.938C588.375 176.247 587.032 177.041 585.393 178.232C585.198 178.377 582.135 180.615 580.641 182.279C577.287 186.004 577.035 192.099 578.296 192.704C578.693 192.894 579.046 192.446 580.824 191.482C582.973 190.309 584.46 189.874 585.248 189.547C590.178 187.492 596.323 177.885 597.13 176.612C600.654 171.04 602.923 165.897 602.923 165.897C604.423 162.499 605.57 159.215 606.144 159.36C606.44 159.436 606.471 160.407 606.364 162.19C606.024 167.838 604.952 170.315 604.555 173.776C604.322 175.818 603.944 179.146 605.356 182.909C605.356 182.909 607.297 188.078 612.699 190.807C613.033 190.977 613.487 191.16 613.752 190.971C614.344 190.542 613.525 188.5 613.235 187.737C612.787 186.565 612.107 183.558 610.745 177.539C610.638 177.079 610.285 174.034 609.579 167.977C608.823 161.484 608.665 160.009 608.728 157.564C608.823 154.04 608.867 152.275 609.529 150.731C609.9 149.867 611.142 147.296 611.999 144.213C612.144 143.697 612.397 142.745 611.987 142.43C611.602 142.133 610.726 142.461 610.165 142.946L610.172 142.915Z" fill="#3E5910"/>
<path d="M508.904 120.393C508.034 120.456 507.448 117.26 506.137 113.876C503.949 108.24 500.703 104.559 498.497 102.057C497.003 100.361 494.255 97.2853 489.799 94.4236C484.895 91.2783 480.091 89.7781 476.41 89.0344C474.299 88.7885 470.958 88.133 467.435 86.1538C462.934 83.6198 458.742 79.2643 459.404 78.2117C459.587 77.9217 460.085 77.9847 461.144 78.073C467.706 78.6151 467.932 77.7263 470.353 78.5331C473.757 79.6677 475.301 82.0945 475.755 81.6974C476.076 81.4137 475.244 80.2098 473.914 77.4805C472.017 73.5977 471.292 71.1268 471.002 68.9332C470.756 67.0864 470.611 65.9266 471.305 65.3467C472.528 64.3193 475.547 65.7879 477.35 67.2377C478.219 67.9373 479.953 69.551 481.371 73.4338C483.747 79.9324 481.459 82.4285 484.1 86.3429C484.775 87.3451 484.611 86.7148 489.042 90.6795C493.725 94.8649 495.995 97.4366 496.455 97.0836C496.738 96.863 496.14 95.6654 495.623 94.5875C494.015 91.2657 492.685 87.8178 491.217 84.433C488.67 78.5709 489.546 72.7845 490.328 67.6096C490.517 66.3552 491.885 57.726 494.154 57.6441C495.245 57.6063 496.259 59.5414 497.552 62.0186C498.276 63.4116 499.146 65.0693 499.512 67.1053C500.174 70.799 498.503 71.8958 496.997 79.3652C496.203 83.3047 496.114 85.7314 496.102 86.3555C496.064 87.6855 496.007 90.2194 496.549 93.0243C498.049 100.721 503.332 106.539 503.93 106.204C504.145 106.085 503.779 105.202 503.388 103.891C501.699 98.1363 502.285 93.1693 502.752 89.2865C502.752 89.2865 503.458 83.3425 506.893 76.3144C507 76.1001 507.517 75.0474 507.832 75.1294C508.33 75.2554 507.605 78.0226 508.072 81.1238C508.488 83.8972 509.484 84.5023 510.139 86.595C511.803 91.915 507.359 94.4678 506.691 104.2C506.502 106.936 506.408 108.297 506.924 110.005C507.964 113.434 510.271 114.846 510.019 117.872C509.925 118.981 509.484 120.374 508.916 120.418L508.904 120.393Z" fill="#3E5910"/>
<path d="M322.236 95.4448C320.08 97.5501 318.75 99.4789 318.624 99.6617C315.617 103.992 310.127 102.441 305.683 107.49C305.305 107.919 304.126 109.255 304.479 109.797C304.757 110.226 305.872 109.999 307.29 109.596C312.289 108.177 314.93 106.343 315.315 106.784C315.686 107.213 313.455 109.098 311.904 111.802C308.457 117.796 309.383 125.965 311.4 126.551C312.396 126.841 313.619 125.266 315.812 122.435C319.487 117.702 321.227 113.34 321.63 112.3C322.431 110.239 323.068 106.141 324.341 97.9535C324.517 96.8126 324.851 94.5498 324.139 94.2409C323.767 94.0833 323.213 94.493 322.236 95.4448Z" fill="#3E5910"/>
<path d="M566.602 219.959C566.835 219.102 564.623 218.496 564.333 216.637C564.125 215.351 564.887 213.725 566.255 213.139C567.97 212.407 569.955 213.586 570.623 214.885C571.336 216.259 570.68 217.961 570.97 218.03C571.197 218.087 571.38 217.015 572.281 216.271C573.05 215.635 574.248 215.313 575.111 215.603C577.355 216.353 578.023 221.44 576.29 222.921C575.118 223.917 573.132 223.022 572.59 224.062C572.3 224.617 572.804 224.989 572.823 226.464C572.836 227.296 572.848 228.38 572.193 229.098C571.266 230.113 569.186 230.208 568.222 229.294C567.062 228.197 567.837 225.941 567.119 225.714C566.64 225.562 566.306 226.571 565.19 226.974C563.936 227.428 561.982 227 561.175 225.6C560.507 224.44 560.765 222.852 561.566 221.9C563.104 220.079 566.299 220.986 566.583 219.952L566.602 219.959Z" fill="#3E5910"/>
<path d="M606.547 254.766C607.076 255.094 607.713 254.155 609.421 253.947C609.887 253.89 611.337 253.707 612.447 254.514C613.909 255.573 614.438 258.069 613.524 259.336C612.27 261.076 608.564 260.092 608.343 261.082C608.255 261.485 608.854 261.712 609.471 262.569C610.367 263.818 611.009 265.973 610.19 267.341C609.112 269.131 605.62 269.39 603.988 268.009C602.034 266.358 602.847 262.456 602.04 262.368C601.75 262.336 601.611 262.841 601.12 263.446C599.771 265.11 596.909 266.131 594.709 265.192C594.4 265.059 593.209 264.505 592.554 263.193C591.829 261.737 591.974 259.796 592.963 258.63C594.438 256.884 597.155 257.609 597.476 256.424C597.665 255.724 596.745 255.396 596.247 253.757C596.096 253.266 595.629 251.728 596.247 250.53C597.325 248.431 601.044 248.639 601.788 248.683C603.011 248.753 605.305 248.885 606.2 250.373C607.202 252.049 605.746 254.281 606.559 254.785L606.547 254.766Z" fill="#3E5910"/>
<path d="M478.276 23.3921C479.083 23.0832 478.51 21.4128 479.657 20.398C480.508 19.6479 481.876 19.629 482.884 20.0135C483.741 20.3413 484.781 21.1481 484.958 22.2386C485.311 24.4384 481.907 26.2159 482.424 27.2307C482.739 27.8422 483.987 27.2118 485.494 27.9241C487.044 28.6553 488.696 30.7164 488.103 32.6831C487.662 34.158 486.067 35.2674 484.649 35.217C482.802 35.1476 481.649 33.1117 480.962 33.5277C480.565 33.7672 480.943 34.4543 480.577 35.3683C479.997 36.8117 477.892 37.9337 476.121 37.442C475.011 37.1332 474.4 36.2948 473.896 35.6015C473.536 35.1098 472.137 33.1873 472.742 31.4539C473.246 30.0105 474.74 29.8466 474.665 28.9957C474.57 27.9619 472.339 28.088 471.671 26.5374C471.173 25.3776 471.778 23.8333 472.667 22.9256C472.919 22.6735 473.7 21.873 474.816 21.8478C476.568 21.8099 477.394 23.7198 478.27 23.3858L478.276 23.3921Z" fill="#3E5910"/>
<path d="M501.764 162.914C502.76 163.173 501.877 166.47 503.913 168.373C504.266 168.707 505.085 169.344 506.151 169.356C508.054 169.382 509.933 167.402 509.996 165.6C510.071 163.343 507.292 161.597 507.67 161.124C507.903 160.834 508.804 161.66 510.084 161.484C511.42 161.301 512.738 160.084 513.128 158.534C513.362 157.607 513.412 155.924 512.41 155.136C510.683 153.775 507.323 156.239 506.239 154.96C505.905 154.563 506.176 154.266 505.968 153.346C505.571 151.556 503.945 150.043 502.211 149.413C501.707 149.23 498.517 148.152 496.753 150.131C495.719 151.291 495.467 153.17 496.128 154.424C496.759 155.622 498.045 155.93 497.919 156.485C497.818 156.939 496.916 156.901 495.769 157.292C495.341 157.437 492.548 158.382 491.924 160.513C491.458 162.095 492.283 163.999 493.626 164.988C495.473 166.35 497.982 165.726 499.349 164.9C500.837 164.005 501.158 162.776 501.764 162.933V162.914Z" fill="#3E5910"/>
<path d="M465.226 122.592C465.068 123.046 466.303 123.468 466.524 124.452C466.745 125.441 465.919 126.872 464.948 127.049C463.354 127.339 461.841 124.193 460.864 124.635C460.448 124.817 460.668 125.41 460.12 126.028C459.414 126.828 457.832 127.225 456.59 126.494C455.166 125.649 454.876 123.708 455.474 122.687C456.3 121.275 458.878 121.527 458.91 120.827C458.922 120.518 458.418 120.418 457.794 119.901C456.748 119.037 455.695 117.272 456.218 115.722C456.521 114.833 457.302 114.14 458.166 113.862C459.616 113.402 461.223 114.133 461.784 115.161C462.238 115.986 461.954 116.9 462.339 117.02C462.572 117.09 462.843 116.812 463.36 116.276C464.167 115.438 464.198 115.104 464.658 114.789C465.188 114.43 465.957 114.322 466.518 114.511C468.037 115.016 468.579 117.827 468.005 119.806C467.841 120.38 467.47 121.647 466.43 122.126C465.85 122.391 465.326 122.302 465.226 122.592Z" fill="#3E5910"/>
<path d="M362.057 142.303C362.353 141.742 360.954 140.986 360.002 138.924C359.605 138.067 358.42 135.483 359.699 133.674C360.651 132.331 362.693 131.789 364.225 132.344C366.122 133.031 366.797 135.218 367.124 136.264C367.723 138.2 367.421 139.807 367.849 139.889C368.114 139.939 368.391 139.359 368.877 138.502C370.062 136.416 370.843 135.035 372.079 134.153C372.4 133.92 373.907 132.848 375.703 133.189C377.462 133.523 378.439 135.004 379.025 135.905C379.46 136.573 381.168 139.183 380.292 141.339C379.05 144.396 373.358 144.648 373.472 145.266C373.516 145.524 374.506 145.461 376.252 145.625C379.132 145.902 380.569 146.041 381.445 146.892C382.794 148.203 382.901 151.102 381.508 152.987C379.825 155.263 376.491 155.344 374.569 154.374C372.444 153.309 371.669 150.787 371.19 150.995C370.812 151.159 371.543 152.571 371.07 154.197C370.566 155.931 368.877 157.242 367.206 157.702C364.628 158.402 361.433 157.235 360.865 155.408C360.203 153.245 363.349 150.579 362.794 150.037C362.51 149.76 361.741 150.522 360.26 150.819C360.046 150.863 356.585 151.506 354.946 149.312C353.825 147.806 354.285 145.927 354.341 145.688C354.373 145.562 354.883 143.715 356.636 142.788C359.037 141.515 361.659 143.085 362.069 142.303H362.057Z" fill="#3E5910"/>
<path d="M377.2 83.3609C376.998 83.9345 378.492 84.4135 379.015 86.0019C379.412 87.2122 379.167 88.8258 378.183 89.8532C376.834 91.2588 374.363 91.2967 372.97 90.3071C370.6 88.6178 371.338 83.9155 370.626 83.884C370.254 83.8651 370.279 85.1699 369.34 86.1469C367.896 87.6534 364.379 88.1829 362.318 86.1469C361.114 84.9619 360.326 82.8251 361.108 81.3879C362.274 79.2448 366.314 79.8247 366.547 78.3687C366.642 77.7888 366.012 77.6375 365.337 76.1814C364.959 75.362 364.272 73.8807 364.732 72.784C365.596 70.7291 370.014 71.101 370.247 71.1199C370.865 71.1766 374.263 71.4981 375.006 73.4584C375.511 74.7884 374.534 76.1877 375.006 76.4777C375.448 76.7487 376.172 75.4629 377.572 75.1918C379.185 74.883 381.341 75.9923 382.179 77.9085C382.778 79.27 382.81 81.2682 381.726 82.2893C380.257 83.676 377.471 82.5603 377.194 83.3482L377.2 83.3609Z" fill="#3E5910"/>
<path d="M333.879 45.6925C334.264 44.5769 331.459 43.4486 331.547 41.6837C331.629 40.0826 334.031 39.0489 334.522 38.8346C337.485 37.555 341.708 38.1728 342.679 40.2591C343.479 41.9799 341.79 44.1041 342.553 44.6588C343.215 45.1379 344.425 43.5053 346.303 43.7511C347.665 43.9276 348.761 45.0118 349.278 46.0833C350.161 47.905 349.682 50.3759 348.371 51.1323C346.965 51.9454 345.024 50.5335 344.62 51.1323C344.255 51.6743 345.912 52.7081 346.171 54.6243C346.41 56.3703 345.459 58.6079 343.971 59.0239C342.244 59.5093 340.214 57.4418 339.313 55.9164C338.317 54.2272 338.493 52.8404 337.762 52.6829C336.823 52.4749 336.338 54.7062 334.529 55.2735C332.657 55.8597 329.637 54.5738 328.963 52.166C328.352 49.9788 329.934 47.76 331.421 46.8586C332.638 46.1212 333.659 46.3481 333.879 45.6925Z" fill="#3E5910"/>
<path d="M847.657 543.289C850.02 536.595 850.938 539.614 848.838 545.258C846.607 551.165 843.325 558.515 838.994 563.241C832.825 569.804 821.274 570.722 820.617 559.828C820.617 557.859 820.88 555.628 821.405 553.265C822.324 549.458 826.13 540.664 825.605 537.514C824.949 533.182 821.274 535.282 819.174 537.12C817.598 538.564 816.417 540.139 815.105 541.714C809.985 548.933 808.542 552.871 805.785 560.615C804.998 562.322 803.029 565.603 800.797 564.947L800.272 564.684C796.203 561.14 799.616 544.471 800.141 539.089C800.404 536.332 800.797 532.395 801.979 529.901C803.816 527.144 808.148 528.719 808.935 532.132C809.592 538.826 807.492 541.845 806.835 547.752C806.31 553.265 809.723 546.833 810.511 545.521C813.792 540.139 824.949 522.55 832.037 532.132C836.5 538.039 831.118 546.833 829.018 552.871C828.231 555.365 827.705 557.465 827.443 559.04C826.393 565.866 833.087 566.785 837.812 562.191C842.407 556.94 845.294 549.721 847.657 543.289Z" fill="white"/>
<path d="M799.743 542.37C802.369 537.251 802.631 541.189 800.4 545.258C796.987 551.296 794.231 554.709 787.274 554.84C786.486 554.971 785.042 554.709 784.255 555.102C783.599 555.628 781.761 560.222 781.105 561.272C778.611 565.866 776.379 568.491 771.523 570.46C751.965 576.76 747.502 539.22 766.272 530.82C767.847 530.163 767.454 529.113 769.423 527.538C770.21 526.882 770.866 526.488 771.785 526.094C779.53 524.125 782.68 530.163 784.255 536.726C785.436 541.977 785.567 544.996 784.78 550.377C784.649 552.346 784.517 553.265 786.618 553.265C792.262 553.527 796.331 549.196 799.743 542.37ZM779.661 555.89C780.317 553.002 776.773 552.477 774.542 551.033C770.998 548.54 770.341 546.308 767.979 542.764C767.191 541.714 766.535 541.32 766.01 541.189C760.497 540.533 757.609 569.804 770.341 564.684C773.623 563.241 779.004 559.434 779.661 555.89ZM783.467 547.621C783.992 542.633 781.367 533.838 777.298 530.688C775.854 529.507 774.804 529.769 774.148 531.476C773.623 532.92 773.623 535.02 772.704 536.201C770.21 539.351 766.929 538.301 770.079 543.289C772.048 546.177 777.036 550.377 780.317 551.296C782.286 551.952 783.336 549.065 783.467 547.621Z" fill="white"/>
<path d="M739.161 528.194C736.667 526.225 734.567 522.813 735.748 519.662C737.061 516.775 740.736 518.481 742.311 520.712C743.099 522.025 743.493 523.469 743.755 525.044C744.28 528.982 743.23 531.082 739.161 528.194ZM757.275 540.401C757.669 540.008 758.325 540.27 758.194 541.189C758.062 542.501 757.275 544.339 756.094 546.308C755.043 547.883 752.812 551.296 750.318 554.184C746.38 558.909 740.999 562.715 735.88 556.677C731.942 552.083 731.548 543.289 732.467 538.17C734.304 528.588 741.655 531.476 742.049 538.695C742.18 541.451 740.474 547.883 741.392 552.346C742.443 558.121 745.855 556.809 748.874 553.265C751.368 550.508 753.731 546.571 754.387 545.389C755.831 542.895 756.619 540.926 757.275 540.401Z" fill="white"/>
<path d="M735.761 510.999C735.893 510.868 739.043 508.505 738.78 510.08C738.386 511.656 734.711 513.756 733.136 514.281C729.461 515.593 725.654 515.2 721.848 514.543C721.585 515.593 721.192 516.643 721.06 517.562C718.435 528.588 716.204 543.158 716.335 554.446C716.335 556.415 716.729 563.503 720.141 562.584C725.129 561.271 731.692 540.27 733.53 539.22C734.974 538.432 733.924 541.583 733.792 541.976C732.217 546.439 727.492 556.546 724.735 560.353C723.292 562.584 721.454 564.815 719.091 565.997C714.366 567.966 711.347 562.978 710.428 559.171C707.672 544.602 710.56 527.932 713.71 512.968C710.822 512.443 708.066 512.181 705.834 513.099C703.34 514.149 702.553 517.693 699.928 515.856C697.302 513.887 701.109 510.737 703.34 510.08C706.097 509.293 710.166 509.818 714.235 510.737L715.416 505.224C716.204 501.942 717.648 496.429 721.717 500.761C724.604 503.911 723.685 508.374 722.504 512.574L724.21 512.968C728.673 513.493 731.824 513.493 735.761 510.999Z" fill="white"/>
<path d="M709.638 541.977C711.082 538.958 712.001 540.401 711.344 542.37C709.375 549.327 702.025 565.209 693.231 565.734C688.768 565.997 685.486 562.19 685.224 553.79V552.871C685.224 551.427 685.224 549.983 685.355 548.539C685.486 547.489 685.486 546.571 685.486 545.521C684.042 547.096 683.255 549.196 682.205 550.902C678.792 556.415 672.885 562.453 666.06 562.453C650.703 562.453 661.466 526.225 675.642 525.963C678.136 525.963 680.761 527.013 683.386 529.638C684.174 530.557 686.405 533.97 687.586 533.707C688.505 533.445 692.049 528.851 694.281 532.001C696.25 535.414 693.624 545.652 692.968 553.265C692.837 556.153 693.099 559.04 694.281 560.615C699.137 566.916 708.457 544.602 709.638 541.977ZM685.618 542.37C687.193 539.089 686.536 537.514 684.305 535.151C682.73 533.445 681.023 532.526 679.055 532.526C668.685 532.001 662.385 557.99 668.554 557.465C675.642 556.94 682.599 548.146 685.618 542.37Z" fill="white"/>
<path d="M666.859 478.053C673.028 481.466 670.272 490.523 668.565 495.904C665.021 506.799 656.883 519.925 647.958 527.144C643.232 530.951 642.576 547.096 645.595 555.89C646.776 559.303 650.714 562.584 653.208 558.384C655.964 553.79 658.983 545.652 659.771 543.683C662.265 537.645 662.921 540.008 661.083 544.995C660.165 547.489 657.539 554.577 654.52 559.303C650.189 565.997 642.445 562.978 640.082 556.284C639.688 555.234 639.426 554.184 638.901 553.265C638.244 552.083 637.588 551.69 636.144 552.74C634.963 553.79 634.044 554.84 633.125 555.89C629.844 559.959 626.562 561.665 623.543 561.665C607.136 561.797 613.174 529.507 633.256 530.951C637.719 531.213 638.244 531.476 639.032 526.225C640.738 513.099 645.726 497.873 652.027 486.191C654.783 481.072 659.902 474.509 666.334 477.791L666.859 478.053ZM664.759 497.348C665.809 494.461 669.615 483.566 666.465 481.335C663.446 479.76 659.902 487.898 658.983 489.867C657.014 493.936 654.914 498.792 653.077 503.124C651.633 506.405 646.382 518.875 646.12 521.631C645.857 522.813 645.989 523.469 646.251 524.519C650.714 522.681 657.802 511.393 660.165 507.193C661.871 504.043 663.446 500.761 664.759 497.348ZM636.8 545.783C636.932 544.077 637.982 536.07 636.669 535.151C635.488 534.232 631.681 536.201 628.4 538.432C615.93 546.964 619.999 561.534 629.056 555.365C632.338 553.133 636.407 549.196 636.8 545.783ZM680.247 498.661C680.641 498.661 680.772 498.792 680.641 498.792C680.641 498.923 680.378 498.923 680.116 498.923C679.853 498.792 679.985 498.792 680.247 498.661ZM682.085 498.923V499.055H681.954C681.691 499.055 681.822 499.055 682.085 498.923Z" fill="white"/>
<path d="M615.518 543.289C617.881 536.595 618.8 539.614 616.7 545.258C614.468 551.165 611.187 558.515 606.855 563.241C600.686 569.804 589.135 570.722 588.479 559.828C588.479 557.859 588.741 555.628 589.266 553.265C590.185 549.458 593.992 540.664 593.467 537.514C592.81 533.182 589.135 535.282 587.035 537.12C585.46 538.564 584.278 540.139 582.966 541.714C577.847 548.933 576.403 552.871 573.647 560.615C572.859 562.322 570.89 565.603 568.659 564.947L568.134 564.684C564.065 561.14 567.477 544.471 568.002 539.089C568.265 536.332 568.659 532.395 569.84 529.901C571.678 527.144 576.009 528.719 576.797 532.132C577.453 538.826 575.353 541.845 574.697 547.752C574.172 553.265 577.584 546.833 578.372 545.521C581.653 540.139 592.81 522.55 599.898 532.132C604.361 538.039 598.98 546.833 596.879 552.871C596.092 555.365 595.567 557.465 595.304 559.04C594.254 565.866 600.948 566.785 605.674 562.191C610.268 556.94 613.156 549.721 615.518 543.289Z" fill="white"/>
<path d="M567.807 541.714C568.988 538.17 570.695 539.351 569.513 542.764C566.888 550.639 557.569 568.491 547.724 563.897C544.968 562.715 543.393 559.565 543.524 554.971C543.655 550.377 544.574 545.652 543.787 544.601C543.393 544.076 542.08 545.52 540.768 547.358C536.699 552.608 528.823 559.565 522.785 558.515C511.497 556.546 515.172 537.513 519.635 529.375C525.935 518.087 531.711 525.175 528.429 532.919C526.592 537.645 519.897 557.334 527.379 554.708C529.086 554.183 530.661 553.133 532.105 552.083C537.88 547.752 542.605 541.714 545.624 535.02C548.774 528.063 555.337 530.294 554.419 536.332C554.156 538.432 551.268 551.821 551.4 558.252C551.531 563.634 555.469 562.584 559.406 557.071C562.95 552.215 566.626 545.389 567.807 541.714Z" fill="white"/>
<path d="M515.562 542.37C518.187 537.251 518.449 541.189 516.218 545.258C512.805 551.296 510.049 554.709 503.092 554.84C502.305 554.971 500.861 554.709 500.073 555.102C499.417 555.628 497.579 560.222 496.923 561.272C494.429 565.866 492.198 568.491 487.341 570.46C467.783 576.76 463.321 539.22 482.091 530.82C483.666 530.163 483.272 529.113 485.241 527.538C486.028 526.882 486.685 526.488 487.604 526.094C495.348 524.125 498.498 530.163 500.073 536.726C501.255 541.977 501.386 544.996 500.598 550.377C500.467 552.346 500.336 553.265 502.436 553.265C508.08 553.527 512.149 549.196 515.562 542.37ZM495.479 555.89C496.135 553.002 492.591 552.477 490.36 551.033C486.816 548.54 486.16 546.308 483.797 542.764C483.01 541.714 482.353 541.32 481.828 541.189C476.315 540.533 473.428 569.804 486.16 564.684C489.441 563.241 494.823 559.434 495.479 555.89ZM499.286 547.621C499.811 542.633 497.185 533.838 493.116 530.688C491.673 529.507 490.623 529.769 489.966 531.476C489.441 532.92 489.441 535.02 488.522 536.201C486.028 539.351 482.747 538.301 485.897 543.289C487.866 546.177 492.854 550.377 496.135 551.296C498.104 551.952 499.154 549.065 499.286 547.621Z" fill="white"/>
<path d="M486.101 484.616C491.877 479.76 493.452 486.585 489.908 490.26C478.226 502.205 457.487 480.81 458.274 492.098C459.062 501.286 457.618 509.03 456.043 518.218C455.912 522.156 457.618 520.056 460.768 519.4C465.493 518.743 470.481 519.662 471.138 525.306C471.006 529.375 466.544 533.051 466.412 526.094C466.412 520.187 455.649 521.762 455.124 527.144C454.468 533.707 452.105 541.583 448.43 548.408C445.017 554.84 439.767 561.928 433.072 564.159C425.853 566.522 418.371 562.978 415.877 555.102C413.646 548.408 414.827 540.27 420.472 536.595C423.491 534.495 425.197 536.989 422.178 539.089C419.421 541.058 418.24 544.077 417.978 548.539C417.584 554.708 420.209 562.715 427.822 562.322C447.773 560.353 450.399 505.618 449.742 490.523C449.611 486.585 447.642 486.585 444.754 488.16C440.817 490.26 437.01 493.804 433.072 496.298C431.104 497.742 427.428 499.58 425.197 497.479C420.997 493.542 437.273 484.354 439.898 483.041C455.649 477.134 458.012 484.354 471.794 487.635C477.832 489.079 481.901 488.029 486.101 484.616Z" fill="white"/>
<path d="M378.646 544.47C384.684 537.907 388.097 538.563 379.827 546.439C372.346 553.396 361.32 564.29 351.476 561.534C332.968 556.283 342.681 526.881 353.838 517.824C357.776 514.674 364.208 512.705 367.358 517.956C369.983 522.025 367.227 527.144 364.47 530.425C361.32 533.838 357.251 536.332 353.051 538.432C346.881 541.582 345.963 552.083 348.982 556.152C356.07 565.997 373.396 549.983 378.646 544.47ZM362.37 520.975C359.876 518.743 351.213 532.132 351.476 534.101C352.001 536.726 359.614 529.113 360.532 527.931C361.582 526.356 363.551 522.944 362.37 520.975Z" fill="white"/>
<path d="M343.362 539.876C344.412 541.058 340.737 547.752 339.818 549.064C334.699 556.152 330.236 553.396 324.723 557.596C319.867 561.665 320.129 568.097 311.466 568.622C305.953 569.016 302.803 561.665 308.578 557.465C309.497 556.809 310.679 556.152 312.122 555.627C312.779 555.365 313.566 555.234 314.354 555.102C319.867 553.79 320.786 535.545 316.06 534.495C306.61 532.263 298.997 555.234 297.946 562.19C297.29 567.047 296.896 583.323 297.159 588.18C297.553 597.499 289.415 595.661 289.021 586.342C288.758 579.254 290.071 559.303 290.333 554.971L291.252 539.089L291.384 538.564C291.515 536.07 292.171 525.306 296.765 528.194C301.097 534.232 298.865 538.301 298.603 544.733C298.34 550.508 301.097 546.308 302.278 543.814C304.772 537.907 312.516 526.225 320.261 530.294L320.786 530.688C330.368 538.432 324.067 548.277 326.43 552.083C328.399 554.577 333.386 552.346 335.487 551.033C339.031 548.671 340.212 544.47 341.918 541.058C342.05 540.664 342.706 539.089 343.362 539.876ZM310.81 562.322C311.729 561.665 316.979 556.415 313.041 557.465C308.053 559.434 306.216 565.34 310.81 562.322Z" fill="white"/>
<path d="M291.249 541.977C292.693 538.958 293.612 540.401 292.956 542.37C290.987 549.327 283.636 565.209 274.842 565.734C270.379 565.997 267.098 562.19 266.835 553.79V552.871C266.835 551.427 266.835 549.983 266.966 548.539C267.098 547.489 267.098 546.571 267.098 545.521C265.654 547.096 264.866 549.196 263.816 550.902C260.403 556.415 254.497 562.453 247.671 562.453C232.314 562.453 243.077 526.225 257.253 525.963C259.747 525.963 262.372 527.013 264.997 529.638C265.785 530.557 268.016 533.97 269.198 533.707C270.117 533.445 273.661 528.851 275.892 532.001C277.861 535.414 275.236 545.652 274.579 553.265C274.448 556.153 274.711 559.04 275.892 560.615C280.749 566.916 290.068 544.602 291.249 541.977ZM267.229 542.37C268.804 539.089 268.148 537.514 265.916 535.151C264.341 533.445 262.635 532.526 260.666 532.526C250.296 532.001 243.996 557.99 250.165 557.465C257.253 556.94 264.21 548.146 267.229 542.37Z" fill="white"/>
<path d="M239.559 544.47C245.597 537.907 249.01 538.564 240.609 546.439C231.815 554.84 217.507 569.016 206.482 557.99C194.537 546.045 210.288 510.212 225.645 515.068C229.583 516.381 229.977 520.581 229.321 523.994C228.927 527.275 223.939 528.325 224.858 522.419C225.252 519.137 224.464 517.3 221.576 520.319C218.164 523.863 214.751 528.982 212.782 533.576C210.944 538.301 206.744 551.952 209.763 556.152C216.851 565.997 234.308 549.983 239.559 544.47Z" fill="white"/>
<path d="M202.899 541.583C204.605 538.433 205.393 539.483 203.949 542.633C200.668 550.377 195.024 557.334 187.41 561.14C187.279 564.291 186.36 567.703 185.048 570.46C182.423 575.841 176.516 583.192 169.822 581.748L169.297 581.486C165.359 579.648 165.621 576.366 167.328 572.822C170.216 566.391 177.041 563.766 183.21 561.009L183.341 560.878C183.473 559.04 183.079 557.203 182.029 555.496C179.797 551.821 174.81 550.902 171.003 548.671C164.046 543.945 165.359 536.332 167.853 529.507C170.609 521.894 176.253 513.362 185.31 513.756C193.973 514.281 194.892 524.257 190.036 530.294C188.986 531.476 187.542 533.051 185.835 533.051C183.079 533.182 187.279 527.932 187.936 527.013C188.986 525.307 191.086 521.369 188.198 520.188C182.816 518.875 174.285 531.213 172.447 535.545C170.609 539.876 170.609 544.864 175.335 547.227C181.504 550.115 186.623 550.377 187.41 558.646V559.04C194.105 555.759 199.486 548.014 202.899 541.583ZM176.516 574.66C179.535 571.379 182.029 567.441 183.079 563.109C178.354 565.472 169.69 568.885 169.559 575.054C169.428 576.104 169.69 576.629 170.347 577.417C172.578 578.467 175.072 576.104 176.516 574.66Z" fill="white"/>
<path d="M163.555 544.47C169.593 537.907 173.006 538.563 164.737 546.439C157.255 553.396 146.229 564.29 136.385 561.534C117.877 556.283 127.59 526.881 138.747 517.824C142.685 514.674 149.117 512.705 152.267 517.956C154.892 522.025 152.136 527.144 149.379 530.425C146.229 533.838 142.16 536.332 137.96 538.432C131.791 541.582 130.872 552.083 133.891 556.152C140.979 565.997 158.305 549.983 163.555 544.47ZM147.279 520.975C144.785 518.743 136.122 532.132 136.385 534.101C136.91 536.726 144.523 529.113 145.442 527.931C146.492 526.356 148.461 522.944 147.279 520.975Z" fill="white"/>
<path d="M128.005 540.533C130.105 538.958 130.368 540.533 128.267 542.764C123.936 547.096 117.11 550.771 110.81 550.377C109.76 550.246 108.841 550.115 107.791 549.852L110.154 553.134C110.416 553.921 114.354 558.121 115.273 559.959C119.211 566.784 117.767 581.092 112.516 586.998L112.123 587.392C110.679 588.705 109.366 589.099 108.185 588.967C85.477 585.555 100.703 486.979 124.33 485.798C125.511 485.666 126.692 486.06 127.874 486.979C133.912 492.229 126.955 510.212 123.673 515.987C120.129 522.156 114.748 529.113 109.629 534.101C106.216 537.907 104.116 545.783 108.579 547.358C113.435 549.196 117.373 548.408 122.361 545.258C124.855 543.683 126.036 542.108 128.005 540.533ZM108.447 528.588C108.185 533.97 111.073 529.244 112.385 527.538C119.211 519.006 126.824 506.799 126.692 495.511C126.561 487.373 121.967 492.229 119.604 496.036C114.354 505.224 109.104 517.956 108.447 528.588ZM114.091 571.904C114.354 565.209 111.991 559.696 107.66 554.577C105.297 551.69 105.035 553.659 104.772 556.415C104.116 561.665 103.722 576.366 106.347 581.092C107.003 582.142 107.529 582.667 108.71 583.192C112.648 583.454 113.96 574.791 114.091 571.904Z" fill="white"/>
<path d="M98.2063 541.977C99.6502 538.958 100.569 540.401 99.9127 542.37C97.9438 549.327 90.5933 565.209 81.7989 565.734C77.3361 565.997 74.0546 562.19 73.7921 553.79V552.871C73.7921 551.427 73.7921 549.983 73.9234 548.539C74.0546 547.489 74.0546 546.571 74.0546 545.521C72.6108 547.096 71.8232 549.196 70.7732 550.902C67.3604 556.415 61.4538 562.453 54.6283 562.453C39.271 562.453 50.0342 526.225 64.2102 525.963C66.7041 525.963 69.3293 527.013 71.9545 529.638C72.742 530.557 74.9735 533.97 76.1548 533.707C77.0736 533.445 80.6176 528.851 82.849 532.001C84.8179 535.414 82.1927 545.652 81.5364 553.265C81.4051 556.153 81.6677 559.04 82.849 560.615C87.7056 566.916 97.025 544.602 98.2063 541.977ZM74.1859 542.37C75.761 539.089 75.1047 537.514 72.8733 535.151C71.2982 533.445 69.5918 532.526 67.6229 532.526C57.2535 532.001 50.953 557.99 57.1222 557.465C64.2102 556.94 71.1669 548.146 74.1859 542.37Z" fill="white"/>
<path d="M49.1347 539.614C53.0725 538.301 52.9412 541.058 48.6096 542.501C44.8031 543.683 40.7341 543.945 36.7963 543.945H36.2713C35.4837 547.227 33.7774 550.508 32.2022 552.871C27.2144 559.959 15.0073 572.428 5.42538 566.522C0.175012 563.24 -1.53136 556.546 1.4876 551.164C5.55664 544.076 13.9572 541.583 21.5703 541.32C23.6704 541.189 25.6393 541.32 27.7394 541.32C28.3957 536.988 26.9519 533.182 21.7015 531.738C14.0885 529.769 9.36315 530.032 4.76908 522.55C0.700048 515.725 -0.612542 506.536 1.75012 499.055C4.50657 490.654 10.807 484.354 18.2888 479.891C30.2334 473.722 43.8843 473.984 50.1848 487.635C55.8289 499.711 45.5907 509.949 34.8274 513.756C25.508 516.906 19.3389 511.262 22.0953 511.13C24.3267 510.999 26.4268 512.181 29.8396 511.787C39.159 510.605 54.6476 497.348 47.2971 487.373C42.9655 481.597 32.071 482.253 25.9018 484.485C15.6636 488.554 5.16286 499.842 4.50657 511.393C3.98153 520.844 10.1507 526.357 18.8138 528.588C24.8517 530.163 31.9397 531.213 35.4837 536.857C36.4025 538.301 36.6651 539.876 36.5338 541.583C42.1779 541.451 43.7531 541.451 49.1347 539.614ZM26.9519 544.733L27.0831 544.208V543.814L26.6894 543.683C18.2888 543.551 8.31308 544.339 3.98153 552.871C-0.218765 561.009 8.31308 569.41 18.6826 557.99C22.3578 553.921 24.8517 549.852 26.9519 544.733Z" fill="white"/>
<path d="M715.113 649.954C715.113 651.764 714.449 653.217 713.12 654.314C711.773 655.392 710.137 655.931 708.212 655.931C706.498 655.931 704.987 655.431 703.678 654.43C702.369 653.429 701.464 652.062 700.964 650.33L703.505 649.29C703.678 649.906 703.919 650.464 704.227 650.965C704.535 651.465 704.891 651.898 705.295 652.264C705.719 652.611 706.181 652.89 706.681 653.102C707.182 653.294 707.711 653.39 708.269 653.39C709.482 653.39 710.474 653.082 711.244 652.466C712.014 651.831 712.399 650.994 712.399 649.954C712.399 649.088 712.081 648.347 711.446 647.731C710.849 647.134 709.732 646.557 708.096 645.998C706.441 645.401 705.411 644.997 705.006 644.785C702.812 643.669 701.715 642.023 701.715 639.848C701.715 638.327 702.321 637.028 703.534 635.95C704.766 634.872 706.277 634.333 708.067 634.333C709.646 634.333 711.013 634.737 712.168 635.545C713.323 636.335 714.093 637.326 714.478 638.519L711.994 639.559C711.763 638.789 711.301 638.154 710.608 637.653C709.935 637.133 709.107 636.874 708.125 636.874C707.085 636.874 706.21 637.162 705.497 637.74C704.785 638.279 704.429 638.981 704.429 639.848C704.429 640.56 704.708 641.176 705.266 641.696C705.882 642.216 707.22 642.832 709.28 643.544C711.378 644.256 712.87 645.132 713.756 646.171C714.661 647.192 715.113 648.453 715.113 649.954Z" fill="white"/>
<path d="M686.642 634.794V637.335H677.229V643.89H685.718V646.374H677.229V652.928H686.642V655.469H674.572V634.794H686.642Z" fill="white"/>
<path d="M659.671 655.469H648.063V634.794H650.72V652.928H659.671V655.469Z" fill="white"/>
<path d="M624.155 638.057L620.777 647.384H627.649L624.271 638.057H624.155ZM617.86 655.469H614.915L622.711 634.794H625.715L633.511 655.469H630.566L628.573 649.867H619.882L617.86 655.469Z" fill="white"/>
<path d="M597.86 637.335V655.469H595.204V637.335H589.429V634.794H603.635V637.335H597.86Z" fill="white"/>
<path d="M552.822 637.335V655.469H550.166V637.335H544.391V634.794H558.597V637.335H552.822Z" fill="white"/>
<path d="M530.069 634.794V637.335H520.656V643.89H529.145V646.374H520.656V652.928H530.069V655.469H517.999V634.794H530.069Z" fill="white"/>
<path d="M502.291 634.794V637.335H492.877V643.89H501.367V646.374H492.877V652.928H502.291V655.469H490.221V634.794H502.291Z" fill="white"/>
<path d="M456.781 655.469H454.124V634.794H456.781L463.971 647.384H464.086L471.276 634.794H473.933V655.469H471.276V643.197L471.392 639.732H471.276L464.808 651.08H463.249L456.781 639.732H456.665L456.781 643.197V655.469Z" fill="white"/>
<path d="M420.327 649.954C420.327 651.764 419.663 653.217 418.334 654.314C416.987 655.392 415.351 655.931 413.425 655.931C411.712 655.931 410.201 655.431 408.892 654.43C407.583 653.429 406.678 652.062 406.178 650.33L408.719 649.29C408.892 649.906 409.133 650.464 409.441 650.965C409.749 651.465 410.105 651.898 410.509 652.264C410.933 652.611 411.395 652.89 411.895 653.102C412.396 653.294 412.925 653.39 413.483 653.39C414.696 653.39 415.687 653.082 416.457 652.466C417.227 651.831 417.612 650.994 417.612 649.954C417.612 649.088 417.295 648.347 416.66 647.731C416.063 647.134 414.946 646.557 413.31 645.998C411.654 645.401 410.625 644.997 410.22 644.785C408.026 643.669 406.928 642.023 406.928 639.848C406.928 638.327 407.535 637.028 408.748 635.95C409.98 634.872 411.491 634.333 413.281 634.333C414.86 634.333 416.226 634.737 417.381 635.545C418.536 636.335 419.306 637.326 419.691 638.519L417.208 639.559C416.977 638.789 416.515 638.154 415.822 637.653C415.148 637.133 414.321 636.874 413.339 636.874C412.299 636.874 411.423 637.162 410.711 637.74C409.999 638.279 409.643 638.981 409.643 639.848C409.643 640.56 409.922 641.176 410.48 641.696C411.096 642.216 412.434 642.832 414.494 643.544C416.592 644.256 418.084 645.132 418.97 646.171C419.874 647.192 420.327 648.453 420.327 649.954Z" fill="white"/>
<path d="M392.663 655.469H381.055V634.794H383.711V652.928H392.663V655.469Z" fill="white"/>
<path d="M364.759 655.469H362.103V634.794H364.759V655.469Z" fill="white"/>
<path d="M338.194 638.057L334.816 647.384H341.688L338.31 638.057H338.194ZM331.899 655.469H328.954L336.75 634.794H339.754L347.55 655.469H344.605L342.612 649.867H333.921L331.899 655.469Z" fill="white"/>
<path d="M311.9 637.335V655.469H309.244V637.335H303.469V634.794H317.676V637.335H311.9Z" fill="white"/>
<path d="M271.83 634.794V637.335H262.416V643.89H270.906V646.374H262.416V652.928H271.83V655.469H259.76V634.794H271.83Z" fill="white"/>
<path d="M233.595 637.335V644.612H237.869C238.947 644.612 239.861 644.266 240.612 643.573C241.363 642.86 241.738 641.984 241.738 640.945C241.738 639.982 241.382 639.145 240.67 638.433C239.977 637.701 239.101 637.335 238.042 637.335H233.595ZM233.595 655.469H230.938V634.794H237.984C239.774 634.794 241.295 635.391 242.546 636.585C243.817 637.759 244.452 639.212 244.452 640.945C244.452 642.369 243.981 643.64 243.037 644.756C242.113 645.854 240.939 646.556 239.515 646.864L239.457 646.951L245.261 655.354V655.469H242.113L236.54 647.095H233.595V655.469Z" fill="white"/>
<path d="M215.231 634.794V637.335H205.818V643.89H214.307V646.374H205.818V652.928H215.231V655.469H203.161V634.794H215.231Z" fill="white"/>
<path d="M173.894 655.469H171.237V634.794H173.894V643.659H184.231V634.794H186.888V655.469H184.231V646.143H173.894V655.469Z" fill="white"/>
<path d="M153.8 634.794H156.572L151.057 655.469H148.343L143.896 641.84H143.78L139.334 655.469H136.619L130.873 634.794H133.645L138.005 651.051H138.121L142.597 637.566H145.08L149.556 651.051H149.671L153.8 634.794Z" fill="white"/>
</svg>
