<svg width="54" height="51" viewBox="0 0 54 51" fill="none" xmlns="http://www.w3.org/2000/svg">
<path d="M12.807 5.34689C13.2859 4.47069 13.8081 3.91177 14.2767 3.41675C15.3703 2.26145 16.4066 1.62982 17.4128 1.0261C18.3264 0.478196 18.795 0.202042 19.4083 0.0830603C19.7241 0.0221007 20.8214 -0.174733 22.0178 0.390062C22.2756 0.511981 23.1459 0.935761 23.7063 1.8597C24.1007 2.50969 24.097 2.56184 24.4738 3.92131C24.6347 4.5008 24.7727 4.8504 24.8675 5.3322C24.9777 5.89112 24.9835 6.06372 24.9777 6.50953C24.963 7.65675 25.2597 7.94025 25.4602 9.40475C25.5667 10.1825 25.5454 10.7348 25.5043 11.8387C25.4683 12.7869 25.4205 13.918 25.0878 15.3479C24.9211 16.064 24.664 17.1363 24.0133 18.3967C23.5851 19.2259 23.2862 19.8031 22.6538 20.3922C21.5698 21.4013 20.3447 21.6613 19.8908 21.7516C19.5464 21.8199 18.2934 22.0381 16.7988 21.5541C15.1837 21.0311 14.2517 20.0022 13.8602 19.5586C12.9928 18.5759 12.63 17.6203 12.3252 16.7956C11.7369 15.2033 11.6708 13.9091 11.6018 12.5629C11.485 10.2949 11.7847 8.66588 11.8868 8.15471C12.0711 7.23297 12.251 6.36705 12.8078 5.34762L12.807 5.34689Z" fill="#3E5910"/>
<path d="M28.7499 6.43617C28.9776 5.31319 29.2068 4.55156 29.3852 3.96547C29.7671 2.70882 30.0014 2.24023 30.2497 1.84804C30.4766 1.49036 30.7271 1.10183 31.2023 0.7537C31.7553 0.349016 32.2929 0.231504 32.6668 0.153652C32.8871 0.108116 33.8191 -0.0681533 34.9788 0.259413C35.5319 0.415852 35.8749 0.612685 36.5498 1.00048C37.8439 1.74374 38.704 2.50611 38.9324 2.71249C39.5133 3.23762 40.1325 3.79654 40.7325 4.70653C41.5235 5.90736 41.8129 7.00831 42.0031 7.75965C42.2969 8.91789 42.3336 9.79629 42.374 10.7423C42.4122 11.6449 42.4666 13.1601 42.0744 15.066C41.8768 16.0259 41.6888 16.9036 41.1387 17.9597C40.8486 18.5165 40.4072 19.3457 39.5148 20.1484C38.3823 21.1671 37.2028 21.5307 36.7621 21.6482C36.2795 21.7767 35.2866 22.0301 34.027 21.7892C33.6311 21.7135 32.4119 21.4646 31.3271 20.4657C30.7469 19.9318 30.4605 19.4184 30.0213 18.6303C29.8817 18.3806 29.3566 17.4162 28.9446 15.9657C28.6243 14.8383 28.5347 13.9878 28.4326 13.0183C28.3386 12.1245 28.2072 10.8179 28.3445 9.11839C28.4356 7.98513 28.6104 7.12435 28.7507 6.43617H28.7499Z" fill="#3E5910"/>
<path d="M43.6893 18.368C44.0991 17.7746 44.5398 17.2561 45.4204 16.219C45.7105 15.8768 46.8027 14.6054 48.0167 13.8614C48.1959 13.7513 48.4941 13.5816 48.912 13.503C49.5488 13.3833 50.0533 13.553 50.1657 13.5926C50.3435 13.6558 50.7136 13.813 51.2402 14.3689C51.6596 14.8118 51.9908 15.309 52.4337 16.2491C52.7312 16.88 53.0338 17.5278 53.329 18.5171C53.5589 19.2854 54.0943 21.2985 53.9856 23.9484C53.9136 25.7001 53.5919 26.9575 53.4487 27.4701C53.2188 28.289 53.0543 28.8612 52.643 29.5295C51.9519 30.6525 51.0654 31.2349 50.2553 31.7682C48.7637 32.7494 47.4225 33.1004 46.5544 33.3201C45.4013 33.6116 44.5743 33.8107 43.5101 33.5889C43.0489 33.4926 41.9824 33.2701 41.4213 32.3954C41.1334 31.9466 41.0937 31.5052 41.0629 31.1123C40.8778 28.7341 40.7853 27.545 40.8242 26.9046C40.9123 25.4313 40.9799 24.309 41.4213 22.846C42.0471 20.769 43.0261 19.3287 43.6893 18.3695V18.368Z" fill="#3E5910"/>
<path d="M5.71582 13.7581C6.29603 13.9873 6.65004 14.298 7.21704 14.8062C7.6298 15.1756 8.03816 15.5943 8.8321 16.563C9.58051 17.4759 9.95435 17.932 10.3906 18.5747C10.9011 19.326 11.5709 20.3264 12.1188 21.7475C12.5448 22.8529 12.713 23.7364 12.8268 24.3541C13.0875 25.7643 12.8628 25.5549 13.0817 28.8585C13.1389 29.7252 13.2014 30.4442 12.912 31.3512C12.7871 31.742 12.6138 32.2656 12.1753 32.7107C11.9543 32.9355 11.3586 33.4525 9.73915 33.5605C7.63494 33.7008 5.93028 33.0082 5.1782 32.6542C4.23663 32.2106 2.49303 31.3894 1.29661 29.5092C0.291876 27.9309 0.200069 26.4319 0.0502409 23.9854C-0.00924988 23.0115 -0.0915087 21.4949 0.305096 19.5655C0.52176 18.5108 0.939664 17.0558 1.86361 15.5429C2.91828 13.8154 3.66889 13.5914 3.93183 13.5312C4.6986 13.3564 5.43672 13.6472 5.71655 13.7581H5.71582Z" fill="#3E5910"/>
<path d="M18.3243 28.3377C18.9214 27.391 19.0066 27.1926 19.5993 26.3568C20.1244 25.6165 20.7436 24.9944 21.5941 24.2005C22.1824 23.6511 22.4828 23.372 22.8089 23.159C23.6381 22.617 24.4063 22.4114 24.9784 22.2623C25.4661 22.1352 26.1381 21.9655 27.0327 21.9729C28.1579 21.9824 28.9915 22.2674 29.6363 22.4936C30.2474 22.7081 31.0259 22.9886 31.8639 23.6217C32.3031 23.9537 32.6674 24.354 33.3975 25.1553C33.9689 25.7825 34.2744 26.1211 34.6123 26.6594C34.9567 27.2073 34.9479 27.3454 35.3063 27.9322C35.5986 28.4096 35.8792 28.7688 36.3772 29.3497C37.5302 30.6982 38.5181 31.6934 38.5181 31.6934C40.4365 33.6265 40.3785 33.3349 40.977 34.0657C42.1874 35.5419 42.6714 37.0292 42.8866 37.7108C43.1451 38.5311 43.6336 40.1389 43.3787 42.1953C43.2076 43.5746 42.7662 44.63 42.54 45.1177C42.3909 45.4387 42.1904 45.8705 41.8459 46.3619C40.9425 47.6501 39.7909 48.2884 38.7502 48.8502C37.5295 49.509 36.7987 49.9042 35.6831 50.0364C34.2605 50.2053 33.0126 49.8527 32.1247 49.6023C31.3498 49.3834 31.3373 49.2982 30.5331 49.0529C29.9404 48.8715 28.5303 48.4404 26.9453 48.4455C25.5822 48.4499 24.4452 48.8054 22.1714 49.5164C20.9492 49.8983 20.8912 49.9886 20.3198 50.0657C18.704 50.2839 17.3989 49.7991 16.5587 49.487C16.0203 49.2872 14.8452 48.7981 13.6076 47.7801C12.9224 47.2168 11.997 46.4552 11.322 45.1185C10.6808 43.8486 10.6037 42.7263 10.5405 41.82C10.4913 41.1076 10.4605 39.6233 11.0033 37.8562C11.1252 37.4603 11.5776 36.0678 12.6815 34.5291C13.1501 33.8762 13.2455 33.8806 15.1118 31.9541C16.8884 30.1202 17.7881 29.186 18.3236 28.3377H18.3243Z" fill="#3E5910"/>
<path d="M6.30405 29.8516C6.21739 29.8347 6.44654 28.9768 6.30405 27.8913C6.27761 27.6908 6.22547 27.447 6.11971 26.96C5.99411 26.3805 5.93169 26.0904 5.82592 25.757C5.54022 24.8617 5.22955 24.551 5.31107 24.4834C5.4374 24.3784 6.37677 24.9682 6.58462 25.8877C6.61399 26.0192 6.6162 26.1778 6.61913 26.4892C6.63089 27.6467 6.49428 28.3041 6.56699 28.321C6.61767 28.3327 6.72343 28.0198 7.08184 27.0122C7.41161 26.0845 7.64003 25.4551 8.0851 24.858C8.20849 24.6928 8.29516 24.6002 8.39064 24.5003C8.60363 24.2763 9.16181 23.6895 9.40271 23.8114C9.56282 23.8922 9.56062 24.2771 9.49011 24.5532C9.29475 25.3185 8.46114 25.7247 8.5221 25.8179C8.5412 25.8481 8.62787 25.8099 8.77476 25.7746C9.22865 25.6652 9.77582 25.6975 9.82135 25.8444C9.85367 25.9487 9.62966 26.1022 9.58559 26.1323C9.32119 26.3137 9.03622 26.3181 8.92238 26.324C8.30617 26.3585 7.7098 26.7353 7.39619 27.0658C7.14427 27.3309 7.03998 27.6041 6.838 28.13C6.68891 28.5185 6.54936 29.0202 6.61106 29.0459C6.65365 29.0635 6.77264 28.8512 6.85563 28.7234C7.52472 27.6849 9.0443 27.0863 9.22791 27.3103C9.24701 27.3339 9.24995 27.364 9.24554 27.4146C9.1721 28.1961 7.67969 28.993 7.08257 29.0194C7.0363 29.0216 6.93568 29.0216 6.82992 29.0804C6.72563 29.1384 6.66173 29.2273 6.46343 29.5864C6.33196 29.8244 6.32168 29.8552 6.30479 29.8523L6.30405 29.8516Z" fill="#3E5910"/>
<path d="M4.55083 18.0464C4.5971 17.9215 4.28716 17.8077 4.24382 17.5065C4.21665 17.3178 4.29524 17.0659 4.48766 16.977C4.66687 16.8947 4.89088 16.9792 5.0172 17.1041C5.27133 17.3552 5.15748 17.7981 5.25003 17.8135C5.31906 17.8246 5.35873 17.5734 5.58861 17.3053C5.70906 17.165 5.87211 16.9748 6.09685 16.9667C6.38182 16.9557 6.69176 17.2392 6.71085 17.5491C6.72922 17.8532 6.46041 18.0706 6.37227 18.1418C6.1086 18.3548 5.8038 18.3798 5.81115 18.4173C5.81702 18.4474 6.00651 18.3967 6.21363 18.4386C6.53385 18.5032 6.94808 18.8006 6.90181 19.1267C6.86509 19.3845 6.54781 19.6137 6.28781 19.5821C5.91324 19.5366 5.72081 18.9571 5.62093 18.9997C5.58053 19.0166 5.64222 19.1436 5.62093 19.3493C5.61432 19.4154 5.58861 19.6526 5.44098 19.7936C5.20743 20.0162 4.7058 19.9655 4.56258 19.7408C4.40026 19.4859 4.71094 19.0291 4.60518 18.9681C4.56698 18.9461 4.52145 19.0041 4.41495 19.0423C4.20637 19.1165 3.87293 19.0753 3.74807 18.8623C3.64231 18.6831 3.70474 18.4136 3.85383 18.2696C4.09473 18.0376 4.49941 18.1911 4.5523 18.0471L4.55083 18.0464Z" fill="#3E5910"/>
<path d="M30.5895 32.0225C30.74 32.0188 30.7643 32.3559 31.0603 32.6012C31.1587 32.6828 31.2431 32.7173 31.3886 32.7775C31.6728 32.8943 31.9578 32.9494 32.5688 32.9839C33.0793 33.0125 33.3341 33.0272 33.5053 32.9986C33.8732 32.9369 33.9092 32.8392 34.4997 32.6101C34.8941 32.4573 35.3304 32.2913 35.8849 32.2553C36.2705 32.2303 36.7883 32.2641 36.8074 32.386C36.8162 32.4441 36.7089 32.505 36.5474 32.5902C35.9231 32.9193 35.6109 33.0838 35.2745 33.1778C35.1791 33.2042 34.7472 33.3217 34.1626 33.3519C33.6661 33.3776 33.282 33.3291 33.2761 33.3724C33.271 33.4084 33.5427 33.4187 33.8548 33.5825C34.1508 33.7374 34.3212 33.9468 34.6356 34.3316C34.9205 34.6805 34.9698 34.8134 35.2319 35.0271C35.4332 35.1909 35.5757 35.2519 35.6969 35.2835C35.9385 35.3466 36.1405 35.3011 36.2374 35.282C36.2859 35.2724 36.6884 35.2585 37.4933 35.2299C38.609 35.1909 39.7452 35.7153 39.718 35.9026C39.7106 35.954 39.5931 35.9819 39.3581 36.037C39.0438 36.1112 38.7867 36.1193 38.4738 36.1178C38.0008 36.1163 37.7643 36.1222 37.5609 36.0906C37.4757 36.0774 37.3567 36.0554 36.8184 35.8931C36.0171 35.6507 35.785 35.5493 35.7681 35.5853C35.7461 35.6323 36.1118 35.882 36.5121 36.0407C36.5606 36.0598 36.7559 36.1354 37.0387 36.1949C37.4074 36.2728 37.6953 36.2742 37.7812 36.2757C38.4364 36.2853 39.2274 36.4417 39.4984 36.5049C40.6809 36.781 41.5593 37.5346 41.5123 37.633C41.4939 37.6719 41.3353 37.5948 40.9923 37.572C40.5766 37.5448 40.2732 37.6234 40.1337 37.6521C39.5417 37.7725 38.4951 37.6741 37.7137 37.2055C37.2554 36.9308 36.4467 36.264 36.3997 36.2258C36.3131 36.1545 36.0714 35.9526 36.0501 35.9746C36.0354 35.99 36.1375 36.1068 36.2874 36.2955C36.5048 36.5695 36.598 36.7149 36.6891 36.8368C36.9851 37.2305 37.3288 37.4648 37.6432 37.7571C38.3967 38.4578 38.8631 39.3847 38.7485 39.4882C38.7 39.5323 38.5436 39.4331 38.2961 39.2752C37.9465 39.0534 37.724 38.814 37.6366 38.7156C37.3699 38.4159 37.403 38.3572 36.9535 37.6917C36.6994 37.3157 36.6752 37.3157 36.4548 36.9734C36.2176 36.6047 36.0986 36.4211 36.0303 36.2772C35.8974 35.9974 35.8709 35.8541 35.7042 35.7124C35.6359 35.6551 35.5595 35.6103 35.4178 35.4796C35.3017 35.3731 35.2408 35.2996 35.2275 35.3092C35.2062 35.3246 35.3274 35.5273 35.3774 35.6162C35.5948 35.9981 35.5808 36.1575 35.8695 37.019C36.0075 37.4317 36.0773 37.6381 36.1625 37.8144C36.4063 38.316 36.6774 38.6171 36.7501 38.6957C36.8779 38.8338 37.035 38.9587 37.345 39.2018C37.8194 39.5749 38.216 39.8496 38.4474 40.0053C38.9013 40.3115 39.1282 40.4643 39.3537 40.5796C39.9721 40.8954 40.4047 40.9652 40.3937 41.0908C40.3834 41.2076 39.9978 41.2597 39.9413 41.2671C39.1929 41.3684 38.5649 40.9982 38.3747 40.8763C37.9678 40.6163 37.7203 40.2932 37.2253 39.6469C36.6898 38.9477 36.4225 38.5988 36.3336 38.4357C36.3101 38.3931 36.2257 38.2345 36.1948 38.2463C36.161 38.2587 36.2301 38.4659 36.2712 38.7266C36.3615 39.298 36.2124 39.4779 36.3395 39.9362C36.3865 40.1044 36.4247 40.1478 36.507 40.3402C36.7853 40.9916 36.6737 41.2737 36.883 42.4525C36.9836 43.0217 37.0718 43.4454 37.0718 43.4462C37.1929 44.0279 37.2576 44.2504 37.1929 44.282C37.1085 44.3231 36.8433 44.0213 36.6781 43.6966C36.471 43.289 36.4629 42.9262 36.4511 42.5208C36.4416 42.1917 36.3909 40.5223 36.3402 40.5209C36.3197 40.5209 36.338 40.7831 36.2286 41.1745C36.1375 41.5013 36.0443 41.6042 36.0017 41.909C35.9723 42.1161 35.9914 42.2417 35.9943 42.3643C36.0097 43.0231 35.5705 43.5909 35.4706 43.7209C35.0682 44.2416 34.7876 44.1476 34.4174 44.7388C34.3337 44.8725 34.2448 45.0421 34.1846 45.0253C34.1016 45.0018 34.1229 44.6309 34.1714 44.3694C34.3344 43.48 34.9521 42.9166 34.9521 42.9166C35.2878 42.6104 35.6388 42.4679 35.7997 42.0559C35.8327 41.9714 35.8834 41.8084 35.8871 41.7959C35.9312 41.6556 36.0039 41.4044 36.0626 41.0812C36.0854 40.9549 36.1243 40.739 36.1441 40.4533C36.1522 40.3358 36.1537 40.2043 36.1566 39.9421C36.1603 39.5984 36.1625 39.4265 36.1478 39.425C36.0979 39.4184 36.0259 40.4136 35.5412 41.4551C35.4706 41.6056 35.4244 41.6886 35.3855 41.7525C34.9962 42.3915 34.3741 42.7999 34.2889 42.7235C34.2573 42.6956 34.2948 42.5986 34.3139 42.5597C34.3646 42.4569 34.4586 42.4113 34.4887 42.3937C34.698 42.2696 34.6738 41.7915 34.6752 41.602C34.6789 41.1216 34.8633 40.7456 35.0212 40.4224C35.3818 39.685 35.8247 39.6953 35.9745 39.0439C36.0428 38.7457 36.0141 38.4651 36.0002 38.3307C35.973 38.0656 35.9179 37.9407 35.7505 37.3884C35.5764 36.8141 35.6197 36.8978 35.5 36.5254C35.4148 36.261 35.2988 35.9033 35.1034 35.4597C34.944 35.0976 34.864 34.9162 34.7149 34.7165C34.5871 34.5453 34.4454 34.4109 34.1626 34.1429C33.8997 33.8931 33.7814 33.8094 33.6933 33.7536C33.503 33.6324 33.1902 33.4716 33.1402 33.534C33.1013 33.5825 33.2372 33.7463 33.3297 33.8638C33.3297 33.8638 33.6301 34.2449 34.178 35.2225C34.355 35.5376 34.5548 35.8938 34.687 36.4123C34.795 36.8354 34.803 37.1534 34.8192 37.7549C34.828 38.0905 34.8368 38.4636 34.7553 38.4798C34.698 38.4908 34.6312 38.3168 34.4468 37.9319C34.1354 37.2797 34.1171 37.3407 34.0054 37.0586C33.8813 36.7458 33.8343 36.4615 33.741 35.8945C33.6294 35.2181 33.6727 35.1505 33.5559 34.8105C33.4979 34.6423 33.3973 34.4462 33.1946 34.0525C32.9331 33.5435 32.8516 33.4561 32.7605 33.3878C32.6702 33.3203 32.4866 33.2652 32.1201 33.1543C31.8586 33.0757 31.7198 33.0449 31.3827 32.9384C31.1036 32.8502 31.0279 32.8172 30.942 32.7636C30.7885 32.6673 30.7121 32.5733 30.5601 32.3882C30.4646 32.2715 30.4316 32.2098 30.447 32.1496C30.4617 32.093 30.5212 32.0291 30.5858 32.0276L30.5895 32.0225Z" fill="#3E5910"/>
<path d="M19.0843 32.7748C19.1908 32.9004 19.0652 33.1002 19.027 33.3734C19.016 33.4534 19.0152 33.5188 19.1511 34.1475C19.2532 34.622 19.2899 34.7542 19.3465 35.0208C19.4185 35.3608 19.4779 35.7089 19.5037 35.9161C19.627 36.9061 19.4082 38.0585 19.1408 38.0812C19.1129 38.0834 19.0542 38.0761 18.9073 37.8602C18.4336 37.1646 18.4593 36.3971 18.4622 36.3259C18.4886 35.7706 18.651 35.7978 18.8089 34.8504C18.8368 34.6844 18.9734 33.8647 18.8456 33.8273C18.7912 33.8111 18.7303 33.9477 18.5856 34.1475C18.1669 34.7292 17.8607 34.7292 17.5551 35.2058C17.4575 35.3586 17.3987 35.5371 17.2812 35.894C17.1563 36.2737 17.0183 36.6939 16.9882 37.2227C16.9573 37.7595 16.9206 38.4066 17.3451 38.8473C17.5867 39.0985 17.8901 39.1903 18.0362 39.2343C18.4622 39.3636 18.8067 39.3012 19.0593 39.2711C20.2043 39.1344 21.2274 39.4473 21.8113 39.736C22.1976 39.9269 22.6479 40.2347 22.5994 40.3742C22.5817 40.4249 22.5017 40.4447 22.1212 40.477C21.6652 40.5159 21.4367 40.535 21.2531 40.5284C20.7331 40.5086 20.1551 40.3008 18.9984 39.8843C18.3888 39.6647 18.0832 39.5553 17.9136 39.4605C17.655 39.3166 17.4589 39.1712 17.3921 39.2299C17.3282 39.2857 17.4303 39.4833 17.5588 39.7727C17.8614 40.4513 17.7373 40.3397 18.0656 41.0646C18.4064 41.8152 18.5437 41.943 18.673 42.0275C18.8948 42.1714 19.1137 42.1978 19.2855 42.2169C19.8466 42.2794 20.0912 42.051 20.7236 41.9569C21.1393 41.8953 21.4529 41.9327 21.7849 41.9716C22.5347 42.0598 23.4278 42.3389 23.4109 42.5511C23.4073 42.5922 23.3691 42.6451 23.0195 42.7568C22.2608 42.9991 21.6123 43.0153 21.3236 43.0146C20.9189 43.0146 20.5627 43.0138 20.0927 42.9081C19.5235 42.7803 19.1607 42.582 19.1048 42.6701C19.0608 42.7399 19.2459 42.9308 19.4846 43.1761C19.7725 43.4729 19.9172 43.6205 20.1206 43.7042C20.3556 43.8004 20.5069 43.7593 21.0247 43.716C21.2296 43.6991 21.7445 43.6557 22.1565 43.6675C22.805 43.6858 23.5777 43.8489 23.5821 44.0252C23.585 44.1419 23.2508 44.2448 23.0702 44.3006C22.5656 44.4563 22.1947 44.3895 22.1785 44.4702C22.1668 44.529 22.3563 44.5863 22.5751 44.7082C23.1245 45.013 23.4109 45.4706 23.6533 45.8584C23.7561 46.0236 23.9956 46.4055 23.906 46.4915C23.8509 46.5443 23.6937 46.4628 23.6254 46.4276C22.5847 45.8944 22.523 46.0736 21.7768 45.5712C21.4059 45.3215 21.0541 45.085 20.703 44.6678C20.504 44.4313 20.4408 44.2984 20.1713 44.031C19.9201 43.7821 19.8202 43.7431 19.5499 43.4472C19.3847 43.2665 19.2892 43.1357 19.2613 43.1526C19.2268 43.1732 19.3355 43.3928 19.4214 43.6175C19.5602 43.9796 19.6043 44.2896 19.6917 44.908C19.7548 45.3516 19.7923 45.616 19.796 45.9862C19.8011 46.4423 19.7585 47.2465 19.5947 47.2656C19.547 47.2715 19.5 47.2083 19.3362 46.8851C19.0747 46.3695 18.944 46.1118 18.8786 45.8944C18.7611 45.5022 18.7677 45.1555 18.7802 44.4614C18.7978 43.5412 18.8977 43.5155 18.8111 43.1211C18.706 42.6407 18.5658 42.7156 18.319 41.9687C18.2154 41.6566 18.0274 41.3789 17.9047 41.0734C17.8959 41.0514 17.8666 40.9779 17.8438 40.9816C17.8107 40.9867 17.81 41.1476 17.8107 41.2107C17.8122 41.9188 17.8129 42.272 17.8467 42.687C17.8577 42.8185 17.9283 43.8151 17.4171 44.7222C17.3759 44.7956 17.138 45.2076 16.6767 45.5242C16.6018 45.5756 16.2486 45.818 16.1494 45.7276C16.0936 45.677 16.1399 45.5418 16.1634 45.4764C16.3154 45.0475 16.391 44.8338 16.7384 44.2932C16.8633 44.0993 16.9859 43.7564 17.2305 43.0711C17.4993 42.3183 17.6337 41.9423 17.6646 41.5464C17.6881 41.2438 17.7314 40.6959 17.5008 40.1054C17.4097 39.8726 17.3201 39.7448 17.2107 39.3864C17.0756 38.9442 17.0227 38.6343 17.0227 38.6343C16.9852 38.4169 16.9727 38.2575 16.9411 38.2575C16.9037 38.2575 16.8714 38.4845 16.8574 38.5836C16.8156 38.8767 16.8222 39.083 16.8222 39.083C16.8383 39.5714 16.8839 40.264 16.8949 40.4498C16.914 40.7693 16.9147 41.1079 16.9162 41.7866C16.9169 42.2551 16.9103 42.4064 16.875 42.6069C16.8016 43.0241 16.6165 43.5757 16.4682 43.5625C16.322 43.5492 16.2618 42.9859 16.2441 42.8177C16.2177 42.5665 16.206 42.2089 16.3323 41.484C16.4439 40.8428 16.5056 40.8178 16.5871 40.2604C16.6599 39.7609 16.6995 39.1734 16.64 39.1631C16.618 39.1594 16.5864 39.2358 16.4696 39.5942C16.2383 40.3081 16.2038 40.4991 16.1017 40.7627C15.9327 41.1983 15.7095 41.4942 15.5956 41.6419C15.4509 41.8306 15.0815 42.3132 14.4455 42.6525C14.0658 42.8552 13.4158 43.0998 13.2468 43.4552C13.238 43.4736 13.1976 43.5625 13.1866 43.5581C13.1631 43.55 13.2828 43.149 13.3276 43.0094C13.4275 42.6958 13.6758 41.9173 14.3074 41.2768C14.643 40.9368 14.7084 41.0183 15.2328 40.5137C15.5435 40.2148 15.5068 40.1994 15.8446 39.8821C16.1736 39.5736 16.3117 39.4914 16.4402 39.2468C16.5879 38.9663 16.6297 38.6475 16.5893 38.6321C16.5666 38.6233 16.5181 38.7121 16.4329 38.8458C16.4329 38.8458 16.3984 38.9009 15.9768 39.4664C15.4899 40.1201 14.5821 40.6974 14.3103 40.87C14.0195 41.055 13.7286 41.2372 13.6647 41.1703C13.5898 41.0918 13.8719 40.7113 14.0334 40.4939C14.6805 39.6221 15.1087 39.0456 15.8373 38.7525C16.062 38.6622 16.3125 38.6005 16.499 38.3544C16.6643 38.1371 16.7458 37.822 16.7722 37.7206C16.8178 37.5458 16.8317 37.4121 16.8361 37.3725C16.9301 36.5492 17.4722 35.4306 17.351 35.3682C17.312 35.3483 17.2261 35.4467 17.1828 35.4945C16.5607 36.1768 15.5508 36.392 15.069 36.4948C14.5167 36.6123 13.8799 36.6388 13.8594 36.5484C13.8513 36.5139 13.9336 36.4684 13.9798 36.4434C15.3444 35.6994 16.1017 35.4453 16.1017 35.4453C16.77 35.2213 16.8134 35.2286 17.0263 35.1148C17.3657 34.9334 17.6293 34.7145 17.9848 34.42C18.2969 34.1607 18.4534 34.0315 18.5158 33.9374C18.8779 33.3917 18.6965 32.7498 18.9102 32.6992C18.9771 32.6837 19.0476 32.7337 19.0806 32.7726L19.0843 32.7748Z" fill="#3E5910"/>
<path d="M25.181 34.7201C25.1407 34.8016 25.4168 34.9331 25.5101 35.2437C25.5307 35.3113 25.5343 35.3627 25.5395 35.4185C25.5637 35.7079 25.4638 35.9393 25.4359 36.0068C25.3808 36.139 25.0525 36.9264 25.0922 37.5624C25.1267 38.1316 25.4601 38.6509 25.6158 38.6244C25.6753 38.6141 25.701 38.5267 25.7951 38.1757C25.9493 37.6006 26.0264 37.3127 26.0345 37.2628C26.1777 36.3315 25.6849 35.5228 25.7804 35.4824C25.8105 35.47 25.859 35.5493 26.0646 35.8115C26.4017 36.2411 26.4414 36.2455 26.5736 36.4402C26.661 36.5694 26.8475 36.8441 26.9327 37.1878C27.0671 37.7313 26.8938 38.2212 26.7829 38.5341C26.6735 38.8433 26.5288 39.0996 26.3936 39.6409C26.3385 39.8612 26.3158 40.0059 26.3635 40.0302C26.4502 40.0742 26.7234 39.6967 26.7528 39.6563C27.0568 39.2362 27.1149 38.9123 27.1868 38.9234C27.2662 38.9351 27.1927 39.3295 27.3066 39.7614C27.4821 40.4268 28.0542 41.0048 28.2937 40.913C28.5448 40.8175 28.4413 39.9861 28.4134 39.7614C28.3157 38.977 27.9991 38.3931 27.7553 37.9509C27.4424 37.3854 27.026 36.8133 26.9173 36.6642C26.6265 36.2646 26.3885 35.9797 26.4237 35.9459C26.4517 35.9194 26.625 36.0678 26.9922 36.3645C27.9646 37.1519 28.1791 37.2708 28.3539 37.3516C28.6227 37.4765 28.9385 37.6182 29.341 37.5609C29.6304 37.5198 30.0204 37.3685 30.0145 37.2172C30.0071 37.0226 29.3527 37.0263 28.3091 36.6341C27.6466 36.3851 27.1575 36.1008 26.8431 35.9158C26.1623 35.5162 25.8002 35.3444 25.6761 35.1226C25.6034 34.9933 25.4631 34.6819 25.2743 34.6826C25.2648 34.6826 25.1994 34.6826 25.1818 34.7186L25.181 34.7201Z" fill="#3E5910"/>
<path d="M31.3752 28.3259C31.1688 28.475 30.7891 28.2502 30.3653 28.1635C30.1362 28.1165 29.9011 28.1408 29.4303 28.1885C28.748 28.2583 28.0812 28.3259 27.4113 28.7122C27.097 28.8936 26.8605 29.1073 26.389 29.5348C25.8984 29.9798 25.8337 30.1172 25.4915 30.3324C24.9854 30.6504 24.342 30.8414 24.2451 30.6937C24.2297 30.6695 24.2084 30.6071 24.37 30.3698C24.851 29.6596 25.5811 29.4151 25.5414 29.2983C25.523 29.2432 25.3534 29.2696 25.1551 29.2733C24.4111 29.2873 23.637 28.9773 23.6348 28.7496C23.634 28.6534 23.7714 28.5829 23.9337 28.5007C24.4867 28.2186 25.0647 28.32 25.2175 28.3508C25.432 28.3949 25.7015 28.4882 26.2399 28.6747C26.375 28.7217 26.472 28.757 26.6137 28.7621C26.9148 28.7724 27.1036 28.6343 27.3489 28.5131C27.9732 28.2039 28.502 28.2319 28.4954 28.1768C28.4902 28.1327 28.1575 28.1489 27.9181 28.1452C27.8197 28.1437 26.4639 28.1077 25.3446 27.3072C24.6564 26.8151 24.1408 26.0924 24.2444 25.9609C24.2701 25.9286 24.3259 25.9411 24.5492 25.9778C25.1859 26.0828 25.2028 26.0564 25.3615 26.0961C25.783 26.2018 26.0585 26.4831 26.5807 27.0185C26.9618 27.4093 27.036 27.5782 27.368 27.7552C27.4209 27.7831 27.6096 27.8808 28.0371 27.9667C28.8795 28.1364 29.7557 28.0835 29.7638 27.9836C29.7675 27.9447 29.6367 27.9102 29.4759 27.8565C29.4759 27.8565 28.712 27.601 27.8931 26.9928C27.2542 26.5184 26.7959 25.8933 26.8686 25.8074C26.9068 25.7626 27.0581 25.9007 27.5031 26.0446C27.9034 26.1739 28.018 26.1394 28.2736 26.2731C28.3984 26.3384 28.5167 26.4442 28.7473 26.6542C29.1057 26.9796 29.2027 27.1147 29.5853 27.4665C29.9151 27.7699 30.0091 27.8213 30.059 27.8477C30.1655 27.9021 30.4182 28.0321 30.7531 28.0424C30.7883 28.0438 31.0395 28.0497 31.312 28.1099C31.3642 28.1217 31.453 28.143 31.4648 28.1944C31.4765 28.2502 31.3913 28.3119 31.3744 28.3244L31.3752 28.3259Z" fill="#3E5910"/>
<path d="M28.4482 44.0393C28.4761 43.9982 28.3659 43.9115 28.2859 43.769C28.2631 43.7286 28.078 43.3878 28.2315 43.1051C28.3167 42.9479 28.5062 42.8091 28.6795 42.8267C29.0791 42.8686 29.2407 43.653 29.1503 43.8072C29.1437 43.819 29.1121 43.8667 29.1268 43.8843C29.1408 43.9012 29.1959 43.8887 29.2274 43.8608C29.2906 43.8057 29.2627 43.6875 29.2583 43.6295C29.2407 43.3981 29.5058 43.0456 29.8532 43.0037C30.147 42.9685 30.4731 43.1579 30.5561 43.4517C30.6699 43.8579 30.2395 44.1796 30.2006 44.2082C30.0243 44.3404 29.8576 44.3727 29.8576 44.3727C29.8033 44.3838 29.7533 44.3867 29.7533 44.3933C29.7533 44.4139 30.1793 44.3522 30.5737 44.5563C30.6956 44.6195 30.8006 44.6739 30.8374 44.7833C30.9306 45.058 30.5451 45.5273 30.2432 45.5009C29.9428 45.4752 29.6622 44.9522 29.5462 44.9809C29.5359 44.9831 29.5051 44.9911 29.497 45.0139C29.486 45.044 29.522 45.083 29.53 45.0925C29.6013 45.1777 29.5947 45.5177 29.3773 45.7197C29.1812 45.9019 28.9234 45.8681 28.8617 45.86C28.6414 45.8314 28.3571 45.6852 28.3417 45.5009C28.3292 45.3503 28.5033 45.2409 28.5194 44.9728C28.5209 44.9522 28.5246 44.8802 28.5033 44.8736C28.4754 44.8656 28.4438 44.9787 28.3755 45.0389C28.2066 45.1872 27.7152 45.0962 27.5955 44.7995C27.5367 44.6526 27.5889 44.5035 27.608 44.4491C27.6763 44.2545 27.8276 44.1575 27.876 44.1274C27.9106 44.1061 28.0222 44.0386 28.1772 44.0283C28.3343 44.018 28.4247 44.0738 28.4482 44.0378V44.0393Z" fill="#3E5910"/>
<path d="M22.3829 33.397C22.4299 33.3948 22.424 33.5799 22.5467 33.6643C22.6392 33.7275 22.7773 33.7157 22.8743 33.6584C22.958 33.6085 23.0535 33.5005 23.0322 33.4036C23.0043 33.2773 22.7957 33.2383 22.8074 33.1913C22.8148 33.1612 22.9 33.1796 22.9954 33.1429C23.1482 33.0841 23.218 32.9277 23.2319 32.8939C23.301 32.7286 23.2856 32.4899 23.1291 32.3599C23.0527 32.2968 22.9154 32.2351 22.8016 32.2813C22.6679 32.335 22.6605 32.4995 22.5768 32.4995C22.5026 32.4995 22.4931 32.3687 22.3646 32.263C22.2573 32.1749 22.0649 32.1029 21.9459 32.1778C21.8093 32.2645 21.7998 32.5259 21.8916 32.6875C21.9966 32.8733 22.2287 32.9181 22.2133 32.9725C22.2022 33.0114 22.0877 32.9739 21.9643 33.0393C21.8424 33.1032 21.727 33.2596 21.7638 33.3852C21.7902 33.477 21.8908 33.5152 22.0913 33.5916C22.1875 33.6283 22.2184 33.6261 22.2434 33.6159C22.3433 33.5747 22.3366 33.3992 22.3829 33.3977V33.397Z" fill="#3E5910"/>
<path d="M49.0432 16.6517C48.8706 16.8015 49.0006 17.0402 48.8581 17.2503C48.8353 17.2834 48.7736 17.3641 48.4659 17.4699C48.0472 17.6139 47.9261 17.5455 47.5566 17.6374C47.409 17.6741 47.1637 17.796 46.6731 18.0398C46.3859 18.1823 46.2721 18.2492 46.159 18.3792C46.0172 18.5415 45.8645 18.8154 45.9548 18.9359C46.0055 19.0042 46.1178 19.0012 46.2096 18.9954C46.8633 18.9498 47.4208 18.6333 47.4913 18.5921C47.8827 18.3652 48.1743 18.1199 48.2132 18.0876C48.5092 17.8364 48.7009 17.6109 48.7406 17.641C48.7692 17.6623 48.6965 17.7931 48.6098 17.9737C48.3315 18.5569 48.3888 18.6612 48.2096 18.9689C47.9885 19.3472 47.6866 19.5565 47.5882 19.6233C47.1358 19.9296 46.6577 19.9847 46.5159 19.9994C45.9203 20.0611 45.7528 20.0875 45.4172 20.1404C45.354 20.1507 45.2123 20.1742 45.1983 20.2417C45.1836 20.3152 45.3298 20.4018 45.3724 20.4268C45.4377 20.465 45.6603 20.5847 46.0804 20.5487C46.3301 20.5274 46.4733 20.4657 46.488 20.4995C46.5034 20.5355 46.347 20.6281 46.156 20.7669C46.1333 20.7838 45.7763 21.0445 45.6022 21.2384C45.2115 21.6724 45.1821 22.3827 45.329 22.4532C45.3753 22.4752 45.4164 22.4231 45.6235 22.3107C45.874 22.1741 46.0473 22.1234 46.1391 22.0852C46.7135 21.8458 47.4296 20.7265 47.5236 20.5781C47.9341 19.9289 48.1985 19.3295 48.1985 19.3295C48.3733 18.9337 48.507 18.551 48.5738 18.5679C48.6084 18.5767 48.612 18.6898 48.5996 18.8977C48.5599 19.5557 48.435 19.8444 48.3888 20.2476C48.3616 20.4856 48.3175 20.8734 48.482 21.3118C48.482 21.3118 48.7083 21.9141 49.3377 22.2321C49.3766 22.2519 49.4295 22.2732 49.4603 22.2512C49.5294 22.2013 49.4339 21.9633 49.4001 21.8744C49.348 21.7378 49.2686 21.3875 49.11 20.6861C49.0975 20.6325 49.0564 20.2777 48.9741 19.5719C48.886 18.8154 48.8676 18.6436 48.875 18.3586C48.886 17.948 48.8911 17.7424 48.9683 17.5624C49.0116 17.4618 49.1563 17.1622 49.2562 16.803C49.273 16.7428 49.3024 16.6319 49.2547 16.5952C49.2099 16.5606 49.1078 16.5988 49.0424 16.6554L49.0432 16.6517Z" fill="#3E5910"/>
<path d="M37.2435 14.0283C37.1421 14.0357 37.0738 13.6633 36.9211 13.2689C36.6662 12.6123 36.288 12.1834 36.0309 11.8918C35.8569 11.6943 35.5366 11.3358 35.0174 11.0024C34.446 10.6359 33.8863 10.4611 33.4574 10.3744C33.2113 10.3458 32.8221 10.2694 32.4115 10.0388C31.8871 9.74354 31.3987 9.23604 31.4758 9.11338C31.4971 9.0796 31.5552 9.08694 31.6785 9.09722C32.4431 9.16039 32.4696 9.05683 32.7516 9.15084C33.1482 9.28304 33.3281 9.56581 33.381 9.51954C33.4185 9.48649 33.3215 9.3462 33.1665 9.02819C32.9455 8.57576 32.861 8.28786 32.8272 8.03227C32.7986 7.81707 32.7817 7.68193 32.8625 7.61436C33.005 7.49465 33.3568 7.66577 33.5668 7.8347C33.6682 7.91622 33.8702 8.10424 34.0354 8.55667C34.3123 9.31389 34.0457 9.60473 34.3534 10.0608C34.432 10.1776 34.4129 10.1042 34.9292 10.5661C35.4749 11.0538 35.7393 11.3535 35.793 11.3123C35.826 11.2866 35.7562 11.1471 35.696 11.0215C35.5087 10.6344 35.3538 10.2327 35.1826 9.83829C34.8859 9.15525 34.988 8.48102 35.0791 7.87803C35.1011 7.73188 35.2605 6.72641 35.5249 6.71686C35.6519 6.71245 35.7702 6.93793 35.9207 7.22657C36.0052 7.38889 36.1066 7.58205 36.1492 7.81928C36.2263 8.24967 36.0317 8.37746 35.8561 9.24779C35.7636 9.70682 35.7533 9.98959 35.7518 10.0623C35.7474 10.2173 35.7408 10.5125 35.804 10.8393C35.9788 11.7361 36.5942 12.414 36.664 12.3751C36.689 12.3611 36.6464 12.2583 36.6009 12.1055C36.404 11.435 36.4723 10.8562 36.5267 10.4038C36.5267 10.4038 36.6089 9.71123 37.0092 8.89231C37.0217 8.86734 37.0819 8.74469 37.1186 8.75423C37.1767 8.76892 37.0922 9.09135 37.1466 9.4527C37.195 9.77586 37.3111 9.84637 37.3875 10.0902C37.5813 10.7101 37.0636 11.0075 36.9857 12.1415C36.9637 12.4603 36.9527 12.6189 37.0129 12.818C37.1341 13.2175 37.4029 13.382 37.3735 13.7346C37.3625 13.8638 37.3111 14.0261 37.245 14.0313L37.2435 14.0283Z" fill="#3E5910"/>
<path d="M15.4935 11.1207C15.2424 11.366 15.0874 11.5907 15.0727 11.612C14.7224 12.1166 14.0827 11.9359 13.5649 12.5242C13.5208 12.5742 13.3835 12.7299 13.4246 12.793C13.4569 12.843 13.5869 12.8165 13.7522 12.7695C14.3346 12.6043 14.6423 12.3905 14.6871 12.442C14.7304 12.4919 14.4704 12.7115 14.2898 13.0266C13.888 13.725 13.996 14.6769 14.231 14.7452C14.3471 14.779 14.4895 14.5954 14.7451 14.2656C15.1733 13.714 15.376 13.2058 15.423 13.0846C15.5163 12.8444 15.5905 12.367 15.7388 11.413C15.7594 11.2801 15.7983 11.0164 15.7153 10.9804C15.672 10.962 15.6074 11.0098 15.4935 11.1207Z" fill="#3E5910"/>
<path d="M43.9669 25.6294C43.9941 25.5296 43.7363 25.459 43.7025 25.2424C43.6782 25.0926 43.7671 24.9031 43.9265 24.8348C44.1263 24.7496 44.3576 24.8869 44.4355 25.0382C44.5185 25.1983 44.4421 25.3966 44.4759 25.4047C44.5023 25.4113 44.5236 25.2864 44.6286 25.1998C44.7182 25.1256 44.8578 25.0881 44.9584 25.1219C45.2199 25.2093 45.2977 25.802 45.0957 25.9746C44.9591 26.0907 44.7278 25.9864 44.6646 26.1076C44.6308 26.1722 44.6896 26.2155 44.6918 26.3874C44.6933 26.4843 44.6947 26.6107 44.6183 26.6944C44.5104 26.8126 44.268 26.8237 44.1556 26.7172C44.0205 26.5894 44.1108 26.3264 44.0271 26.3C43.9713 26.2824 43.9324 26.3999 43.8024 26.4469C43.6562 26.4998 43.4285 26.4498 43.3345 26.2868C43.2567 26.1516 43.2868 25.9666 43.3801 25.8557C43.5593 25.6434 43.9316 25.7492 43.9647 25.6287L43.9669 25.6294Z" fill="#3E5910"/>
<path d="M48.621 29.6845C48.6827 29.7227 48.7569 29.6133 48.9559 29.589C49.0103 29.5824 49.1792 29.5611 49.3084 29.6551C49.4788 29.7785 49.5405 30.0694 49.434 30.217C49.2879 30.4197 48.856 30.3051 48.8303 30.4204C48.82 30.4674 48.8898 30.4939 48.9618 30.5938C49.0661 30.7392 49.141 30.9904 49.0455 31.1497C48.9199 31.3583 48.513 31.3884 48.3228 31.2276C48.0951 31.0352 48.1899 30.5805 48.0959 30.5703C48.0621 30.5666 48.0459 30.6253 47.9886 30.6959C47.8315 30.8897 47.498 31.0087 47.2417 30.8993C47.2057 30.8839 47.0669 30.8192 46.9905 30.6665C46.906 30.4968 46.9229 30.2706 47.0382 30.1347C47.2101 29.9313 47.5267 30.0157 47.5641 29.8777C47.5861 29.7961 47.4789 29.758 47.4209 29.567C47.4033 29.5097 47.3489 29.3305 47.4209 29.191C47.5465 28.9464 47.9798 28.9706 48.0665 28.9758C48.209 28.9838 48.4763 28.9993 48.5806 29.1726C48.6974 29.368 48.5277 29.628 48.6225 29.6867L48.621 29.6845Z" fill="#3E5910"/>
<path d="M33.6744 2.72517C33.7684 2.68918 33.7016 2.49455 33.8353 2.37631C33.9344 2.28891 34.0938 2.2867 34.2113 2.3315C34.3112 2.3697 34.4324 2.46371 34.4529 2.59077C34.4941 2.84709 34.0975 3.05421 34.1577 3.17245C34.1944 3.2437 34.3398 3.17025 34.5154 3.25324C34.696 3.33844 34.8885 3.57861 34.8194 3.80776C34.768 3.97962 34.5822 4.10888 34.4169 4.10301C34.2017 4.09493 34.0673 3.8577 33.9873 3.90617C33.941 3.93408 33.9851 4.01414 33.9425 4.12063C33.8749 4.28882 33.6296 4.41956 33.4232 4.36227C33.294 4.32628 33.2227 4.2286 33.164 4.14781C33.1221 4.09052 32.959 3.86651 33.0296 3.66454C33.0883 3.49635 33.2624 3.47725 33.2536 3.3781C33.2425 3.25765 32.9826 3.27234 32.9047 3.09166C32.8467 2.95652 32.9172 2.77658 33.0207 2.67082C33.0501 2.64144 33.1412 2.54817 33.2712 2.54523C33.4754 2.54082 33.5716 2.76336 33.6737 2.72444L33.6744 2.72517Z" fill="#3E5910"/>
<path d="M36.4118 18.9829C36.5278 19.013 36.425 19.3971 36.6622 19.6189C36.7034 19.6578 36.7988 19.732 36.923 19.7335C37.1448 19.7364 37.3636 19.5058 37.371 19.2958C37.3798 19.0328 37.0559 18.8294 37.1 18.7743C37.1271 18.7405 37.2322 18.8367 37.3813 18.8162C37.537 18.7949 37.6905 18.6531 37.736 18.4724C37.7632 18.3645 37.769 18.1684 37.6523 18.0766C37.451 17.9179 37.0596 18.2051 36.9332 18.056C36.8943 18.0097 36.9259 17.9752 36.9017 17.868C36.8554 17.6594 36.6659 17.4831 36.4639 17.4097C36.4052 17.3884 36.0335 17.2628 35.8279 17.4934C35.7074 17.6285 35.6781 17.8474 35.7552 17.9936C35.8286 18.1331 35.9784 18.1691 35.9638 18.2337C35.952 18.2866 35.847 18.2822 35.7133 18.3277C35.6634 18.3446 35.338 18.4548 35.2653 18.703C35.2109 18.8874 35.3072 19.1092 35.4636 19.2245C35.6788 19.3832 35.9711 19.3104 36.1305 19.2142C36.3038 19.1099 36.3413 18.9667 36.4118 18.9851V18.9829Z" fill="#3E5910"/>
<path d="M32.1538 14.2846C32.1355 14.3375 32.2794 14.3867 32.3051 14.5012C32.3308 14.6165 32.2346 14.7833 32.1215 14.8038C31.9357 14.8376 31.7594 14.4711 31.6456 14.5225C31.5971 14.5438 31.6228 14.6129 31.5589 14.6849C31.4767 14.7781 31.2923 14.8244 31.1476 14.7392C30.9816 14.6408 30.9479 14.4146 31.0176 14.2956C31.1138 14.1311 31.4142 14.1605 31.4179 14.0789C31.4194 14.0429 31.3606 14.0312 31.2879 13.971C31.166 13.8703 31.0433 13.6647 31.1043 13.484C31.1396 13.3805 31.2306 13.2997 31.3312 13.2674C31.5002 13.2137 31.6875 13.2989 31.7528 13.4187C31.8057 13.5149 31.7727 13.6214 31.8175 13.6353C31.8446 13.6434 31.8762 13.6111 31.9364 13.5487C32.0304 13.451 32.0341 13.412 32.0877 13.3753C32.1494 13.3335 32.239 13.321 32.3044 13.343C32.4814 13.4018 32.5446 13.7293 32.4777 13.9599C32.4586 14.0268 32.4153 14.1744 32.2941 14.2302C32.2265 14.2611 32.1656 14.2508 32.1538 14.2846Z" fill="#3E5910"/>
<path d="M20.1332 16.581C20.1677 16.5157 20.0047 16.4275 19.8938 16.1874C19.8475 16.0875 19.7094 15.7864 19.8585 15.5756C19.9694 15.4191 20.2074 15.356 20.3858 15.4206C20.6069 15.5007 20.6855 15.7555 20.7237 15.8774C20.7935 16.1029 20.7582 16.2902 20.8082 16.2998C20.839 16.3056 20.8713 16.2381 20.9279 16.1382C21.066 15.8951 21.157 15.7342 21.301 15.6314C21.3384 15.6042 21.514 15.4794 21.7233 15.519C21.9282 15.558 22.042 15.7306 22.1103 15.8356C22.161 15.9134 22.3601 16.2175 22.258 16.4687C22.1133 16.8249 21.4501 16.8543 21.4633 16.9262C21.4684 16.9564 21.5837 16.949 21.7872 16.9681C22.1228 17.0004 22.2903 17.0166 22.3924 17.1157C22.5495 17.2685 22.562 17.6063 22.3997 17.8259C22.2036 18.0911 21.8151 18.1006 21.5911 17.9875C21.3436 17.8634 21.2532 17.5696 21.1974 17.5939C21.1534 17.613 21.2385 17.7775 21.1835 17.967C21.1247 18.1689 20.9279 18.3217 20.7332 18.3753C20.4329 18.4568 20.0605 18.321 19.9944 18.108C19.9173 17.8561 20.2838 17.5454 20.2191 17.4822C20.1861 17.4499 20.0965 17.5388 19.9239 17.5733C19.8989 17.5784 19.4957 17.6534 19.3047 17.3978C19.174 17.2222 19.2276 17.0034 19.2342 16.9755C19.2379 16.9608 19.2974 16.7456 19.5016 16.6376C19.7814 16.4892 20.0869 16.6721 20.1347 16.581H20.1332Z" fill="#3E5910"/>
<path d="M21.8969 9.71295C21.8734 9.77979 22.0474 9.8356 22.1084 10.0207C22.1546 10.1617 22.126 10.3497 22.0114 10.4694C21.8543 10.6332 21.5663 10.6376 21.404 10.5223C21.1279 10.3255 21.2138 9.77758 21.1308 9.77391C21.0875 9.77171 21.0904 9.92374 20.981 10.0376C20.8128 10.2131 20.403 10.2748 20.1628 10.0376C20.0225 9.8995 19.9307 9.65052 20.0218 9.48307C20.1577 9.23335 20.6285 9.30092 20.6556 9.13126C20.6666 9.06369 20.5932 9.04607 20.5146 8.87641C20.4705 8.78093 20.3905 8.60833 20.4441 8.48054C20.5447 8.24111 21.0596 8.28444 21.0868 8.28664C21.1587 8.29325 21.5546 8.33071 21.6413 8.55912C21.7 8.71409 21.5862 8.87714 21.6413 8.91093C21.6927 8.94251 21.7771 8.79268 21.9402 8.7611C22.1282 8.72511 22.3794 8.85437 22.4771 9.07765C22.5468 9.23629 22.5505 9.46911 22.4242 9.58809C22.2531 9.74967 21.9284 9.61967 21.8961 9.71148L21.8969 9.71295Z" fill="#3E5910"/>
<path d="M16.8493 5.3238C16.8941 5.1938 16.5673 5.06233 16.5776 4.85669C16.5871 4.67013 16.8669 4.54968 16.9242 4.52471C17.2694 4.37562 17.7615 4.4476 17.8746 4.6907C17.9679 4.89121 17.7711 5.13872 17.8599 5.20335C17.937 5.25917 18.0781 5.06894 18.2969 5.09759C18.4556 5.11815 18.5834 5.24448 18.6436 5.36933C18.7464 5.58159 18.6906 5.8695 18.5378 5.95763C18.374 6.05238 18.1478 5.88786 18.1008 5.95763C18.0582 6.0208 18.2514 6.14125 18.2815 6.36452C18.3094 6.56796 18.1985 6.82869 18.0252 6.87717C17.8239 6.93372 17.5874 6.69282 17.4824 6.51508C17.3664 6.31825 17.3869 6.15667 17.3017 6.13831C17.1923 6.11407 17.1358 6.37407 16.925 6.44017C16.7068 6.50847 16.355 6.35864 16.2764 6.07808C16.2052 5.82323 16.3896 5.5647 16.5629 5.45967C16.7046 5.37374 16.8236 5.40018 16.8493 5.3238Z" fill="#3E5910"/>
</svg>
