<svg width="24" height="24" viewBox="0 0 24 24" fill="none" xmlns="http://www.w3.org/2000/svg">
<path d="M2.40039 4.20039C2.40039 3.20664 3.20664 2.40039 4.20039 2.40039H6.00039C6.66414 2.40039 7.20039 2.93664 7.20039 3.60039C7.20039 4.26414 6.66414 4.80039 6.00039 4.80039H4.80039V9.60039C4.80039 11.5879 6.41289 13.2004 8.40039 13.2004C10.3879 13.2004 12.0004 11.5879 12.0004 9.60039V4.80039H10.8004C10.1366 4.80039 9.60039 4.26414 9.60039 3.60039C9.60039 2.93664 10.1366 2.40039 10.8004 2.40039H12.6004C13.5941 2.40039 14.4004 3.20664 14.4004 4.20039V9.60039C14.4004 12.5029 12.3379 14.9254 9.60039 15.4804V16.2004C9.60039 18.5216 11.4791 20.4004 13.8004 20.4004C16.1216 20.4004 18.0004 18.5216 18.0004 16.2004V12.9941C16.6016 12.4991 15.6004 11.1679 15.6004 9.60039C15.6004 7.61289 17.2129 6.00039 19.2004 6.00039C21.1879 6.00039 22.8004 7.61289 22.8004 9.60039C22.8004 11.1679 21.7991 12.5029 20.4004 12.9941V16.2004C20.4004 19.8454 17.4454 22.8004 13.8004 22.8004C10.1554 22.8004 7.20039 19.8454 7.20039 16.2004V15.4804C4.46289 14.9254 2.40039 12.5029 2.40039 9.60039V4.20039ZM19.2004 10.8004C19.5186 10.8004 19.8239 10.674 20.0489 10.4489C20.274 10.2239 20.4004 9.91865 20.4004 9.60039C20.4004 9.28213 20.274 8.97691 20.0489 8.75186C19.8239 8.52682 19.5186 8.40039 19.2004 8.40039C18.8821 8.40039 18.5769 8.52682 18.3519 8.75186C18.1268 8.97691 18.0004 9.28213 18.0004 9.60039C18.0004 9.91865 18.1268 10.2239 18.3519 10.4489C18.5769 10.674 18.8821 10.8004 19.2004 10.8004Z" fill="black"/>
</svg>
