<svg width="1967" height="402" viewBox="0 0 1967 402" fill="none" xmlns="http://www.w3.org/2000/svg">
<path d="M102.61 42.8367C106.446 35.8169 110.63 31.3392 114.384 27.3733C123.145 18.1176 131.448 13.0573 139.509 8.2206C146.829 3.83108 150.583 1.61866 155.496 0.665439C158.026 0.17706 166.817 -1.39987 176.402 3.12498C178.468 4.10174 185.44 7.49686 189.93 14.899C193.09 20.1064 193.06 20.5242 196.079 31.4157C197.367 36.0582 198.473 38.859 199.233 42.719C200.115 47.1968 200.162 48.5795 200.115 52.1512C199.997 61.3421 202.375 63.6134 203.981 75.3462C204.834 81.5775 204.664 86.0023 204.334 94.8461C204.046 102.442 203.663 111.504 200.998 122.96C199.662 128.697 197.603 137.288 192.389 147.385C188.959 154.028 186.564 158.653 181.498 163.372C172.813 171.457 162.998 173.54 159.362 174.264C156.602 174.811 146.564 176.558 134.59 172.681C121.651 168.491 114.184 160.248 111.048 156.694C104.099 148.821 101.192 141.166 98.75 134.558C94.0369 121.801 93.5073 111.433 92.9542 100.648C92.0186 82.4777 94.4194 69.4268 95.2372 65.3315C96.7141 57.947 98.1557 51.0096 102.616 42.8425L102.61 42.8367Z" fill="#3E5910"/>
<path d="M230.331 51.5627C232.155 42.5659 233.991 36.4641 235.421 31.7686C238.48 21.701 240.357 17.9469 242.346 14.8048C244.164 11.9393 246.171 8.82658 249.978 6.03752C254.409 2.79539 258.716 1.85394 261.711 1.23023C263.476 0.865415 270.943 -0.546764 280.234 2.07754C284.665 3.33085 287.412 4.90778 292.82 8.01458C303.188 13.9693 310.078 20.0769 311.908 21.7304C316.562 25.9375 321.522 30.4153 326.33 37.7057C332.667 47.3261 334.985 56.1464 336.509 62.1658C338.863 71.445 339.157 78.4823 339.481 86.061C339.787 93.2926 340.222 105.431 337.08 120.701C335.497 128.391 333.991 135.423 329.584 143.884C327.259 148.344 323.723 154.987 316.574 161.418C307.501 169.58 298.051 172.492 294.52 173.434C290.655 174.464 282.699 176.494 272.608 174.564C269.437 173.957 259.669 171.963 250.978 163.96C246.33 159.683 244.035 155.57 240.516 149.256C239.398 147.256 235.191 139.53 231.89 127.909C229.325 118.877 228.607 112.063 227.789 104.296C227.036 97.1349 225.983 86.6671 227.083 73.0513C227.813 63.9722 229.213 57.076 230.337 51.5627H230.331Z" fill="#3E5910"/>
<path d="M350.022 147.161C353.305 142.407 356.836 138.253 363.891 129.944C366.215 127.202 374.965 117.017 384.691 111.056C386.127 110.174 388.516 108.814 391.864 108.185C396.965 107.226 401.008 108.585 401.908 108.903C403.332 109.409 406.298 110.668 410.516 115.122C413.876 118.67 416.53 122.654 420.078 130.185C422.461 135.24 424.885 140.43 427.251 148.355C429.092 154.51 433.382 170.638 432.511 191.868C431.934 205.902 429.357 215.975 428.21 220.082C426.368 226.643 425.05 231.227 421.755 236.581C416.218 245.578 409.116 250.244 402.626 254.516C390.675 262.377 379.931 265.19 372.976 266.949C363.738 269.285 357.112 270.88 348.586 269.103C344.891 268.332 336.348 266.549 331.852 259.541C329.546 255.946 329.228 252.41 328.981 249.262C327.498 230.209 326.756 220.683 327.068 215.552C327.774 203.748 328.316 194.757 331.852 183.036C336.865 166.396 344.709 154.857 350.022 147.173V147.161Z" fill="#3E5910"/>
<path d="M45.7923 110.227C50.4407 112.062 53.2769 114.551 57.8194 118.623C61.1262 121.583 64.3978 124.937 70.7585 132.698C76.7544 140.012 79.7494 143.666 83.2445 148.814C87.3339 154.834 92.7002 162.848 97.0897 174.234C100.503 183.089 101.85 190.168 102.762 195.116C104.851 206.414 103.05 204.737 104.804 231.203C105.263 238.147 105.763 243.907 103.445 251.174C102.444 254.304 101.056 258.5 97.5428 262.065C95.7717 263.866 90.9997 268.008 78.0253 268.873C61.1674 269.997 47.5105 264.448 41.4852 261.612C33.9418 258.058 19.973 251.48 10.3878 236.417C2.33837 223.772 1.60286 211.762 0.402505 192.162C-0.0741055 184.36 -0.733123 172.21 2.44428 156.752C4.18009 148.302 7.52813 136.646 14.9303 124.525C23.3798 110.686 29.3934 108.891 31.4999 108.408C37.6429 107.008 43.5564 109.338 45.7982 110.227H45.7923Z" fill="#3E5910"/>
<path d="M146.805 227.031C151.589 219.447 152.272 217.858 157.02 211.162C161.227 205.231 166.187 200.247 173.001 193.886C177.714 189.485 180.121 187.249 182.733 185.543C189.377 181.2 195.531 179.553 200.115 178.358C204.022 177.34 209.406 175.981 216.573 176.04C225.587 176.116 232.266 178.399 237.432 180.212C242.327 181.93 248.565 184.178 255.278 189.25C258.797 191.909 261.715 195.116 267.564 201.536C272.142 206.561 274.59 209.273 277.297 213.586C280.056 217.976 279.986 219.082 282.857 223.783C285.199 227.608 287.447 230.485 291.436 235.14C300.674 245.943 308.588 253.916 308.588 253.916C323.957 269.403 323.492 267.067 328.288 272.921C337.985 284.748 341.863 296.664 343.587 302.124C345.658 308.697 349.571 321.577 347.529 338.052C346.158 349.103 342.622 357.558 340.809 361.465C339.615 364.036 338.009 367.496 335.249 371.433C328.011 381.753 318.785 386.867 310.447 391.368C300.668 396.646 294.813 399.812 285.876 400.871C274.478 402.224 264.481 399.4 257.367 397.393C251.159 395.64 251.059 394.957 244.616 392.992C239.868 391.539 228.57 388.085 215.873 388.126C204.952 388.161 195.843 391.009 177.626 396.705C167.835 399.765 167.37 400.488 162.792 401.106C149.847 402.854 139.391 398.97 132.66 396.469C128.347 394.869 118.932 390.95 109.018 382.795C103.528 378.282 96.1139 372.18 90.7064 361.471C85.5696 351.297 84.9518 342.306 84.4457 335.045C84.0515 329.338 83.8044 317.446 88.1527 303.289C89.1295 300.118 92.7541 288.961 101.598 276.634C105.352 271.403 106.117 271.439 121.068 256.005C135.302 241.312 142.51 233.828 146.799 227.031H146.805Z" fill="#3E5910"/>
<path d="M50.5104 239.159C49.8161 239.023 51.6519 232.151 50.5104 223.454C50.2986 221.848 49.8808 219.894 49.0335 215.993C48.0273 211.35 47.5272 209.026 46.6799 206.355C44.391 199.182 41.902 196.693 42.5551 196.152C43.5672 195.31 51.0929 200.035 52.7581 207.402C52.9935 208.455 53.0112 209.726 53.0347 212.221C53.1288 221.495 52.0344 226.761 52.6169 226.896C53.0229 226.99 53.8702 224.484 56.7417 216.411C59.3836 208.979 61.2136 203.936 64.7793 199.153C65.7678 197.829 66.4622 197.087 67.2271 196.287C68.9335 194.492 73.4054 189.791 75.3354 190.768C76.6181 191.415 76.6004 194.498 76.0356 196.711C74.4704 202.842 67.792 206.096 68.2804 206.843C68.4333 207.084 69.1277 206.778 70.3045 206.496C73.9408 205.619 78.3245 205.878 78.6893 207.055C78.9482 207.891 77.1535 209.12 76.8005 209.362C74.6822 210.815 72.3992 210.85 71.4872 210.897C66.5504 211.174 61.7726 214.192 59.2601 216.84C57.2418 218.964 56.4063 221.153 54.7882 225.366C53.5937 228.479 52.4757 232.498 52.97 232.704C53.3112 232.845 54.2645 231.144 54.9294 230.121C60.2898 221.8 72.4639 217.005 73.935 218.8C74.0879 218.988 74.1115 219.229 74.0762 219.635C73.4878 225.896 61.5313 232.28 56.7475 232.492C56.3769 232.51 55.5707 232.51 54.7234 232.98C53.8879 233.445 53.376 234.157 51.7873 237.034C50.734 238.941 50.6516 239.188 50.5163 239.164L50.5104 239.159Z" fill="white"/>
<path d="M36.4604 144.584C36.8311 143.584 34.348 142.671 34.0009 140.259C33.7831 138.747 34.4127 136.729 35.9544 136.017C37.3901 135.358 39.1847 136.034 40.1968 137.035C42.2327 139.047 41.3207 142.595 42.062 142.719C42.6152 142.807 42.9329 140.794 44.7746 138.647C45.7396 137.523 47.0459 135.999 48.8464 135.934C51.1294 135.846 53.6125 138.117 53.7655 140.6C53.9126 143.036 51.759 144.778 51.0529 145.349C48.9405 147.055 46.4986 147.255 46.5575 147.555C46.6046 147.797 48.1227 147.391 49.782 147.726C52.3474 148.244 55.666 150.627 55.2954 153.239C55.0011 155.305 52.4592 157.14 50.3763 156.887C47.3754 156.523 45.8337 151.88 45.0335 152.221C44.7099 152.357 45.2041 153.375 45.0335 155.022C44.9806 155.552 44.7746 157.452 43.5919 158.582C41.7208 160.365 37.7019 159.959 36.5545 158.158C35.2542 156.117 37.7431 152.457 36.8958 151.968C36.5899 151.792 36.225 152.257 35.3718 152.563C33.7008 153.157 31.0294 152.827 30.0291 151.121C29.1818 149.685 29.6819 147.526 30.8764 146.373C32.8064 144.513 36.0485 145.743 36.4722 144.59L36.4604 144.584Z" fill="white"/>
<path d="M245.071 256.547C246.277 256.518 246.471 259.218 248.843 261.184C249.631 261.837 250.308 262.113 251.473 262.596C253.75 263.532 256.033 263.973 260.929 264.249C265.018 264.479 267.06 264.597 268.431 264.367C271.379 263.873 271.667 263.09 276.398 261.254C279.558 260.03 283.053 258.701 287.495 258.412C290.584 258.212 294.733 258.483 294.886 259.46C294.956 259.925 294.097 260.413 292.803 261.096C287.801 263.732 285.3 265.05 282.606 265.803C281.841 266.015 278.381 266.956 273.697 267.197C269.719 267.403 266.642 267.015 266.595 267.362C266.554 267.65 268.731 267.733 271.232 269.045C273.603 270.286 274.968 271.963 277.486 275.047C279.769 277.842 280.164 278.907 282.264 280.619C283.876 281.931 285.018 282.419 285.989 282.672C287.925 283.178 289.543 282.814 290.32 282.661C290.708 282.584 293.932 282.472 300.381 282.243C309.319 281.931 318.422 286.132 318.204 287.633C318.145 288.045 317.204 288.268 315.321 288.71C312.803 289.304 310.743 289.369 308.237 289.357C304.447 289.345 302.553 289.392 300.923 289.139C300.24 289.033 299.287 288.857 294.974 287.556C288.554 285.614 286.695 284.802 286.56 285.091C286.383 285.467 289.313 287.468 292.52 288.739C292.909 288.892 294.474 289.498 296.739 289.975C299.693 290.598 301.999 290.61 302.688 290.622C307.936 290.698 314.274 291.952 316.445 292.458C325.918 294.67 332.956 300.707 332.579 301.496C332.432 301.807 331.161 301.19 328.413 301.007C325.083 300.79 322.653 301.419 321.535 301.649C316.792 302.614 308.407 301.825 302.147 298.071C298.475 295.87 291.997 290.528 291.62 290.222C290.926 289.651 288.99 288.033 288.819 288.209C288.701 288.333 289.519 289.268 290.72 290.781C292.461 292.975 293.209 294.141 293.938 295.117C296.31 298.271 299.063 300.148 301.582 302.49C307.619 308.103 311.355 315.529 310.437 316.359C310.049 316.712 308.796 315.918 306.813 314.652C304.012 312.875 302.229 310.957 301.529 310.169C299.393 307.768 299.658 307.297 296.057 301.966C294.021 298.954 293.826 298.954 292.061 296.212C290.161 293.258 289.207 291.787 288.66 290.634C287.595 288.392 287.383 287.244 286.048 286.109C285.5 285.65 284.889 285.291 283.753 284.243C282.823 283.39 282.335 282.802 282.229 282.878C282.058 283.002 283.029 284.626 283.429 285.338C285.171 288.398 285.059 289.674 287.372 296.577C288.478 299.883 289.037 301.537 289.719 302.949C291.673 306.968 293.844 309.38 294.427 310.01C295.45 311.116 296.71 312.116 299.193 314.064C302.994 317.053 306.171 319.254 308.025 320.501C311.661 322.955 313.479 324.179 315.286 325.103C320.24 327.633 323.706 328.192 323.618 329.198C323.535 330.133 320.446 330.551 319.993 330.61C313.997 331.422 308.966 328.456 307.442 327.48C304.182 325.397 302.2 322.808 298.234 317.63C293.944 312.028 291.802 309.233 291.09 307.927C290.902 307.586 290.225 306.315 289.978 306.409C289.708 306.509 290.261 308.168 290.59 310.257C291.314 314.835 290.119 316.276 291.137 319.948C291.514 321.296 291.82 321.643 292.479 323.184C294.709 328.404 293.815 330.663 295.492 340.107C296.298 344.667 297.004 348.062 297.004 348.068C297.975 352.728 298.493 354.511 297.975 354.764C297.298 355.094 295.174 352.675 293.85 350.075C292.191 346.809 292.126 343.902 292.032 340.654C291.955 338.018 291.549 324.644 291.143 324.632C290.979 324.632 291.126 326.732 290.249 329.869C289.519 332.487 288.772 333.311 288.431 335.753C288.195 337.412 288.348 338.418 288.372 339.401C288.495 344.679 284.977 349.227 284.177 350.269C280.952 354.441 278.704 353.687 275.739 358.424C275.068 359.495 274.356 360.854 273.874 360.719C273.209 360.531 273.379 357.559 273.768 355.464C275.074 348.339 280.022 343.826 280.022 343.826C282.711 341.372 285.524 340.231 286.813 336.93C287.077 336.253 287.483 334.947 287.513 334.847C287.866 333.723 288.448 331.71 288.919 329.121C289.102 328.109 289.413 326.379 289.572 324.09C289.637 323.149 289.649 322.096 289.672 319.995C289.702 317.241 289.719 315.865 289.602 315.853C289.202 315.8 288.625 323.773 284.741 332.116C284.177 333.323 283.806 333.988 283.494 334.499C280.375 339.619 275.392 342.89 274.709 342.278C274.456 342.055 274.756 341.278 274.909 340.966C275.315 340.142 276.068 339.777 276.31 339.636C277.987 338.642 277.792 334.811 277.804 333.293C277.834 329.445 279.31 326.432 280.576 323.843C283.465 317.936 287.013 318.018 288.213 312.799C288.76 310.41 288.531 308.162 288.419 307.086C288.201 304.961 287.76 303.961 286.418 299.536C285.024 294.935 285.371 295.606 284.412 292.622C283.729 290.504 282.8 287.639 281.235 284.085C279.958 281.184 279.316 279.73 278.122 278.13C277.098 276.759 275.962 275.682 273.697 273.534C271.591 271.534 270.643 270.863 269.937 270.416C268.413 269.445 265.906 268.156 265.506 268.657C265.195 269.045 266.283 270.357 267.024 271.299C267.024 271.299 269.431 274.352 273.821 282.184C275.239 284.708 276.839 287.562 277.898 291.716C278.763 295.105 278.828 297.653 278.957 302.472C279.028 305.161 279.099 308.151 278.445 308.28C277.987 308.368 277.451 306.974 275.974 303.89C273.479 298.665 273.332 299.154 272.438 296.894C271.443 294.388 271.067 292.111 270.32 287.568C269.425 282.149 269.772 281.607 268.837 278.883C268.372 277.536 267.566 275.965 265.942 272.811C263.847 268.733 263.194 268.033 262.464 267.486C261.741 266.944 260.27 266.503 257.333 265.614C255.239 264.985 254.127 264.738 251.426 263.885C249.19 263.178 248.584 262.914 247.895 262.484C246.666 261.713 246.054 260.96 244.836 259.477C244.071 258.542 243.806 258.048 243.929 257.565C244.047 257.112 244.524 256.6 245.042 256.588L245.071 256.547Z" fill="white"/>
<path d="M152.896 262.578C153.749 263.584 152.743 265.185 152.437 267.374C152.348 268.015 152.342 268.539 153.431 273.576C154.249 277.377 154.543 278.436 154.996 280.572C155.573 283.296 156.049 286.085 156.255 287.744C157.244 295.676 155.49 304.908 153.349 305.091C153.125 305.108 152.654 305.05 151.477 303.32C147.682 297.747 147.888 291.599 147.912 291.028C148.124 286.579 149.424 286.797 150.689 279.207C150.913 277.877 152.007 271.31 150.983 271.01C150.548 270.881 150.059 271.975 148.9 273.576C145.546 278.236 143.093 278.236 140.645 282.055C139.862 283.278 139.392 284.708 138.45 287.568C137.45 290.61 136.344 293.976 136.102 298.212C135.855 302.514 135.561 307.697 138.962 311.228C140.898 313.24 143.328 313.976 144.499 314.329C147.912 315.364 150.671 314.864 152.695 314.623C161.869 313.529 170.065 316.035 174.743 318.348C177.838 319.877 181.445 322.343 181.057 323.461C180.915 323.867 180.274 324.026 177.226 324.285C173.572 324.596 171.742 324.749 170.271 324.697C166.105 324.538 161.474 322.872 152.207 319.536C147.323 317.777 144.875 316.9 143.516 316.141C141.445 314.988 139.874 313.823 139.339 314.293C138.827 314.741 139.645 316.323 140.674 318.642C143.098 324.079 142.104 323.184 144.734 328.992C147.464 335.005 148.565 336.029 149.6 336.706C151.377 337.859 153.131 338.071 154.508 338.224C159.003 338.724 160.963 336.894 166.029 336.141C169.359 335.647 171.872 335.947 174.531 336.259C180.539 336.965 187.694 339.201 187.559 340.901C187.529 341.231 187.223 341.654 184.422 342.549C178.344 344.491 173.149 344.62 170.836 344.614C167.594 344.614 164.74 344.608 160.974 343.761C156.414 342.737 153.507 341.148 153.06 341.854C152.707 342.413 154.19 343.943 156.102 345.909C158.409 348.286 159.568 349.469 161.198 350.139C163.081 350.91 164.293 350.581 168.441 350.233C170.083 350.098 174.208 349.751 177.509 349.845C182.704 349.992 188.894 351.298 188.93 352.711C188.953 353.646 186.276 354.47 184.828 354.917C180.786 356.165 177.815 355.629 177.685 356.276C177.591 356.747 179.109 357.206 180.863 358.183C185.264 360.625 187.559 364.291 189.5 367.397C190.324 368.721 192.242 371.781 191.524 372.469C191.083 372.893 189.824 372.24 189.277 371.957C180.939 367.686 180.445 369.121 174.467 365.097C171.495 363.096 168.677 361.201 165.864 357.859C164.269 355.965 163.763 354.9 161.604 352.758C159.592 350.763 158.791 350.451 156.626 348.08C155.302 346.632 154.537 345.585 154.314 345.72C154.037 345.885 154.908 347.644 155.596 349.445C156.708 352.346 157.061 354.829 157.762 359.783C158.268 363.337 158.568 365.456 158.597 368.421C158.638 372.075 158.297 378.518 156.985 378.671C156.602 378.718 156.226 378.212 154.914 375.623C152.819 371.493 151.772 369.427 151.248 367.686C150.306 364.544 150.359 361.766 150.459 356.206C150.601 348.833 151.401 348.627 150.707 345.467C149.865 341.619 148.741 342.219 146.764 336.235C145.935 333.734 144.428 331.51 143.446 329.063C143.375 328.886 143.14 328.298 142.957 328.327C142.693 328.368 142.687 329.657 142.692 330.163C142.704 335.835 142.71 338.665 142.981 341.99C143.069 343.043 143.634 351.028 139.539 358.295C139.209 358.883 137.303 362.184 133.607 364.72C133.007 365.132 130.177 367.074 129.383 366.35C128.936 365.944 129.306 364.861 129.495 364.338C130.713 360.901 131.319 359.189 134.102 354.858C135.102 353.305 136.085 350.557 138.044 345.067C140.198 339.036 141.274 336.023 141.522 332.852C141.71 330.428 142.057 326.038 140.209 321.307C139.48 319.442 138.762 318.418 137.885 315.547C136.803 312.005 136.379 309.521 136.379 309.521C136.079 307.78 135.979 306.503 135.726 306.503C135.426 306.503 135.167 308.321 135.055 309.115C134.72 311.463 134.773 313.117 134.773 313.117C134.902 317.03 135.267 322.578 135.355 324.067C135.508 326.627 135.514 329.339 135.526 334.776C135.532 338.53 135.479 339.742 135.196 341.348C134.608 344.691 133.125 349.11 131.936 349.004C130.765 348.898 130.283 344.385 130.142 343.037C129.93 341.025 129.836 338.159 130.848 332.352C131.742 327.215 132.236 327.015 132.89 322.549C133.472 318.548 133.79 313.84 133.313 313.758C133.137 313.729 132.884 314.341 131.948 317.212C130.095 322.931 129.818 324.461 129 326.574C127.647 330.063 125.858 332.434 124.946 333.617C123.787 335.129 120.827 338.995 115.732 341.713C112.69 343.337 107.482 345.297 106.129 348.145C106.058 348.292 105.735 349.004 105.646 348.968C105.458 348.904 106.417 345.691 106.776 344.573C107.576 342.06 109.565 335.823 114.625 330.692C117.314 327.968 117.838 328.621 122.039 324.579C124.528 322.184 124.234 322.06 126.941 319.519C129.577 317.047 130.683 316.388 131.713 314.429C132.896 312.181 133.231 309.627 132.907 309.504C132.725 309.433 132.337 310.145 131.654 311.216C131.654 311.216 131.377 311.657 128 316.188C124.099 321.425 116.826 326.05 114.649 327.433C112.319 328.915 109.989 330.375 109.477 329.839C108.877 329.21 111.136 326.162 112.431 324.42C117.615 317.436 121.045 312.817 126.882 310.469C128.682 309.745 130.689 309.251 132.184 307.28C133.507 305.538 134.161 303.014 134.372 302.202C134.737 300.801 134.849 299.73 134.884 299.413C135.637 292.817 139.98 283.855 139.009 283.355C138.697 283.196 138.009 283.985 137.662 284.367C132.678 289.833 124.587 291.557 120.727 292.381C116.302 293.323 111.201 293.534 111.036 292.811C110.971 292.534 111.63 292.169 112.001 291.969C122.934 286.009 129 283.973 129 283.973C134.355 282.178 134.702 282.237 136.408 281.325C139.127 279.872 141.239 278.118 144.087 275.759C146.588 273.682 147.841 272.646 148.341 271.893C151.242 267.521 149.789 262.378 151.501 261.972C152.036 261.849 152.601 262.249 152.866 262.561L152.896 262.578Z" fill="white"/>
<path d="M201.739 278.165C201.416 278.818 203.628 279.872 204.376 282.361C204.54 282.902 204.57 283.314 204.611 283.761C204.805 286.079 204.005 287.933 203.781 288.474C203.34 289.533 200.71 295.841 201.028 300.937C201.304 305.497 203.975 309.657 205.223 309.445C205.699 309.363 205.905 308.663 206.659 305.85C207.894 301.243 208.512 298.936 208.577 298.536C209.724 291.075 205.776 284.597 206.541 284.273C206.782 284.173 207.171 284.808 208.818 286.909C211.519 290.351 211.837 290.387 212.896 291.946C213.596 292.981 215.09 295.182 215.773 297.936C216.85 302.29 215.461 306.215 214.573 308.721C213.696 311.199 212.537 313.252 211.454 317.589C211.013 319.354 210.83 320.513 211.213 320.707C211.907 321.06 214.096 318.036 214.331 317.712C216.767 314.347 217.232 311.752 217.809 311.84C218.444 311.934 217.856 315.094 218.768 318.554C220.174 323.885 224.758 328.515 226.676 327.78C228.689 327.015 227.859 320.354 227.635 318.554C226.853 312.269 224.317 307.592 222.363 304.049C219.857 299.519 216.52 294.935 215.649 293.74C213.319 290.54 211.413 288.257 211.695 287.986C211.919 287.774 213.308 288.963 216.25 291.34C224.04 297.648 225.758 298.601 227.159 299.248C229.312 300.248 231.842 301.384 235.067 300.925C237.385 300.595 240.51 299.383 240.463 298.171C240.404 296.612 235.161 296.641 226.8 293.499C221.492 291.505 217.574 289.227 215.055 287.745C209.601 284.544 206.7 283.167 205.705 281.39C205.123 280.354 203.999 277.859 202.487 277.865C202.41 277.865 201.887 277.865 201.745 278.154L201.739 278.165Z" fill="white"/>
<path d="M251.364 226.933C249.711 228.127 246.668 226.327 243.273 225.632C241.437 225.256 239.555 225.45 235.783 225.833C230.317 226.391 224.974 226.933 219.608 230.028C217.089 231.481 215.194 233.193 211.417 236.618C207.486 240.184 206.969 241.284 204.227 243.008C200.172 245.556 195.018 247.086 194.241 245.903C194.118 245.709 193.947 245.209 195.242 243.308C199.096 237.618 204.944 235.659 204.627 234.723C204.48 234.282 203.12 234.494 201.532 234.523C195.571 234.635 189.369 232.152 189.352 230.328C189.346 229.557 190.446 228.992 191.746 228.333C196.177 226.074 200.808 226.886 202.032 227.133C203.75 227.486 205.909 228.233 210.222 229.728C211.305 230.104 212.082 230.387 213.217 230.428C215.63 230.51 217.142 229.404 219.107 228.433C224.109 225.956 228.345 226.18 228.292 225.738C228.251 225.385 225.586 225.515 223.668 225.485C222.879 225.474 212.017 225.185 203.05 218.772C197.536 214.829 193.406 209.039 194.235 207.986C194.441 207.727 194.889 207.827 196.677 208.121C201.779 208.963 201.914 208.751 203.185 209.069C206.563 209.916 208.769 212.17 212.953 216.459C216.006 219.589 216.601 220.943 219.26 222.361C219.684 222.584 221.196 223.367 224.621 224.056C231.37 225.415 238.39 224.991 238.454 224.191C238.484 223.879 237.436 223.602 236.148 223.173C236.148 223.173 230.028 221.125 223.467 216.253C218.348 212.452 214.677 207.445 215.259 206.756C215.565 206.397 216.777 207.504 220.343 208.657C223.55 209.692 224.468 209.416 226.515 210.487C227.516 211.011 228.463 211.858 230.311 213.541C233.182 216.147 233.959 217.23 237.024 220.048C239.666 222.479 240.42 222.89 240.82 223.102C241.673 223.538 243.697 224.579 246.38 224.662C246.663 224.673 248.675 224.72 250.858 225.203C251.276 225.297 251.988 225.468 252.082 225.88C252.176 226.327 251.493 226.821 251.358 226.921L251.364 226.933Z" fill="white"/>
<path d="M227.917 352.821C228.141 352.492 227.258 351.798 226.617 350.656C226.434 350.333 224.951 347.602 226.181 345.337C226.864 344.078 228.382 342.966 229.77 343.107C232.971 343.442 234.266 349.726 233.542 350.962C233.489 351.056 233.236 351.439 233.354 351.58C233.466 351.715 233.907 351.615 234.16 351.392C234.666 350.95 234.442 350.003 234.407 349.538C234.266 347.685 236.39 344.86 239.173 344.525C241.527 344.243 244.139 345.761 244.804 348.114C245.716 351.368 242.268 353.945 241.956 354.175C240.544 355.234 239.208 355.493 239.208 355.493C238.773 355.581 238.373 355.605 238.373 355.658C238.373 355.822 241.786 355.328 244.945 356.964C245.922 357.47 246.764 357.905 247.058 358.782C247.805 360.983 244.716 364.743 242.298 364.531C239.891 364.325 237.643 360.135 236.714 360.365C236.631 360.383 236.384 360.447 236.319 360.63C236.231 360.871 236.519 361.183 236.584 361.259C237.155 361.942 237.102 364.666 235.36 366.284C233.789 367.744 231.724 367.473 231.23 367.408C229.464 367.179 227.187 366.008 227.064 364.531C226.964 363.325 228.358 362.448 228.488 360.3C228.499 360.135 228.529 359.559 228.358 359.506C228.135 359.441 227.882 360.347 227.334 360.83C225.981 362.018 222.045 361.289 221.086 358.912C220.615 357.735 221.033 356.54 221.186 356.105C221.733 354.546 222.945 353.769 223.333 353.528C223.61 353.357 224.504 352.816 225.746 352.733C227.005 352.651 227.729 353.098 227.917 352.81V352.821Z" fill="white"/>
<path d="M179.325 267.567C179.702 267.55 179.655 269.032 180.638 269.709C181.379 270.215 182.485 270.121 183.262 269.662C183.933 269.262 184.698 268.397 184.527 267.62C184.303 266.608 182.632 266.296 182.726 265.92C182.785 265.678 183.468 265.826 184.233 265.531C185.457 265.061 186.016 263.807 186.127 263.537C186.681 262.213 186.557 260.3 185.304 259.259C184.692 258.753 183.591 258.259 182.679 258.629C181.608 259.059 181.55 260.377 180.879 260.377C180.285 260.377 180.208 259.33 179.178 258.482C178.319 257.776 176.778 257.199 175.824 257.8C174.73 258.494 174.653 260.589 175.389 261.883C176.23 263.372 178.09 263.731 177.966 264.166C177.878 264.478 176.96 264.178 175.971 264.702C174.995 265.214 174.071 266.467 174.365 267.473C174.577 268.209 175.383 268.515 176.989 269.127C177.76 269.421 178.007 269.403 178.207 269.321C179.008 268.991 178.955 267.585 179.325 267.573V267.567Z" fill="white"/>
<path d="M392.914 133.411C391.531 134.611 392.573 136.524 391.431 138.206C391.249 138.471 390.755 139.118 388.289 139.966C384.935 141.119 383.964 140.572 381.005 141.307C379.822 141.601 377.857 142.578 373.926 144.532C371.625 145.673 370.713 146.209 369.807 147.25C368.672 148.551 367.448 150.745 368.171 151.71C368.577 152.258 369.478 152.234 370.213 152.187C375.45 151.822 379.916 149.286 380.481 148.957C383.617 147.138 385.953 145.173 386.265 144.914C388.636 142.902 390.172 141.095 390.49 141.337C390.719 141.507 390.137 142.555 389.442 144.002C387.212 148.674 387.671 149.51 386.236 151.975C384.464 155.005 382.046 156.682 381.258 157.218C377.633 159.672 373.802 160.113 372.667 160.23C367.895 160.725 366.553 160.937 363.864 161.36C363.358 161.443 362.223 161.631 362.111 162.172C361.993 162.761 363.164 163.455 363.505 163.655C364.029 163.961 365.812 164.92 369.178 164.632C371.178 164.461 372.326 163.967 372.443 164.238C372.567 164.526 371.314 165.267 369.784 166.379C369.601 166.515 366.742 168.604 365.347 170.157C362.217 173.634 361.981 179.324 363.158 179.889C363.529 180.066 363.858 179.648 365.518 178.748C367.524 177.653 368.913 177.247 369.648 176.941C374.25 175.023 379.987 166.056 380.74 164.867C384.029 159.666 386.147 154.864 386.147 154.864C387.548 151.693 388.619 148.627 389.154 148.762C389.431 148.833 389.46 149.739 389.36 151.404C389.042 156.677 388.042 158.989 387.671 162.219C387.454 164.126 387.101 167.233 388.419 170.745C388.419 170.745 390.231 175.57 395.274 178.118C395.585 178.277 396.009 178.448 396.256 178.271C396.809 177.871 396.044 175.965 395.774 175.253C395.356 174.158 394.72 171.351 393.449 165.732C393.349 165.303 393.02 162.461 392.361 156.806C391.655 150.745 391.508 149.368 391.567 147.085C391.655 143.796 391.696 142.149 392.314 140.707C392.661 139.901 393.82 137.5 394.62 134.623C394.756 134.14 394.991 133.252 394.609 132.958C394.25 132.681 393.432 132.987 392.908 133.44L392.914 133.411Z" fill="white"/>
<path d="M298.381 112.386C297.569 112.445 297.021 109.462 295.798 106.302C293.756 101.042 290.725 97.6053 288.666 95.2693C287.272 93.6865 284.706 90.8151 280.546 88.1437C275.968 85.2075 271.485 83.8071 268.048 83.1128C266.077 82.8833 262.959 82.2714 259.669 80.4238C255.468 78.0584 251.555 73.9925 252.173 73.0098C252.344 72.7392 252.808 72.798 253.797 72.8804C259.922 73.3864 260.134 72.5568 262.394 73.3099C265.571 74.3691 267.013 76.6344 267.436 76.2637C267.736 75.999 266.96 74.8751 265.718 72.3273C263.947 68.7027 263.27 66.3961 263 64.3485C262.77 62.6244 262.635 61.5418 263.282 61.0004C264.424 60.0413 267.242 61.4123 268.925 62.7657C269.737 63.4188 271.355 64.9251 272.679 68.5497C274.897 74.6162 272.761 76.9463 275.227 80.6003C275.856 81.5359 275.703 80.9475 279.84 84.6486C284.212 88.5556 286.33 90.9563 286.76 90.6268C287.024 90.4208 286.465 89.3029 285.983 88.2967C284.482 85.1958 283.241 81.9772 281.87 78.8174C279.493 73.3452 280.311 67.9436 281.04 63.1128C281.217 61.9419 282.494 53.8866 284.612 53.8101C285.63 53.7748 286.577 55.5812 287.783 57.8936C288.46 59.194 289.272 60.7415 289.613 62.6421C290.231 66.0902 288.672 67.114 287.266 74.0866C286.524 77.7642 286.442 80.0296 286.43 80.6121C286.395 81.8536 286.342 84.219 286.848 86.8374C288.248 94.0219 293.179 99.4529 293.738 99.1411C293.938 99.0293 293.597 98.2055 293.232 96.9816C291.655 91.6094 292.202 86.9728 292.638 83.3482C292.638 83.3482 293.297 77.7995 296.504 71.2387C296.604 71.0387 297.086 70.056 297.38 70.1325C297.845 70.2502 297.169 72.8333 297.604 75.7283C297.992 78.3173 298.922 78.8822 299.534 80.8357C301.087 85.8018 296.939 88.1849 296.315 97.2699C296.139 99.8236 296.051 101.095 296.533 102.689C297.504 105.89 299.658 107.208 299.422 110.032C299.334 111.068 298.922 112.368 298.392 112.41L298.381 112.386Z" fill="white"/>
<path d="M124.127 89.097C122.114 91.0622 120.873 92.8628 120.755 93.0334C117.948 97.0758 112.823 95.6283 108.675 100.341C108.322 100.742 107.222 101.989 107.551 102.495C107.81 102.895 108.851 102.683 110.175 102.307C114.841 100.983 117.307 99.2705 117.666 99.6824C118.013 100.083 115.93 101.842 114.483 104.366C111.264 109.962 112.129 117.588 114.012 118.135C114.941 118.406 116.083 116.935 118.131 114.293C121.561 109.874 123.185 105.802 123.562 104.831C124.309 102.907 124.903 99.0822 126.092 91.4388C126.257 90.3738 126.568 88.2614 125.904 87.9731C125.556 87.826 125.039 88.2085 124.127 89.097Z" fill="white"/>
<path d="M352.242 205.331C352.46 204.531 350.394 203.966 350.124 202.23C349.929 201.03 350.641 199.512 351.918 198.965C353.519 198.282 355.372 199.382 355.996 200.594C356.661 201.877 356.049 203.466 356.32 203.531C356.531 203.584 356.702 202.583 357.543 201.889C358.261 201.295 359.379 200.995 360.185 201.265C362.28 201.965 362.904 206.714 361.286 208.097C360.191 209.026 358.338 208.191 357.832 209.162C357.561 209.679 358.032 210.027 358.049 211.403C358.061 212.18 358.073 213.192 357.461 213.863C356.596 214.81 354.654 214.899 353.754 214.045C352.671 213.022 353.395 210.915 352.724 210.703C352.277 210.562 351.965 211.503 350.924 211.88C349.753 212.304 347.929 211.904 347.176 210.597C346.552 209.515 346.793 208.032 347.541 207.143C348.976 205.443 351.959 206.29 352.224 205.325L352.242 205.331Z" fill="white"/>
<path d="M389.53 237.823C390.025 238.129 390.619 237.252 392.213 237.058C392.649 237.005 394.002 236.835 395.038 237.588C396.403 238.576 396.897 240.906 396.044 242.089C394.873 243.713 391.413 242.795 391.207 243.719C391.125 244.096 391.684 244.307 392.26 245.108C393.096 246.273 393.696 248.285 392.931 249.562C391.925 251.233 388.665 251.474 387.141 250.186C385.317 248.644 386.076 245.002 385.323 244.919C385.052 244.89 384.923 245.361 384.464 245.926C383.205 247.479 380.533 248.432 378.48 247.555C378.192 247.432 377.08 246.914 376.468 245.69C375.791 244.331 375.926 242.519 376.85 241.43C378.227 239.8 380.763 240.477 381.063 239.371C381.24 238.717 380.381 238.412 379.916 236.882C379.774 236.423 379.339 234.987 379.916 233.869C380.922 231.91 384.393 232.104 385.088 232.145C386.229 232.21 388.371 232.333 389.207 233.722C390.142 235.287 388.783 237.37 389.542 237.841L389.53 237.823Z" fill="white"/>
<path d="M269.79 21.8365C270.543 21.5482 270.008 19.9889 271.079 19.0416C271.873 18.3414 273.15 18.3237 274.091 18.6826C274.892 18.9886 275.862 19.7418 276.027 20.7597C276.357 22.8133 273.179 24.4726 273.662 25.4199C273.956 25.9907 275.121 25.4023 276.527 26.0672C277.975 26.7497 279.516 28.6738 278.963 30.5096C278.551 31.8865 277.063 32.9221 275.739 32.875C274.015 32.8103 272.938 30.9098 272.297 31.2981C271.926 31.5217 272.279 32.1631 271.938 33.0163C271.396 34.3637 269.431 35.4111 267.778 34.9521C266.742 34.6638 266.171 33.8812 265.701 33.234C265.365 32.775 264.059 30.9804 264.624 29.3622C265.095 28.0148 266.489 27.8618 266.419 27.0675C266.33 26.1025 264.247 26.2201 263.624 24.7727C263.159 23.69 263.724 22.2484 264.553 21.4011C264.789 21.1657 265.518 20.4184 266.56 20.3949C268.195 20.3596 268.966 22.1425 269.784 21.8306L269.79 21.8365Z" fill="white"/>
<path d="M291.716 152.08C292.645 152.321 291.822 155.399 293.722 157.176C294.052 157.487 294.817 158.082 295.811 158.093C297.588 158.117 299.342 156.269 299.4 154.587C299.471 152.48 296.876 150.85 297.229 150.409C297.447 150.138 298.288 150.909 299.483 150.744C300.73 150.574 301.96 149.438 302.325 147.991C302.542 147.126 302.59 145.554 301.654 144.819C300.042 143.548 296.906 145.849 295.893 144.654C295.582 144.284 295.835 144.007 295.64 143.148C295.27 141.477 293.752 140.065 292.134 139.476C291.663 139.306 288.685 138.299 287.038 140.147C286.073 141.23 285.838 142.983 286.455 144.154C287.044 145.272 288.244 145.56 288.126 146.078C288.032 146.502 287.191 146.467 286.12 146.831C285.72 146.967 283.113 147.849 282.531 149.838C282.095 151.315 282.866 153.092 284.119 154.016C285.843 155.287 288.185 154.704 289.462 153.933C290.851 153.098 291.151 151.95 291.716 152.098V152.08Z" fill="white"/>
<path d="M257.607 114.44C257.46 114.864 258.614 115.258 258.82 116.176C259.025 117.099 258.255 118.435 257.349 118.6C255.86 118.871 254.448 115.934 253.536 116.346C253.147 116.517 253.353 117.07 252.841 117.647C252.182 118.394 250.705 118.765 249.546 118.082C248.216 117.294 247.946 115.481 248.505 114.528C249.276 113.21 251.682 113.445 251.712 112.792C251.723 112.504 251.253 112.41 250.67 111.927C249.693 111.121 248.711 109.474 249.199 108.026C249.481 107.197 250.211 106.549 251.017 106.29C252.371 105.861 253.871 106.543 254.395 107.503C254.818 108.273 254.554 109.127 254.912 109.238C255.13 109.303 255.383 109.044 255.866 108.544C256.619 107.761 256.648 107.45 257.078 107.155C257.572 106.82 258.29 106.72 258.814 106.896C260.232 107.367 260.738 109.991 260.202 111.839C260.049 112.375 259.702 113.557 258.731 114.004C258.19 114.252 257.702 114.169 257.607 114.44Z" fill="white"/>
<path d="M161.299 132.84C161.575 132.316 160.269 131.61 159.381 129.686C159.01 128.886 157.904 126.473 159.098 124.784C159.987 123.531 161.893 123.025 163.323 123.543C165.094 124.184 165.724 126.226 166.03 127.203C166.589 129.009 166.306 130.51 166.706 130.586C166.953 130.633 167.212 130.092 167.665 129.292C168.772 127.344 169.501 126.055 170.654 125.232C170.955 125.014 172.361 124.014 174.038 124.331C175.679 124.643 176.591 126.026 177.139 126.867C177.545 127.491 179.139 129.927 178.321 131.94C177.162 134.793 171.849 135.029 171.955 135.605C171.996 135.847 172.92 135.788 174.55 135.941C177.239 136.2 178.58 136.329 179.398 137.123C180.657 138.347 180.757 141.054 179.457 142.813C177.886 144.937 174.773 145.014 172.979 144.108C170.996 143.113 170.272 140.76 169.825 140.954C169.472 141.107 170.154 142.425 169.713 143.943C169.242 145.561 167.665 146.785 166.106 147.215C163.699 147.868 160.716 146.779 160.187 145.073C159.569 143.055 162.505 140.566 161.987 140.06C161.722 139.801 161.005 140.513 159.622 140.789C159.422 140.83 156.191 141.431 154.662 139.383C153.614 137.977 154.044 136.223 154.097 136C154.126 135.882 154.603 134.158 156.238 133.293C158.48 132.104 160.928 133.569 161.311 132.84H161.299Z" fill="white"/>
<path d="M175.435 77.8177C175.247 78.3532 176.641 78.8004 177.13 80.2832C177.5 81.4129 177.271 82.9192 176.353 83.8783C175.094 85.1905 172.787 85.2258 171.487 84.302C169.274 82.725 169.963 78.3355 169.298 78.3061C168.951 78.2885 168.974 79.5065 168.098 80.4185C166.75 81.8248 163.467 82.319 161.543 80.4185C160.419 79.3123 159.683 77.3176 160.413 75.976C161.502 73.9754 165.273 74.5168 165.491 73.1575C165.579 72.6162 164.991 72.475 164.361 71.1158C164.008 70.3508 163.367 68.9681 163.796 67.9442C164.603 66.026 168.727 66.3732 168.945 66.3908C169.522 66.4438 172.693 66.7439 173.387 68.5738C173.858 69.8154 172.946 71.1216 173.387 71.3923C173.799 71.6453 174.476 70.445 175.782 70.192C177.289 69.9036 179.301 70.9392 180.084 72.728C180.643 73.999 180.672 75.8642 179.66 76.8174C178.289 78.1119 175.688 77.0704 175.429 77.806L175.435 77.8177Z" fill="white"/>
<path d="M134.996 42.6542C135.355 41.6127 132.736 40.5595 132.819 38.9119C132.895 37.4174 135.137 36.4524 135.596 36.2523C138.361 35.0578 142.304 35.6345 143.21 37.5821C143.957 39.1885 142.38 41.1714 143.092 41.6892C143.71 42.1364 144.84 40.6124 146.593 40.8419C147.864 41.0066 148.888 42.0187 149.371 43.019C150.194 44.7195 149.747 47.0261 148.523 47.7322C147.211 48.4912 145.399 47.1732 145.022 47.7322C144.681 48.2382 146.228 49.2032 146.47 50.9919C146.693 52.6218 145.805 54.7107 144.416 55.099C142.804 55.5521 140.909 53.6221 140.068 52.1982C139.138 50.6212 139.303 49.3267 138.62 49.1796C137.744 48.9855 137.29 51.0684 135.602 51.598C133.854 52.1452 131.036 50.9449 130.406 48.6971C129.835 46.6554 131.312 44.5842 132.701 43.7427C133.837 43.0543 134.79 43.2661 134.996 42.6542Z" fill="white"/>
<path d="M600.323 153.348C607.032 151.112 606.808 155.808 599.428 158.268C592.943 160.281 586.011 160.728 579.302 160.728H578.408C577.066 166.318 574.159 171.909 571.475 175.934C562.977 188.01 542.18 209.254 525.856 199.191C516.911 193.601 514.004 182.196 519.147 173.027C526.079 160.951 540.391 156.703 553.362 156.255C556.94 156.032 560.294 156.255 563.872 156.255C564.99 148.876 562.53 142.391 553.585 139.931C540.615 136.576 532.564 137.024 524.738 124.277C517.805 112.648 515.569 96.9947 519.594 84.2481C524.29 69.9361 535.024 59.2021 547.771 51.5988C568.121 41.0885 591.378 41.5357 602.112 64.7927C611.728 85.3662 594.285 102.809 575.948 109.294C560.07 114.661 549.56 105.045 554.256 104.822C558.058 104.598 561.636 106.611 567.45 105.94C583.327 103.927 609.715 81.341 597.192 64.3455C589.813 54.506 571.252 55.6241 560.741 59.4257C543.298 66.3581 525.408 85.5898 524.29 105.269C523.396 121.37 533.906 130.762 548.665 134.564C558.952 137.247 571.028 139.036 577.066 148.652C578.631 151.112 579.078 153.795 578.855 156.703C588.471 156.479 591.154 156.479 600.323 153.348ZM562.53 162.07L562.754 161.175V160.504L562.083 160.281C547.771 160.057 530.775 161.399 523.396 175.934C516.24 189.799 530.775 204.111 548.442 184.656C554.703 177.723 558.952 170.791 562.53 162.07ZM683.925 157.373C686.385 152.23 687.951 154.69 686.833 158.044C683.478 169.896 670.955 196.955 655.972 197.85C648.369 198.297 642.778 191.812 642.331 177.5V175.934C642.331 173.474 642.331 171.015 642.555 168.555C642.778 166.766 642.778 165.2 642.778 163.411C640.319 166.095 638.977 169.673 637.188 172.58C631.374 181.972 621.31 192.259 609.682 192.259C583.518 192.259 601.855 130.538 626.007 130.091C630.255 130.091 634.728 131.88 639.2 136.353C640.542 137.918 644.344 143.732 646.356 143.285C647.922 142.838 653.96 135.011 657.761 140.378C661.116 146.192 656.643 163.635 655.525 176.605C655.301 181.525 655.749 186.445 657.761 189.128C666.035 199.862 681.913 161.846 683.925 157.373ZM643.002 158.044C645.686 152.454 644.567 149.77 640.766 145.745C638.082 142.838 635.175 141.272 631.821 141.272C614.154 140.378 603.42 184.656 613.931 183.761C626.007 182.867 637.859 167.884 643.002 158.044ZM734.694 154.914C738.272 152.23 738.719 154.914 735.141 158.715C727.761 166.095 716.133 172.356 705.399 171.685C703.61 171.462 702.044 171.238 700.255 170.791L704.281 176.382C704.728 177.723 711.437 184.879 713.002 188.01C719.711 199.639 717.251 224.014 708.306 234.077L707.635 234.748C705.175 236.984 702.939 237.655 700.926 237.431C662.239 231.617 688.18 63.6746 728.432 61.662C730.445 61.4383 732.457 62.1092 734.47 63.6746C744.757 72.6196 732.905 103.256 727.314 113.096C721.276 123.606 712.107 135.458 703.386 143.956C697.572 150.441 693.994 163.859 701.597 166.542C709.871 169.673 716.58 168.331 725.078 162.964C729.327 160.281 731.339 157.597 734.694 154.914ZM701.373 134.564C700.926 143.732 705.846 135.682 708.082 132.775C719.711 118.239 732.681 97.442 732.457 78.2102C732.234 64.3455 724.407 72.6196 720.382 79.1047C711.437 94.7585 702.492 116.45 701.373 134.564ZM710.989 208.36C711.437 196.955 707.411 187.563 700.032 178.841C696.006 173.922 695.559 177.276 695.112 181.972C693.994 190.917 693.323 215.963 697.795 224.014C698.914 225.803 699.808 226.697 701.821 227.592C708.529 228.039 710.766 213.28 710.989 208.36ZM795.261 161.622C805.548 150.441 811.362 151.559 797.274 164.977C784.527 176.829 765.742 195.39 748.971 190.694C717.439 181.749 733.988 131.657 752.996 116.226C759.705 110.859 770.662 107.505 776.029 116.45C780.502 123.382 775.806 132.104 771.109 137.694C765.742 143.509 758.81 147.758 751.654 151.336C741.144 156.703 739.578 174.593 744.722 181.525C756.797 198.297 786.316 171.015 795.261 161.622ZM767.531 121.593C763.283 117.792 748.523 140.602 748.971 143.956C749.865 148.428 762.835 135.458 764.401 133.446C766.19 130.762 769.544 124.948 767.531 121.593ZM862.289 156.703C865.196 151.336 866.538 153.125 864.078 158.492C858.487 171.685 848.872 183.538 835.901 190.023C835.678 195.39 834.112 201.204 831.876 205.9C827.404 215.069 817.34 227.592 805.936 225.132L805.041 224.685C798.332 221.554 798.78 215.963 801.687 209.925C806.606 198.968 818.235 194.495 828.745 189.799L828.969 189.575C829.193 186.445 828.522 183.314 826.733 180.407C822.931 174.145 814.433 172.58 807.948 168.778C796.096 160.728 798.332 147.758 802.581 136.129C807.277 123.159 816.893 108.623 832.323 109.294C847.083 110.189 848.648 127.184 840.374 137.471C838.585 139.483 836.125 142.167 833.218 142.167C828.522 142.391 835.678 133.446 836.796 131.88C838.585 128.973 842.163 122.264 837.243 120.252C828.074 118.015 813.539 139.036 810.408 146.416C807.277 153.795 807.277 162.293 815.328 166.318C825.838 171.238 834.56 171.685 835.901 185.774V186.445C847.306 180.854 856.475 167.66 862.289 156.703ZM817.34 213.056C822.484 207.465 826.733 200.757 828.522 193.377C820.471 197.402 805.712 203.217 805.488 213.727C805.265 215.516 805.712 216.41 806.83 217.752C810.632 219.541 814.881 215.516 817.34 213.056ZM924.747 161.622C935.034 150.441 940.848 151.559 926.536 164.977C911.553 179.289 887.178 203.44 868.393 184.656C848.043 164.306 874.878 103.256 901.043 111.53C907.751 113.767 908.422 120.923 907.304 126.737C906.633 132.327 898.135 134.116 899.701 124.053C900.372 118.463 899.03 115.332 894.11 120.475C888.296 126.513 882.482 135.235 879.127 143.061C875.997 151.112 868.841 174.369 873.984 181.525C886.06 198.297 915.802 171.015 924.747 161.622ZM1012.81 157.373C1015.27 152.23 1016.84 154.69 1015.72 158.044C1012.36 169.896 999.841 196.955 984.858 197.85C977.255 198.297 971.664 191.812 971.217 177.5V175.934C971.217 173.474 971.217 171.015 971.441 168.555C971.664 166.766 971.664 165.2 971.664 163.411C969.205 166.095 967.863 169.673 966.074 172.58C960.26 181.972 950.196 192.259 938.568 192.259C912.404 192.259 930.741 130.538 954.893 130.091C959.141 130.091 963.614 131.88 968.086 136.353C969.428 137.918 973.23 143.732 975.242 143.285C976.808 142.838 982.846 135.011 986.647 140.378C990.002 146.192 985.529 163.635 984.411 176.605C984.187 181.525 984.635 186.445 986.647 189.128C994.921 199.862 1010.8 161.846 1012.81 157.373ZM971.888 158.044C974.572 152.454 973.453 149.77 969.652 145.745C966.968 142.838 964.061 141.272 960.707 141.272C943.04 140.378 932.306 184.656 942.817 183.761C954.893 182.867 966.745 167.884 971.888 158.044ZM1101.6 153.795C1103.38 155.808 1097.12 167.213 1095.56 169.449C1086.84 181.525 1079.23 176.829 1069.84 183.985C1061.57 190.917 1062.01 201.875 1047.25 202.769C1037.86 203.44 1032.5 190.917 1042.34 183.761C1043.9 182.643 1045.91 181.525 1048.37 180.63C1049.49 180.183 1050.83 179.96 1052.17 179.736C1061.57 177.5 1063.13 146.416 1055.08 144.627C1038.98 140.825 1026.01 179.96 1024.22 191.812C1023.1 200.086 1022.43 227.815 1022.88 236.089C1023.55 251.967 1009.69 248.836 1009.02 232.959C1008.57 220.883 1010.8 186.892 1011.25 179.512L1012.82 152.454L1013.04 151.559C1013.26 147.31 1014.38 128.973 1022.21 133.893C1029.59 144.18 1025.79 151.112 1025.34 162.07C1024.89 171.909 1029.59 164.753 1031.6 160.504C1035.85 150.441 1049.04 130.538 1062.24 137.471L1063.13 138.142C1079.46 151.336 1068.72 168.107 1072.75 174.593C1076.1 178.841 1084.6 175.04 1088.18 172.804C1094.22 168.778 1096.23 161.622 1099.14 155.808C1099.36 155.137 1100.48 152.454 1101.6 153.795ZM1046.14 192.035C1047.7 190.917 1056.65 181.972 1049.94 183.761C1041.44 187.116 1038.31 197.179 1046.14 192.035ZM1161.71 161.622C1172 150.441 1177.81 151.559 1163.72 164.977C1150.98 176.829 1132.19 195.39 1115.42 190.694C1083.89 181.749 1100.44 131.657 1119.44 116.226C1126.15 110.859 1137.11 107.505 1142.48 116.45C1146.95 123.382 1142.25 132.104 1137.56 137.694C1132.19 143.509 1125.26 147.758 1118.1 151.336C1107.59 156.703 1106.03 174.593 1111.17 181.525C1123.25 198.297 1152.76 171.015 1161.71 161.622ZM1133.98 121.593C1129.73 117.792 1114.97 140.602 1115.42 143.956C1116.31 148.428 1129.28 135.458 1130.85 133.446C1132.64 130.762 1135.99 124.948 1133.98 121.593ZM1344.78 59.6493C1354.62 51.3752 1357.3 63.0037 1351.26 69.2652C1331.36 89.6151 1296.03 53.1642 1297.37 72.396C1298.71 88.0497 1296.25 101.244 1293.57 116.897C1293.35 123.606 1296.25 120.028 1301.62 118.91C1309.67 117.792 1318.17 119.357 1319.29 128.973C1319.06 135.905 1311.46 142.167 1311.24 130.315C1311.24 120.252 1292.9 122.935 1292 132.104C1290.89 143.285 1286.86 156.703 1280.6 168.331C1274.78 179.289 1265.84 191.364 1254.43 195.166C1242.14 199.191 1229.39 193.153 1225.14 179.736C1221.34 168.331 1223.35 154.466 1232.97 148.205C1238.11 144.627 1241.02 148.876 1235.87 152.454C1231.18 155.808 1229.17 160.951 1228.72 168.555C1228.05 179.065 1232.52 192.706 1245.49 192.035C1279.48 188.681 1283.95 95.4293 1282.84 69.7125C1282.61 63.0037 1279.26 63.0037 1274.34 65.6872C1267.63 69.2652 1261.14 75.3031 1254.43 79.552C1251.08 82.0118 1244.82 85.1426 1241.02 81.5646C1233.86 74.8558 1261.59 59.2021 1266.06 56.9658C1292.9 46.9027 1296.92 59.2021 1320.4 64.7927C1330.69 67.2526 1337.62 65.4636 1344.78 59.6493ZM1394.97 158.044C1399.44 149.323 1399.89 156.032 1396.09 162.964C1390.27 173.251 1385.58 179.065 1373.73 179.289C1372.38 179.512 1369.92 179.065 1368.58 179.736C1367.47 180.63 1364.33 188.457 1363.22 190.246C1358.97 198.073 1355.17 202.546 1346.89 205.9C1313.57 216.634 1305.97 152.677 1337.95 138.365C1340.63 137.247 1339.96 135.458 1343.31 132.775C1344.66 131.657 1345.77 130.986 1347.34 130.315C1360.53 126.96 1365.9 137.247 1368.58 148.428C1370.6 157.373 1370.82 162.517 1369.48 171.685C1369.25 175.04 1369.03 176.605 1372.61 176.605C1382.22 177.052 1389.16 169.673 1394.97 158.044ZM1360.76 181.078C1361.87 176.158 1355.84 175.263 1352.03 172.804C1346 168.555 1344.88 164.753 1340.85 158.715C1339.51 156.926 1338.39 156.255 1337.5 156.032C1328.11 154.914 1323.19 204.782 1344.88 196.061C1350.47 193.601 1359.64 187.116 1360.76 181.078ZM1367.24 166.989C1368.14 158.492 1363.66 143.509 1356.73 138.142C1354.27 136.129 1352.48 136.576 1351.36 139.483C1350.47 141.943 1350.47 145.521 1348.9 147.534C1344.66 152.901 1339.06 151.112 1344.43 159.61C1347.79 164.529 1356.28 171.685 1361.87 173.251C1365.23 174.369 1367.02 169.449 1367.24 166.989ZM1483.98 156.926C1485.99 150.888 1488.9 152.901 1486.89 158.715C1482.42 172.133 1466.54 202.546 1449.77 194.719C1445.07 192.706 1442.39 187.339 1442.61 179.512C1442.83 171.685 1444.4 163.635 1443.06 161.846C1442.39 160.951 1440.15 163.411 1437.91 166.542C1430.98 175.487 1417.56 187.339 1407.28 185.55C1388.05 182.196 1394.31 149.77 1401.91 135.905C1412.64 116.674 1422.48 128.749 1416.89 141.943C1413.76 149.994 1402.36 183.538 1415.1 179.065C1418.01 178.171 1420.69 176.382 1423.15 174.593C1432.99 167.213 1441.04 156.926 1446.19 145.521C1451.55 133.669 1462.74 137.471 1461.17 147.758C1460.72 151.336 1455.8 174.145 1456.03 185.103C1456.25 194.272 1462.96 192.483 1469.67 183.09C1475.71 174.816 1481.97 163.188 1483.98 156.926ZM1565.26 159.61C1569.29 148.205 1570.86 153.348 1567.28 162.964C1563.48 173.027 1557.89 185.55 1550.51 193.601C1540 204.782 1520.32 206.347 1519.2 187.786C1519.2 184.432 1519.65 180.63 1520.54 176.605C1522.11 170.12 1528.59 155.137 1527.7 149.77C1526.58 142.391 1520.32 145.969 1516.74 149.099C1514.05 151.559 1512.04 154.243 1509.81 156.926C1501.08 169.226 1498.62 175.934 1493.93 189.128C1492.59 192.035 1489.23 197.626 1485.43 196.508L1484.54 196.061C1477.6 190.023 1483.42 161.622 1484.31 152.454C1484.76 147.758 1485.43 141.049 1487.44 136.8C1490.57 132.104 1497.95 134.787 1499.3 140.602C1500.41 152.006 1496.84 157.15 1495.72 167.213C1494.82 176.605 1500.64 165.648 1501.98 163.411C1507.57 154.243 1526.58 124.277 1538.65 140.602C1546.26 150.665 1537.09 165.648 1533.51 175.934C1532.17 180.183 1531.27 183.761 1530.83 186.445C1529.04 198.073 1540.44 199.639 1548.49 191.812C1556.32 182.867 1561.24 170.567 1565.26 159.61ZM1652.73 48.4681C1663.24 54.2823 1658.55 69.7125 1655.64 78.8811C1649.6 97.442 1635.74 119.804 1620.53 132.104C1612.48 138.589 1611.36 166.095 1616.51 181.078C1618.52 186.892 1625.23 192.483 1629.48 185.327C1634.17 177.5 1639.32 163.635 1640.66 160.281C1644.91 149.994 1646.02 154.019 1642.89 162.517C1641.33 166.766 1636.86 178.841 1631.71 186.892C1624.33 198.297 1611.14 193.153 1607.11 181.749C1606.44 179.96 1606 178.171 1605.1 176.605C1603.98 174.593 1602.87 173.922 1600.41 175.711C1598.39 177.5 1596.83 179.289 1595.26 181.078C1589.67 188.01 1584.08 190.917 1578.94 190.917C1550.98 191.141 1561.27 136.129 1595.49 138.589C1603.09 139.036 1603.98 139.483 1605.33 130.538C1608.23 108.176 1616.73 82.2355 1627.46 62.3328C1632.16 53.6115 1640.88 42.4302 1651.84 48.0208L1652.73 48.4681ZM1649.16 81.341C1650.94 76.4212 1657.43 57.8603 1652.06 54.0587C1646.92 51.3752 1640.88 65.24 1639.32 68.5943C1635.96 75.5267 1632.38 83.8008 1629.25 91.1805C1626.79 96.7711 1617.85 118.015 1617.4 122.712C1616.95 124.724 1617.18 125.842 1617.62 127.631C1625.23 124.501 1637.3 105.269 1641.33 98.1129C1644.24 92.7458 1646.92 87.1552 1649.16 81.341ZM1601.52 163.859C1601.75 160.951 1603.54 147.31 1601.3 145.745C1599.29 144.18 1592.8 147.534 1587.21 151.336C1565.97 165.871 1572.9 190.694 1588.33 180.183C1593.92 176.382 1600.85 169.673 1601.52 163.859ZM1675.54 83.5772C1676.21 83.5772 1676.44 83.8008 1676.21 83.8008C1676.21 84.0245 1675.77 84.0245 1675.32 84.0245C1674.87 83.8008 1675.1 83.8008 1675.54 83.5772ZM1678.67 84.0245V84.2481H1678.45C1678 84.2481 1678.23 84.2481 1678.67 84.0245ZM1725.62 157.373C1728.08 152.23 1729.64 154.69 1728.52 158.044C1725.17 169.896 1712.65 196.955 1697.66 197.85C1690.06 198.297 1684.47 191.812 1684.02 177.5V175.934C1684.02 173.474 1684.02 171.015 1684.25 168.555C1684.47 166.766 1684.47 165.2 1684.47 163.411C1682.01 166.095 1680.67 169.673 1678.88 172.58C1673.06 181.972 1663 192.259 1651.37 192.259C1625.21 192.259 1643.55 130.538 1667.7 130.091C1671.95 130.091 1676.42 131.88 1680.89 136.353C1682.23 137.918 1686.03 143.732 1688.05 143.285C1689.61 142.838 1695.65 135.011 1699.45 140.378C1702.81 146.192 1698.33 163.635 1697.22 176.605C1696.99 181.525 1697.44 186.445 1699.45 189.128C1707.73 199.862 1723.6 161.846 1725.62 157.373ZM1684.69 158.044C1687.38 152.454 1686.26 149.77 1682.46 145.745C1679.77 142.838 1676.87 141.272 1673.51 141.272C1655.85 140.378 1645.11 184.656 1655.62 183.761C1667.7 182.867 1679.55 167.884 1684.69 158.044ZM1770.12 104.598C1770.35 104.374 1775.71 100.349 1775.27 103.033C1774.6 105.716 1768.33 109.294 1765.65 110.189C1759.39 112.425 1752.9 111.754 1746.42 110.636C1745.97 112.425 1745.3 114.214 1745.08 115.779C1740.6 134.564 1736.8 159.386 1737.03 178.618C1737.03 181.972 1737.7 194.048 1743.51 192.483C1752.01 190.246 1763.19 154.466 1766.32 152.677C1768.78 151.336 1766.99 156.703 1766.77 157.373C1764.08 164.977 1756.03 182.196 1751.34 188.681C1748.88 192.483 1745.75 196.284 1741.72 198.297C1733.67 201.651 1728.53 193.153 1726.96 186.668C1722.27 161.846 1727.19 133.446 1732.55 107.952C1727.63 107.058 1722.94 106.611 1719.14 108.176C1714.89 109.965 1713.55 116.003 1709.07 112.872C1704.6 109.518 1711.09 104.151 1714.89 103.033C1719.58 101.691 1726.52 102.585 1733.45 104.151L1735.46 94.7585C1736.8 89.1678 1739.26 79.7756 1746.19 87.1552C1751.11 92.5222 1749.55 100.125 1747.54 107.281L1750.44 107.952C1758.05 108.847 1763.41 108.847 1770.12 104.598ZM1775.91 133.893C1771.67 130.538 1768.09 124.724 1770.1 119.357C1772.34 114.437 1778.6 117.345 1781.28 121.146C1782.62 123.382 1783.29 125.842 1783.74 128.526C1784.64 135.235 1782.85 138.813 1775.91 133.893ZM1806.77 154.69C1807.45 154.019 1808.56 154.466 1808.34 156.032C1808.12 158.268 1806.77 161.399 1804.76 164.753C1802.97 167.437 1799.17 173.251 1794.92 178.171C1788.21 186.221 1779.05 192.706 1770.32 182.419C1763.61 174.593 1762.94 159.61 1764.51 150.888C1767.64 134.564 1780.16 139.483 1780.83 151.783C1781.06 156.479 1778.15 167.437 1779.72 175.04C1781.51 184.879 1787.32 182.643 1792.46 176.605C1796.71 171.909 1800.74 165.2 1801.85 163.188C1804.31 158.939 1805.66 155.584 1806.77 154.69ZM1879.13 158.044C1883.6 149.323 1884.05 156.032 1880.25 162.964C1874.43 173.251 1869.74 179.065 1857.88 179.289C1856.54 179.512 1854.08 179.065 1852.74 179.736C1851.62 180.63 1848.49 188.457 1847.37 190.246C1843.12 198.073 1839.32 202.546 1831.05 205.9C1797.73 216.634 1790.13 152.677 1822.1 138.365C1824.79 137.247 1824.12 135.458 1827.47 132.775C1828.81 131.657 1829.93 130.986 1831.5 130.315C1844.69 126.96 1850.06 137.247 1852.74 148.428C1854.75 157.373 1854.98 162.517 1853.63 171.685C1853.41 175.04 1853.19 176.605 1856.77 176.605C1866.38 177.052 1873.31 169.673 1879.13 158.044ZM1844.91 181.078C1846.03 176.158 1839.99 175.263 1836.19 172.804C1830.15 168.555 1829.04 164.753 1825.01 158.715C1823.67 156.926 1822.55 156.255 1821.66 156.032C1812.26 154.914 1807.34 204.782 1829.04 196.061C1834.63 193.601 1843.8 187.116 1844.91 181.078ZM1851.4 166.989C1852.29 158.492 1847.82 143.509 1840.89 138.142C1838.43 136.129 1836.64 136.576 1835.52 139.483C1834.63 141.943 1834.63 145.521 1833.06 147.534C1828.81 152.901 1823.22 151.112 1828.59 159.61C1831.94 164.529 1840.44 171.685 1846.03 173.251C1849.39 174.369 1851.17 169.449 1851.4 166.989ZM1960.76 159.61C1964.78 148.205 1966.35 153.348 1962.77 162.964C1958.97 173.027 1953.38 185.55 1946 193.601C1935.49 204.782 1915.81 206.347 1914.69 187.786C1914.69 184.432 1915.14 180.63 1916.03 176.605C1917.6 170.12 1924.08 155.137 1923.19 149.77C1922.07 142.391 1915.81 145.969 1912.23 149.099C1909.55 151.559 1907.54 154.243 1905.3 156.926C1896.58 169.226 1894.12 175.934 1889.42 189.128C1888.08 192.035 1884.73 197.626 1880.92 196.508L1880.03 196.061C1873.1 190.023 1878.91 161.622 1879.81 152.454C1880.25 147.758 1880.92 141.049 1882.94 136.8C1886.07 132.104 1893.45 134.787 1894.79 140.602C1895.91 152.006 1892.33 157.15 1891.21 167.213C1890.32 176.605 1896.13 165.648 1897.47 163.411C1903.06 154.243 1922.07 124.277 1934.15 140.602C1941.75 150.665 1932.58 165.648 1929 175.934C1927.66 180.183 1926.77 183.761 1926.32 186.445C1924.53 198.073 1935.94 199.639 1943.99 191.812C1951.81 182.867 1956.73 170.567 1960.76 159.61Z" fill="#212121"/>
<path d="M555.062 310.645H560.909L549.276 354.253H543.551L534.172 325.506H533.928L524.549 354.253H518.824L506.704 310.645H512.551L521.747 344.935H521.991L531.431 316.492H536.669L546.109 344.935H546.353L555.062 310.645ZM597.444 354.253H591.841V310.645H597.444V329.343H619.248V310.645H624.851V354.253H619.248V334.581H597.444V354.253ZM684.632 310.645V316.005H664.777V329.83H682.683V335.068H664.777V348.893H684.632V354.253H659.174V310.645H684.632ZM723.367 316.005V331.353H732.381C734.654 331.353 736.583 330.622 738.167 329.16C739.75 327.658 740.542 325.81 740.542 323.618C740.542 321.588 739.791 319.822 738.288 318.319C736.827 316.776 734.979 316.005 732.746 316.005H723.367ZM723.367 354.253H717.764V310.645H732.624C736.4 310.645 739.608 311.904 742.247 314.421C744.927 316.898 746.267 319.964 746.267 323.618C746.267 326.623 745.272 329.302 743.283 331.657C741.334 333.972 738.857 335.454 735.852 336.103L735.73 336.286L747.972 354.009V354.253H741.334L729.579 336.591H723.367V354.253ZM804.012 310.645V316.005H784.157V329.83H802.063V335.068H784.157V348.893H804.012V354.253H778.554V310.645H804.012ZM888.528 316.005V354.253H882.925V316.005H870.744V310.645H900.709V316.005H888.528ZM943.988 317.527L936.863 337.2H951.358L944.232 317.527H943.988ZM930.711 354.253H924.499L940.943 310.645H947.277L963.722 354.253H957.509L953.307 342.437H934.975L930.711 354.253ZM1000.02 354.253H994.416V310.645H1000.02V354.253ZM1058.87 354.253H1034.39V310.645H1039.99V348.893H1058.87V354.253ZM1117.22 342.62C1117.22 346.437 1115.82 349.502 1113.02 351.817C1110.18 354.091 1106.73 355.227 1102.67 355.227C1099.05 355.227 1095.86 354.172 1093.1 352.06C1090.34 349.949 1088.43 347.066 1087.38 343.412L1092.74 341.219C1093.1 342.519 1093.61 343.696 1094.26 344.752C1094.91 345.807 1095.66 346.721 1096.51 347.493C1097.41 348.223 1098.38 348.812 1099.44 349.259C1100.49 349.665 1101.61 349.868 1102.79 349.868C1105.35 349.868 1107.44 349.218 1109.06 347.919C1110.68 346.579 1111.5 344.813 1111.5 342.62C1111.5 340.793 1110.83 339.23 1109.49 337.93C1108.23 336.672 1105.87 335.454 1102.42 334.276C1098.93 333.018 1096.76 332.165 1095.91 331.718C1091.28 329.363 1088.96 325.892 1088.96 321.304C1088.96 318.096 1090.24 315.355 1092.8 313.081C1095.4 310.808 1098.59 309.671 1102.36 309.671C1105.69 309.671 1108.57 310.523 1111.01 312.229C1113.45 313.893 1115.07 315.985 1115.88 318.502L1110.64 320.694C1110.16 319.07 1109.18 317.73 1107.72 316.675C1106.3 315.579 1104.55 315.03 1102.48 315.03C1100.29 315.03 1098.44 315.639 1096.94 316.858C1095.44 317.994 1094.69 319.476 1094.69 321.304C1094.69 322.806 1095.28 324.105 1096.45 325.201C1097.75 326.298 1100.57 327.597 1104.92 329.099C1109.35 330.602 1112.49 332.449 1114.36 334.642C1116.27 336.794 1117.22 339.453 1117.22 342.62ZM1194.11 354.253H1188.51V310.645H1194.11L1209.28 337.2H1209.52L1224.69 310.645H1230.29V354.253H1224.69V328.368L1224.93 321.06H1224.69L1211.04 344.995H1207.75L1194.11 321.06H1193.87L1194.11 328.368V354.253ZM1290.1 310.645V316.005H1270.25V329.83H1288.15V335.068H1270.25V348.893H1290.1V354.253H1264.64V310.645H1290.1ZM1348.69 310.645V316.005H1328.84V329.83H1346.74V335.068H1328.84V348.893H1348.69V354.253H1323.23V310.645H1348.69ZM1396.68 316.005V354.253H1391.08V316.005H1378.9V310.645H1408.87V316.005H1396.68ZM1491.68 316.005V354.253H1486.08V316.005H1473.89V310.645H1503.86V316.005H1491.68ZM1547.14 317.527L1540.01 337.2H1554.51L1547.38 317.527H1547.14ZM1533.86 354.253H1527.65L1544.09 310.645H1550.43L1566.87 354.253H1560.66L1556.46 342.437H1538.13L1533.86 354.253ZM1622.05 354.253H1597.57V310.645H1603.17V348.893H1622.05V354.253ZM1678.94 310.645V316.005H1659.08V329.83H1676.99V335.068H1659.08V348.893H1678.94V354.253H1653.48V310.645H1678.94ZM1738.99 342.62C1738.99 346.437 1737.59 349.502 1734.79 351.817C1731.94 354.091 1728.49 355.227 1724.43 355.227C1720.82 355.227 1717.63 354.172 1714.87 352.06C1712.11 349.949 1710.2 347.066 1709.15 343.412L1714.51 341.219C1714.87 342.519 1715.38 343.696 1716.03 344.752C1716.68 345.807 1717.43 346.721 1718.28 347.493C1719.17 348.223 1720.15 348.812 1721.2 349.259C1722.26 349.665 1723.38 349.868 1724.55 349.868C1727.11 349.868 1729.2 349.218 1730.83 347.919C1732.45 346.579 1733.26 344.813 1733.26 342.62C1733.26 340.793 1732.59 339.23 1731.25 337.93C1730 336.672 1727.64 335.454 1724.19 334.276C1720.7 333.018 1718.53 332.165 1717.67 331.718C1713.04 329.363 1710.73 325.892 1710.73 321.304C1710.73 318.096 1712.01 315.355 1714.57 313.081C1717.16 310.808 1720.35 309.671 1724.13 309.671C1727.46 309.671 1730.34 310.523 1732.78 312.229C1735.21 313.893 1736.84 315.985 1737.65 318.502L1732.41 320.694C1731.92 319.07 1730.95 317.73 1729.49 316.675C1728.07 315.579 1726.32 315.03 1724.25 315.03C1722.06 315.03 1720.21 315.639 1718.71 316.858C1717.21 317.994 1716.45 319.476 1716.45 321.304C1716.45 322.806 1717.04 324.105 1718.22 325.201C1719.52 326.298 1722.34 327.597 1726.69 329.099C1731.11 330.602 1734.26 332.449 1736.13 334.642C1738.03 336.794 1738.99 339.453 1738.99 342.62Z" fill="#212121"/>
</svg>
